<svg xmlns="http://www.w3.org/2000/svg" viewBox="0 0 975.75 1556.56" xmlns:v="https://vecta.io/nano"><path d="M975.75,487.88C975.75,218.43,757.33,0,487.88,0S0,218.43,0,487.88c0,420.12,158,824,158,824h0c42.84,141.57,174.28,244.66,329.84,244.66s287-103.09,329.83-244.66h0S975.75,908,975.75,487.88Z" fill="#f388a3"/><path d="M487.88 70.8c-198.28 0-359.59 161.31-359.59 359.58S289.6 790 487.88 790h4.57l-28.2 7.76c-3.83 1-7.68 1.77-11.49 2.58l-6.37 1.37-17.55 3.77c-5.72 1.25-11.09 2.44-16.52 3.18l-31.16 4.95c-8.31 1.5-16.25 2.31-23.25 3l-41 4.36a5 5 0 0 0 .51 9.95h.18l41.28-1.41c7.23-.23 15.43-.48 24.12-1.41l31.43-2.7c5.81-.37 11.52-1.21 17.55-2.08l17.94-2.53 6.46-.91 12.31-1.85 38.31-7.67 19.13-5 6.68-1.74 12.68-3.43 18.51-6.03c9.37-2.78 18.31-6.37 27-9.85l9.29-3.68c4-1.48 7.78-3.3 11.42-5.06l5.85-2.76c1.84-.91 3.69-1.76 5.53-2.61a114.23 114.23 0 0 0 10.55-5.3l14.73-8.14c3.28-1.81 6.31-3.77 9.23-5.67 1.49-1 2.95-1.91 4.48-2.86l12.39-8.42 3.79-2.77c2.46-1.78 4.83-3.5 7.06-5.33l6.1-5.1a359.92 359.92 0 0 0 156.04-296.23c0-198.27-161.3-359.58-359.58-359.58z" fill="#c16680"/><circle cx="487.88" cy="430.38" r="343.79" fill="#fdcba3"/><path d="M373.89 493.32c0 24.59-15.66 44.52-35 44.52s-35-19.93-35-44.52 15.66-44.53 35-44.53 35 19.94 35 44.53zm297.94 0c0 24.59-15.65 44.52-35 44.52s-35-19.93-35-44.52 15.65-44.53 35-44.53 35 19.94 35 44.53zm-182.67-291.1l-3.37-1.24 1.91.81a43.56 43.56 0 0 1-9.56-5.58l1.61 1.24a46.8 46.8 0 0 1-8.11-8.17l1.24 1.61a52.34 52.34 0 0 1-6.59-11.36l.8 1.91a56.51 56.51 0 0 1-3.86-14.26l.28 2.11a54.84 54.84 0 0 1 0-14.08l-.29 2.12a48.78 48.78 0 0 1 3.25-12.1l-.8 1.9A57.36 57.36 0 0 1 473 134.3l-1.24 1.61a44.93 44.93 0 0 1 7.77-7.82l-1.53 1.24a41.47 41.47 0 0 1 9.12-5.33l-1.9.8a43.12 43.12 0 0 1 10.72-2.87l-2.11.28a49.74 49.74 0 0 1 12.61.06l-2.11-.28a59.48 59.48 0 0 1 15.09 4.19l-1.9-.8a69.75 69.75 0 0 1 15.2 8.94l-1.61-1.25a72.24 72.24 0 0 1 12.71 12.61l-1.24-1.61a37.79 37.79 0 0 1 5 8.25l-.81-1.9a21.79 21.79 0 0 1 1.46 5.13l-.28-2.12a16.07 16.07 0 0 1 0 3.92l.28-2.12a12.53 12.53 0 0 1-.81 3.07l.8-1.9a12.39 12.39 0 0 1-1.52 2.64l1.24-1.61a13.47 13.47 0 0 1-2.29 2.3l1.61-1.24a16.35 16.35 0 0 1-3.62 2.1l1.9-.8a22.1 22.1 0 0 1-5.39 1.43l2.12-.29a28.39 28.39 0 0 1-7.31 0l2.12.29a33.87 33.87 0 0 1-8.49-2.34l1.9.8a37.15 37.15 0 0 1-8-4.73l1.61 1.24a39 39 0 0 1-6.77-6.81l1.17 1.62a48 48 0 0 1-6.09-10.46l.81 1.91a52 52 0 0 1-3.5-13l.28 2.12a60 60 0 0 1 0-15.67l-.28 2.12a64.6 64.6 0 0 1 4.46-16.37l-.8 1.9a59.55 59.55 0 0 1 7.52-13l-1.24 1.61a50 50 0 0 1 8.79-8.9l-1.61 1.25a41.7 41.7 0 0 1 9-5.34l-1.9.8a37.88 37.88 0 0 1 9.45-2.6l-2.11.28a38.42 38.42 0 0 1 10 0l-2.11-.29a45.81 45.81 0 0 1 11.58 3.26l-1.9-.8 2.57 1.17a8.49 8.49 0 0 0 6.13.8 8.09 8.09 0 0 0 4.76-3.66c1.88-3.56 1.14-8.94-2.86-10.88-7.33-3.56-15.21-5.89-23.42-5.87a46.05 46.05 0 0 0-20.7 5.16C512.75 73 504 85 498.66 97.85a67.67 67.67 0 0 0-3.2 41.5 53.45 53.45 0 0 0 8.78 19 49 49 0 0 0 9.34 9.74 45.94 45.94 0 0 0 10.87 6.21c12.06 4.95 29.11 4 36.62-8.13a20.31 20.31 0 0 0 2.87-10.17 27.83 27.83 0 0 0-2.7-11.68 46.9 46.9 0 0 0-7.12-11 73.11 73.11 0 0 0-7.85-8.18c-11.81-10.53-26.45-17.66-42.32-19a50.14 50.14 0 0 0-40.5 15.16 59.76 59.76 0 0 0-16 47.1 64.4 64.4 0 0 0 7.85 24.85 54.91 54.91 0 0 0 17.85 18.92 50.41 50.41 0 0 0 11.75 5.45 8 8 0 0 0 9.79-5.56 8.15 8.15 0 0 0-5.56-9.79z" fill="#481b00"/><path d="M351.94 473.36c0 6.18 3 11.19 6.77 11.19s6.76-5 6.76-11.19-3-11.2-6.76-11.2-6.77 5.01-6.77 11.2zM315.46 506c0 10 6.08 18.15 13.55 18.15S342.54 516 342.54 506s-6.06-18.2-13.54-18.2-13.54 8.12-13.54 18.2zm308.37-32.64c0 6.18-3 11.19-6.78 11.19s-6.76-5-6.76-11.19 3-11.2 6.76-11.2 6.78 5.01 6.78 11.2zM660.3 506c0 10-6.06 18.15-13.53 18.15S633.22 516 633.22 506s6.06-18.15 13.55-18.15 13.53 8.07 13.53 18.15z" fill="#fff"/><path d="M472.82 542.86l-.63-3.13a18.33 18.33 0 0 1 .42-4l.75-2.38a21.91 21.91 0 0 1 1.38-2.44 15.44 15.44 0 0 1 4.6-4.58 12.26 12.26 0 0 1 3.26-1.68 12.93 12.93 0 0 1 3.76-1l1-.16.5-.07h.84l1.59.06a14.26 14.26 0 0 1 4.15.79 17.95 17.95 0 0 1 11.93 11.84 14.61 14.61 0 0 1 .81 4.14l.1 2v.38.56l-.08.38-.14.77a17.83 17.83 0 0 1-2.66 6.93 15.21 15.21 0 0 1-4.58 4.6 20.42 20.42 0 0 1-2.44 1.38L495 558a18.77 18.77 0 0 1-3.89.41 29.74 29.74 0 0 1-3.21-.63l2.84-1.24c.8-.56 1.78-1.08 2.72-1.85a16.54 16.54 0 0 0 2.68-2.88 13 13 0 0 0 1.86-3.71 6 6 0 0 0 .43-1.92 6.75 6.75 0 0 0 .16-1v-1.55a12.16 12.16 0 0 0-1-4.28 13.42 13.42 0 0 0-2.48-3.76 13.79 13.79 0 0 0-3.64-2.45 5.82 5.82 0 0 0-2.13-.71l-1.58-.26h-.2-.09-.07.42-.82a7.55 7.55 0 0 0-2.23.11 7.88 7.88 0 0 0-2.16.48 13.23 13.23 0 0 0-3.84 1.89 15.89 15.89 0 0 0-2.88 2.69c-.76.92-1.27 1.82-1.84 2.63l-1.23 2.89z" fill="#481b00"/><path d="M365.22 574.7c0 14.22-24.85 25.75-55.52 25.75s-55.53-11.53-55.53-25.75S279 549 309.7 549s55.52 11.48 55.52 25.7zm356.37 0c0 14.22-24.86 25.75-55.52 25.75s-55.53-11.53-55.53-25.75 24.85-25.7 55.53-25.7 55.52 11.48 55.52 25.7z" fill="#f9b098"/><path d="M462.1 222.6s-46.55-50.84-73.1-29.49c-18.06 14.54-17.86 27.82-8.31 44 0 0-23.68 28.65-7.08 50.66s67.7 4.57 88.47-19.1.02-46.07.02-46.07zm51.57 0s46.54-50.84 73.07-29.49c18.06 14.54 17.86 27.82 8.31 44 0 0 23.69 28.65 7.08 50.66s-67.7 4.57-88.46-19.1 0-46.07 0-46.07z" fill="#f2809f"/><g fill="#f388a3"><path d="M518.81,265.77a14.12,14.12,0,0,1-14.13,14.12H471.07A14.12,14.12,0,0,1,457,265.77v-44a14.12,14.12,0,0,1,14.11-14.12h33.61a14.12,14.12,0,0,1,14.13,14.12Z"/><circle cx="487.88" cy="652.83" r="52.38"/></g><circle cx="487.88" cy="652.83" r="28.06" fill="#fff"/></svg>