<svg xmlns="http://www.w3.org/2000/svg" viewBox="0 0 975.76 1556.56" xmlns:v="https://vecta.io/nano"><path d="M975.76 487.88C975.76 218.43 757.33 0 487.88 0S0 218.43 0 487.88c0 420.12 158 824 158 824h0c42.84 141.57 174.28 244.66 329.84 244.66s287-103.09 329.84-244.66h0s158.08-403.88 158.08-824z" fill="#9ddcf9"/><path d="M487.88 70.8c-198.28 0-359.59 161.31-359.59 359.58S289.6 789.96 487.88 789.96h4.57l-28.19 7.76c-3.84 1-7.69 1.77-11.5 2.57l-6.37 1.38-17.55 3.77c-5.71 1.25-11.09 2.44-16.52 3.18l-31.16 5c-8.32 1.49-16.24 2.31-23.25 3l-41 4.36a5.01 5.01 0 0 0-4.74 5.26 5.01 5.01 0 0 0 5.26 4.74h.18l41.28-1.41c7.24-.23 15.43-.48 24.12-1.41l31.43-2.7c5.81-.37 11.51-1.21 17.55-2.08l17.94-2.53 6.45-.91 12.32-1.85 38.29-7.65 19.14-5 6.67-1.74 12.68-3.43 18.58-6.07c9.37-2.78 18.31-6.38 27-9.85l9.29-3.68c4-1.48 7.78-3.3 11.42-5.06l5.85-2.76c1.84-.91 3.7-1.76 5.53-2.61a116.79 116.79 0 0 0 10.55-5.3l14.73-8.14c3.28-1.81 6.31-3.77 9.23-5.67 1.49-1 3-1.91 4.48-2.86l12.39-8.42c1.27-1 2.54-1.87 3.79-2.77 2.46-1.78 4.83-3.5 7.06-5.33l6.1-5.1c97.579-67.063 155.936-177.827 156.07-296.23C847.47 232.11 686.16 70.8 487.88 70.8z" fill="#6ab9d9"/><path d="M831.67 430.38c0 189.87-153.93 343.79-343.79 343.79S144.1 620.25 144.1 430.38 298.01 86.62 487.88 86.62s343.79 153.89 343.79 343.76z" fill="#fdcba3"/><path d="M373.88 493.32c0 24.59-15.66 44.52-35 44.52s-35-19.93-35-44.52 15.66-44.53 35-44.53 35 19.94 35 44.53zm297.96 0c0 24.59-15.67 44.52-35 44.52s-35-19.93-35-44.52 15.65-44.53 35-44.53 35 19.94 35 44.53zm-182.7-291.1c-18.63-6.28-28.58-27.74-25.68-46.51 2.82-18.28 16.9-33.46 35.77-33.88 18.08-.41 37 11.48 46.3 26.62a19.51 19.51 0 0 1 2.21 5c.1.36.23 3.24.35 2.45 0 .19-.76 2.47-.09.9a11.86 11.86 0 0 1-1.08 1.86c.9-1.36-.5.35-.68.52 1.06-1-1.13.64-1.48.83a16.49 16.49 0 0 1-3.46 1c1.39-.29-1.38.11-1.35.1-.91.06-1.83 0-2.74 0a26.81 26.81 0 0 1-10.4-3.27c-19.15-10.47-20.71-37.78-12.82-55.7 8.54-19.4 27.3-30.81 47.54-21.2 9.22 4.38 17.3-9.34 8-13.74-18.41-8.74-37.71-7.22-53.61 5.77-14.23 11.62-21.53 30.84-22.33 48.78-.86 19.48 8 39.76 25.16 49.83 14.34 8.42 37.86 8.2 44.29-10 3.37-9.51-2.3-20-8-27.2a79.77 79.77 0 0 0-24-20.12c-17.28-9.49-38.53-11.64-56.19-2-19.06 10.4-29.24 33.89-27.51 54.94 1.86 22.56 15.78 43 37.55 50.34 9.76 3.29 13.91-12.09 4.23-15.35z" fill="#481b00"/><g fill="#fff"><path d="M351.94 473.35c0 6.19 3 11.2 6.77 11.2s6.76-5 6.76-11.2-3-11.19-6.76-11.19-6.77 5.01-6.77 11.19zm-36.47 32.6c0 10 6 18.15 13.54 18.15s13.53-8.13 13.53-18.15-6.07-18.15-13.53-18.15-13.54 8.12-13.54 18.15z"/><ellipse cx="617.06" cy="473.36" rx="6.76" ry="11.2"/><path d="M660.3 505.95c0 10-6.07 18.15-13.54 18.15s-13.54-8.13-13.54-18.15 6.06-18.15 13.54-18.15 13.54 8.12 13.54 18.15z"/></g><path d="M472.81 542.86l-.63-3.13a18.47 18.47 0 0 1 .42-4l.76-2.37a20.29 20.29 0 0 1 1.37-2.44 15.44 15.44 0 0 1 4.6-4.58 12.72 12.72 0 0 1 3.26-1.68 13 13 0 0 1 3.76-1l1-.16.5-.07h.84l1.59.06a14.53 14.53 0 0 1 4.15.78 19.58 19.58 0 0 1 7.48 4.48 19.79 19.79 0 0 1 4.45 7.37 14.54 14.54 0 0 1 .81 4.13l.1 2.06v.44.49l-.08.39-.15.77a17.73 17.73 0 0 1-2.64 6.93 15.35 15.35 0 0 1-4.59 4.6 20.33 20.33 0 0 1-2.43 1.38l-2.39.75a18.53 18.53 0 0 1-3.87.41 30.41 30.41 0 0 1-3.22-.63l2.84-1.24c.79-.56 1.77-1.08 2.71-1.85a16.91 16.91 0 0 0 2.68-2.88 13 13 0 0 0 1.89-3.85 6.24 6.24 0 0 0 .42-1.92 10.23 10.23 0 0 0 .18-2.56 12 12 0 0 0-1-4.28 13.34 13.34 0 0 0-2.48-3.76 14.11 14.11 0 0 0-3.63-2.44 5.88 5.88 0 0 0-2.14-.71l-1.57-.26h-.2-.1 0 .42-.86a8 8 0 0 0-2.24.11 7.4 7.4 0 0 0-2.15.49 12.8 12.8 0 0 0-3.85 1.89 16.54 16.54 0 0 0-2.88 2.68c-.76.92-1.26 1.82-1.84 2.63l-1.29 2.97z" fill="#481b00"/><path d="M540.22 632.3a52.39 52.39 0 0 1-89.435 37.055 52.39 52.39 0 0 1 37.055-89.435c28.926.006 52.374 23.454 52.38 52.38z" fill="#9ddcf9"/><path d="M515.94 632.3a28.07 28.07 0 0 1-47.918 19.858 28.07 28.07 0 0 1 19.858-47.918c15.497 0 28.06 12.563 28.06 28.06z" fill="#fff"/></svg>