<svg xmlns="http://www.w3.org/2000/svg" viewBox="0 0 1954.87 1690.48"><style>.I{mix-blend-mode:screen}.K{mix-blend-mode:multiply}.R{opacity:.4}.S{fill:#a65b3c}.T{fill:#1f4168}.U{fill:#fff}.V{fill:#1b1a2e}.W{fill:#ff9a6c}.X{opacity:.8}.Y{fill:#ffc89f}</style><defs><clipPath id="A" transform="translate(-172.57 -182.96)"><path fill="none" d="M0 0h2300v2100H0z"/></clipPath></defs><g style="isolation:isolate"><g clip-path="url(#A)"><path fill="#d2d9e1" d="M1749.55 1688.98H179.75s-97.3-93.64-14.68-178.29c22.78-23.33 25.35-61.53.4-82.51-.64-.54-1.3-1.07-2-1.62 0 0 56.83 4.31 52.65 67.76 0 0 22-14.2 29.09-30.06a24.59 24.59 0 0 1-2.38-2.11c-17-16.6-18-44.76-2.48-62.9 3.82-4.46 9-10.06 14.71-16.06 20.89-21.8 23.2-56.73 5.37-81.41l-17.11-24.06c-23.39-33.48-17.83-80.73 12.79-106.82 9.1-7.77 19.86-16.12 32.55-25q9.63-6.75 17.69-12.71c38.77-28.66 48.37-85.43 21.31-126.56l-.68-1c-27.74-41.82-20.53-93.44 16.7-124.51 39.75-33.18 25.46-73.15 25.07-74.23.57.91 26 42.36 4.47 103.39a62.69 62.69 0 0 0 14.67 65 255.93 255.93 0 0 1 39.11 49.84c-2.14-3.79-18.73-35.15.23-70.83 20.22-38.06 54.11-38.47 54.11-38.47s-22.74 13.64-24.1 44.72c-2 46.11 23.1 80.7 54.17 102.66 33.25 23.49 80.78 63.85 95.61 138.06 8.26 41.33 2.77 102.94-8.15 129.82 0 0 40.49-26.11 53.49-55.29a42.15 42.15 0 0 1-4.37-3.87c-31.2-30.5-33.07-82.28-4.56-115.62 7-8.21 16.46-18.51 27-29.55 38.41-40.06 42.64-104.29 9.87-149.66l-31.45-44.24c-43-61.53-32.78-148.43 23.5-196.38 16.75-14.28 36.51-29.64 59.84-46l32.53-23.37c71.28-52.7 88.93-157.07 39.19-232.68l-1.26-1.91c-51-76.85-37.74-171.79 30.7-228.89 73.11-61 46.82-134.5 46.1-136.47 1.17 1.87 47.78 78 8.21 190.08-14.81 41.93-3.87 89 27 119.56a470.92 470.92 0 0 1 72.15 92c-2.78-4.78-35.45-63.53.18-130.6 37.18-70 99.49-70.72 99.49-70.72s-41.81 25.1-44.3 82.21c-3.69 84.78 42.46 148.37 99.58 188.74 61.12 43.19 148.5 117.4 175.78 253.83 27.91 139.67-30 241.74-77.45 298.7a388.85 388.85 0 0 1-15.07 17.07c-32.18 34.38-33 90.62-.12 124.24 7.64 7.81 16.72 14 27.5 17.18 15.14 4.53 33.61 3.21 56.09-7.58 0 0 34.41-16.79 40.35-57.83s36.17-91 104-102.62c0 0-26.25 23.74-38.08 72.72q5.47-4.07 11.5-8.3 9.64-6.75 17.7-12.71c38.77-28.66 48.37-85.43 21.32-126.56l-.69-1c-27.74-41.82-20.52-93.44 16.7-124.51 39.76-33.18 25.46-73.15 25.07-74.23.56.91 26 42.36 4.47 103.39a62.69 62.69 0 0 0 14.67 65 255.93 255.93 0 0 1 39.12 49.84c-2.15-3.79-18.73-35.15.23-70.83 20.21-38.06 54.11-38.47 54.11-38.47s-22.75 13.64-24.1 44.72c-2 46.11 23.1 80.7 54.16 102.66 33.25 23.49 80.78 63.85 95.6 138.06 16.85 84.28-23.76 143.38-50.31 171.75-17.51 18.7-18 49.29-.06 67.58 10 10.21 24.53 15.26 45.46 5.22 0 0 18.72-9.13 22-31.46s19.68-49.52 56.59-55.82c0 0-40.32 36.47-16 113.26s46.51 171.91-52.75 217.26z"/><path fill="#e1e6eb" d="M334.95 1688.98h-24.43a41 41 0 0 0-14.55-29.62l-1.62-1.34c0 .02 30.71 2.34 40.6 30.96zm1310.48 0H361.64a21 21 0 0 1-1.76-1.58c-14-13.7-14.86-36.95-2.05-51.92 3.15-3.69 7.38-8.31 12.13-13.27 17.25-18 19.15-46.83 4.44-67.2l-14.12-19.87c-19.32-27.63-14.73-66.64 10.55-88.18 7.52-6.41 16.39-13.31 26.87-20.63l14.6-10.49c32-23.67 39.93-70.54 17.6-104.49l-.56-.85c-22.91-34.46-16.91-77.14 13.78-102.78 32.83-27.4 21-60.4 20.7-61.28.59.94 21.44 35.1 3.69 85.35a51.77 51.77 0 0 0 12.11 53.69 211.5 211.5 0 0 1 32.29 41.14 62.22 62.22 0 0 1 .18-58.46c16.71-31.43 44.69-31.77 44.69-31.77s-18.78 11.27-19.9 36.92c-1.65 38.06 19.07 66.63 44.71 84.74 27.45 19.4 66.69 52.72 78.93 114 6.83 34.12 2.29 85-6.72 107.17 0 0 33.42-21.55 44.16-45.64a34.19 34.19 0 0 1-3.61-3.19c-25.76-25.18-27.3-67.94-3.76-95.46 5.79-6.78 13.59-15.28 22.32-24.39 31.71-33.07 35.2-86.09 8.14-123.56l-26-36.51c-35.52-50.81-27.07-122.53 19.41-162.13 13.82-11.79 30.14-24.47 49.39-37.93l26.86-19.3c58.85-43.5 73.41-129.66 32.35-192.09l-1-1.57c-42.1-63.45-31.15-141.82 25.34-189 60.36-50.37 38.65-111 38.06-112.67 1 1.57 39.44 64.45 6.78 156.92-12.23 34.62-3.19 73.49 22.27 98.71a388.83 388.83 0 0 1 59.37 75.65c-3.25-5.75-28.42-53.35.35-107.5 30.68-57.78 82.13-58.39 82.13-58.39s-34.53 20.71-36.58 67.86c-3 70 35.06 122.49 82.21 155.82 43.56 30.78 103.27 80.64 133.27 166.15a321.76 321.76 0 0 1 11.84 43.4c8.54 42.73 7.35 81.2.47 115.09-13.7 67.56-50 116.92-76.84 145.6-26.58 28.39-27.26 74.81-.11 102.56 15.18 15.51 37.25 23.16 69 7.93 0 0 28.41-13.86 33.32-47.74s29.86-75.16 85.9-84.72c0 0-21.68 19.6-31.44 60 3-2.24 6.17-4.52 9.5-6.85q7.95-5.58 14.6-10.49c32-23.67 39.94-70.54 17.6-104.49l-.57-.85c-22.89-34.51-16.94-77.14 13.79-102.78 32.83-27.4 21-60.4 20.7-61.28.59.94 21.43 35.1 3.69 85.35a51.77 51.77 0 0 0 12.1 53.69 211.13 211.13 0 0 1 32.31 41.14 62.19 62.19 0 0 1 .18-58.46c16.69-31.43 44.67-31.77 44.67-31.77s-18.78 11.27-19.89 36.92c-1.66 38.06 19.06 66.63 44.71 84.74 27.44 19.4 66.69 52.72 78.94 114 13.9 69.58-19.63 118.37-41.55 141.79-14.45 15.43-14.82 40.69 0 55.78 8.25 8.44 20.25 12.6 37.53 4.32 0 0 15.45-7.54 18.12-26s16.25-40.88 46.72-46.08c-.04.08-31.12 28.16-15.12 87.18z"/><path fill="#f0f2f5" d="M552.71 1547.04c12.54-50.18-8.22-74-8.22-74 19 4.11 27.47 21.88 29.14 36.47s11.3 20.55 11.3 20.55c10.77 6.56 18.26 3.27 23.41-3.41 9.21-12 9-31.93 0-44.16-13.71-18.45-34.62-57.12-25.91-112.2 7.64-48.49 32.11-74.86 49.23-90.21 16-14.35 28.92-37 27.88-67.09-.69-20.29-12.41-29.21-12.41-29.21s17.46.26 27.87 25.13a60.86 60.86 0 0 1 0 46.53 167.73 167.73 0 0 1 20.25-32.81c8.64-10.86 11.7-27.59 7.56-42.5-11.22-40.32 2.3-67.57 2.3-67.57s-7.85 26.54 12.91 48.52c19.16 20.3 22.87 54 8.59 81.35l-.35.68c-13.93 26.87-9 64 11 82.7q4.15 3.9 9.11 8.3l5.93 5.43c-6.09-32-19.61-47.52-19.61-47.52 34.95 7.56 50.51 40.23 53.57 67s20.77 37.79 20.77 37.79c19.82 12.06 33.58 6 43-6.27 16.94-22 16.51-58.71-.06-81.18-25.13-34.08-63.58-105.09-47.63-206.34 14-89.15 59-137.64 90.5-165.86 29.4-26.38 53.16-67.93 51.26-123.34-1.28-37.32-22.81-53.72-22.81-53.72s32.09.5 51.23 46.22 0 85.55 0 85.55a307.81 307.81 0 0 1 37.24-60.33c15.88-20 21.51-50.73 13.88-78.13-20.62-74.14 4.24-124.23 4.24-124.23s-14.45 48.86 23.7 89.25c35.23 37.31 42.06 99.34 15.8 149.57l-.65 1.24c-25.61 49.41-16.52 117.61 20.18 152q7.63 7.15 16.75 15.26c12 10.66 22.18 20.7 30.81 30 29 31.34 34.24 88.12 12.09 128.33l-16.19 28.9c-16.87 29.65-14.69 71.62 5.09 97.8 5.44 7.21 10.3 13.94 13.92 19.31 14.67 21.78 13.71 55.62-2.35 75.55a25.23 25.23 0 0 1-2.25 2.53c6.7 19.07 27.54 36.12 27.54 36.12-5.62-17.56-8.45-57.82-4.2-84.83 7.64-48.49 32.11-74.86 49.23-90.21 16-14.35 28.91-37 27.88-67.09-.7-20.29-12.41-29.21-12.41-29.21s17.46.26 27.87 25.13a60.86 60.86 0 0 1 0 46.53 167.73 167.73 0 0 1 20.25-32.81c8.64-10.86 11.7-27.59 7.56-42.5-11.22-40.32 2.3-67.57 2.3-67.57s-7.85 26.54 12.9 48.52c19.17 20.3 22.88 54 8.6 81.35-.12.23-.24.45-.35.68-13.93 26.87-9 64 11 82.7q4.15 3.9 9.11 8.3c6.53 5.8 12.07 11.26 16.76 16.33 15.76 17 18.63 47.93 6.58 69.8l-8.81 15.73c-9.17 16.12-8 39 2.77 53.19 3 3.92 5.6 7.58 7.57 10.5 8 11.85 7.46 30.26-1.28 41.1a13.45 13.45 0 0 1-1.22 1.37c3.64 10.37 15 19.65 15 19.65-2.15-41.46 27.1-44.27 27.1-44.27l-1 1c-12.85 13.72-11.53 38.67.2 53.92 42.54 55.31-7.56 116.5-7.56 116.5H579.91c-51.11-29.51-39.73-91.61-27.2-141.81zm750.65-1278.58 52.54-45.14-6.2-43.88 59.69-21.4-6.2-29.98 51.4-90.79 35.36 36.16-60.54 68.33 12.04 30.18-74.16 28.11 8.3 20.26-72.23 48.15zm265.96 283.99 104.06-37.15 10.39-68.28 104.45 1.92 3.99-47.74L1915.48 296l39.39 73.24-127.41 66.9 5.17 51.32-130.48-.13 3.83 34.57-136.66 30.55zM651.51 268.46l-52.55-45.14 6.2-43.88-59.68-21.4 6.19-29.98-51.4-90.79-35.35 36.16 60.53 68.33-12.03 30.18 74.16 28.11-8.31 20.26 72.24 48.15zM385.54 552.45 281.48 515.3l-10.38-68.28-104.46 1.92-3.98-47.74L39.38 296 0 369.24l127.41 66.9-5.18 51.32 130.48-.13-3.83 34.57 136.66 30.55z"/></g><path fill="#f9a21b" d="M1555.88 1303.31c-92.4 122.06-194.22 165.52-194.22 165.52-42.25 36.55-65-7.13-65-7.13-37.71-25.28-53.09-86.35-54-90.14v-.18l2.8 109.56 50.46 208H648.1l40.61-235.76 6.31-143.38-.07.26-.09.31q-1.68 5.7-3.52 11.24a426.53 426.53 0 0 1-18.91 46.86 415.18 415.18 0 0 1-23.25 43.19c-26 111.47-96.33 57.27-96.33 57.27-31.33-11.62-67.27-39.22-98.28-67.15a944.74 944.74 0 0 1-72.57-73.6 10.47 10.47 0 0 1-2.56-6.66c-1.33-73.52 35.29-109.74 50.74-121.71a10.33 10.33 0 0 1 12.72 0l94.07 73.71 50.81-167.23c7.91-109.3 26.36-173.7 47.55-222.1 11.81-27 21.35-29.5 21.35-29.5 4.09-6.93 65-24.77 116.29-39.05l66.95-18.59 3.93-3.36a43.64 43.64 0 0 1 36.41-9.77 42.93 42.93 0 0 1 11.15 3.68l162.17-2.92 8.36-4.07a51.75 51.75 0 0 1 56.35 7.2l10.83 1.78 14.94 2.55c50.53 8.77 158.37 28.89 165.39 42.21 0 0 39.46 1.84 55.77 239.14 6.59 95.85 19.92 200.87 19.92 200.87 48.27-13.17 95.93-61.78 106.42-73a5 5 0 0 1 5.38-1.26c41.4 15.06 57.15 85.67 59.81 99.13a5 5 0 0 1-.87 4.08z"/><g class="T"><path d="M880.26 1419.42a596.89 596.89 0 0 0 1.58-86.14l-9.24-170.83-4.31-79.74-2.56-47.46-10-184.94 94.23-19.28 134.47-27.5q-3.37 11.46-6.18 23c0 .16-.08.31-.11.46a490.22 490.22 0 0 0-13.71 115.43q0 12.84.68 25.68c9.44 180.33 19.09 424.09 69.36 720.88H855.73z"/><path d="M1078.27 826.58c0 .16-.08.31-.11.46l-.26-.37z"/></g><g class="I X"><path d="M913.32 1111.68v6.23H870.2l-.34-6.23h43.46z" class="U"/></g><g class="K R"><path d="M1240.04 1108.92s-7.08 137.33 2.53 262.45c0 0 5.38-110.71-2.53-262.45z" class="S"/></g><g class="K R"><path d="M703.22 1103.1s-1.08 45.2-8.19 206.69l-.07.26-.09.31q-1.68 5.7-3.52 11.24a426.53 426.53 0 0 1-18.92 46.87c.23-1.43 22.64-169.43 30.79-265.37z" class="S"/></g><g class="K R"><path d="m884.17 1376.41-28.44 312.57 43.66-.18-15.22-312.39z" class="T"/></g><g class="K R"><path d="M413.36 1272.61s-15.64 31.87-28.4 42.55c-7.63 6.39 4.26-64.47 17.73-66.8s10.67 24.25 10.67 24.25z" class="S"/></g><g class="K R"><path d="M1548.18 1274.6s6.57 15.88 6.11 21.13c-.39 4.39-23.3-22.92-23.3-22.92z" class="S"/></g><g class="K R"><path d="M1021.48 962.45a61.34 61.34 0 0 0 6.94 30.7s-30.79-16.3-44.7-5.06c0 0 19.81-33.75 37.76-25.64z" class="T"/></g><g class="K R"><path d="M926.43 957.62s22 13.3 31.06 33c0 0-32.28-14.22-60.75-1.85.03-.02 19.63-10.42 29.69-31.15z" class="T"/></g><g class="K R"><path d="M982.66 1000.46c14.72-27.21-30.63-51.12-35-53.35a120.21 120.21 0 0 0 14.17-19.54 105.29 105.29 0 0 0 10-22.29 80.91 80.91 0 0 0 3.46-24.55 55 55 0 0 0-6.15-24 98.57 98.57 0 0 0-13.77-20.07q-2.62-2.94-5.41-5.68l-94.23 19.28 10 184.94a123 123 0 0 0 15.2-1.37c13.76-2.07 26.85-5.18 40.62-6-7.15 33.94-32.08 42.46-53.26 54.82l4.31 79.74c8.18 13.22 19.84 11.62 19.84 11.62-7.15-9.79-6.09-31.5-6.09-31.5 7.14 53.2 46.84 43.68 46.84 43.68a31 31 0 0 1-6.87-6.61c30.16 13.74 35.34-21.39 35.34-21.39-20 13.27-28.16 5.37-31.35-5.86-3.53-12.48-.17-25.84 8-35.91 24.3-29.92 18.68-57.4 18.68-57.4 46.67-62.41-7.58-107.92-7.58-107.92 23.34 9.69 33.25 49.36 33.25 49.36zm-34.3-164.86c1.56 1.16 3.17 2.29 4.67 3.53a40.13 40.13 0 0 1 13.19 18.85c2.46 7.39 2.68 15.13 2.32 22.64s-2.25 15-4.41 22.34c-2.1 7-4.61 14-7.43 21 7.14-23 12.19-59.34-11.13-90.25l2.79 1.89zm129.54-8.93c.08.13.17.25.26.37 0-.15.07-.3.11-.46z" class="T"/></g><g class="K R"><path d="M1346.21 1289.78s-47.28 24.39-55.21 71.82a131.55 131.55 0 0 1 .25-29.71 28.71 28.71 0 0 1 13.18-20.51c9.79-6.16 25.53-15.34 41.78-21.6z" class="S"/></g><g class="K R"><path d="M627.24 1373.92s-7.22-29.4-36.25-58.54c0 0 12.8 10.4 24.84 21.88a31.63 31.63 0 0 1 9.64 19.61z" class="S"/></g><g class="K R"><path d="M590.99 1315.38s36.25 1.08 59 20.35c0 0-14.15-13.21-27.89-21.58a23.21 23.21 0 0 0-18.53-2.39z" class="S"/></g><g class="K R"><path d="M1275.43 1307.09a215.55 215.55 0 0 1 37.27-22.13 27 27 0 0 1 21.64-.32l11.67 4.87s-42.22-.81-70.58 17.58z" class="S"/></g><g class="V"><path d="m926.43 957.62 3.74 2.23 1.87 1.13 1.77 1.28 3.5 2.62 3.27 2.91a80.41 80.41 0 0 1 11.47 13.17 97.75 97.75 0 0 1 8.67 15.17 87 87 0 0 1 5.71 16.47l-2.89-8.2-1.68-4-1.83-3.93a107.43 107.43 0 0 0-8.79-14.93l-2.54-3.51-2.71-3.37c-.91-1.13-1.94-2.14-2.91-3.21l-1.47-1.6-1.56-1.5-3.15-3-3.38-2.71-1.69-1.36-1.8-1.22zM881.51 996.48l6.81-3.34 6.59-3.74a108.63 108.63 0 0 0 12.37-8.69 82.59 82.59 0 0 0 10.82-10.5l2.37-3a16.44 16.44 0 0 0 1.1-1.53l1-1.58 1.06-1.56c.36-.52.62-1.1.94-1.64l1.84-3.33a56.17 56.17 0 0 1-7.76 13.08 77 77 0 0 1-10.79 10.79 99.58 99.58 0 0 1-12.61 8.57 87.61 87.61 0 0 1-13.74 6.47zm-23.34-100.89.51 6.49.26 3.23.38 3.23.75 6.45 1 6.42c1.4 8.54 3 17.06 5.13 25.45s4.31 16.77 6.87 25l2 6.19 2.07 6.16c1.39 4.11 2.88 8.17 4.44 12.22-3.5-7.94-6.48-16.1-9.21-24.34s-5-16.61-7.11-25-3.66-17-4.9-25.57a214.62 214.62 0 0 1-2.19-25.93zm193.07 123.69 4-33 4.12-33 4.1-33 4-33-3.24 33.14-3.88 33.07-4.35 33-4.75 32.79zm-29.76-56.83a65.88 65.88 0 0 0 .47 8.32c.12 1.38.4 2.74.61 4.1s.54 2.72.93 4.05a64.23 64.23 0 0 0 6.21 15.31 78.2 78.2 0 0 0 9.53 13.55c1.8 2.1 3.72 4.11 5.72 6a74.45 74.45 0 0 0 6.29 5.47 70 70 0 0 1-12.58-11 73.69 73.69 0 0 1-9.83-13.57 61.19 61.19 0 0 1-6.08-15.62 54 54 0 0 1-1.27-16.61zM974.65 1001.2q4.32-6.87 9-13.5c3.13-4.41 6.31-8.8 9.8-13a71.05 71.05 0 0 1 5.52-6 33.25 33.25 0 0 1 3.12-2.67 31.41 31.41 0 0 1 3.5-2.17 21 21 0 0 1 7.83-2.45 18 18 0 0 1 8.06 1 20.62 20.62 0 0 0-8-.35 19.61 19.61 0 0 0-3.85 1 22.21 22.21 0 0 0-3.63 1.62 32.83 32.83 0 0 0-6.42 4.71 69.65 69.65 0 0 0-5.5 5.88q-5.17 6.21-10 12.74l-9.43 13.19zm-.89 470.73.7 27.13.6 27.13 1.03 54.26.8 54.26.32 27.14.21 27.13-.7-27.12-.6-27.13-1.03-54.26-.8-54.27-.32-27.13-.21-27.14z"/><path d="m966.51 1012.6 1.21 14.31 1.14 14.31 1.67 28.68 1.25 28.7c.25 4.78.36 9.56.48 14.35l.38 14.36.37 14.35.26 14.36.47 28.72.81 57.43.31 28.72.2 28.72.06 28.73v28.72l-.12 28.72-.29 28.72-.88 57.43h-.1l.42-114.88v-57.43l-.14-57.44-.64-57.43-.66-28.72-.36-14.35-.46-14.35-2-57.4-1.5-28.67-1.94-28.66zm28.7-11.4 2.48 42 2 42.07 1.67 42.08.71 21.05.63 21q.66 21 1.16 42.1l1 42.1 2.09 84.21 1 42.1.9 42.1 1.52 84.22 1.17 84.22.77 84.23h-.1l-2.78-168.34-3-168.43-1.91-84.21-1.25-42.09q-.63-21.06-1.35-42.1l-2.93-84.17-1.78-42.08-2.07-42.06z"/></g><g class="S"><path d="m705.83 1024.53-.9 35.67-1.13 35.67-2.43 71.33-2.98 71.31-1.57 35.65-1.79 35.64 5.34-142.64 5.46-142.63zm76.93 269.83c-2.61 6.19-5.37 12.31-8.16 18.41s-5.74 12.14-8.72 18.16l-9.11 18-4.68 8.91-4.78 8.87c-6.49 11.76-13.07 23.46-20 34.95-3.43 5.78-7 11.47-10.53 17.17s-7.35 11.21-10.95 16.89l20.8-34.48 19.81-35c6.42-11.74 12.67-23.66 18.76-35.61l9-18c3-6 5.8-12.15 8.56-18.27zm-245.75-20.78a232.64 232.64 0 0 1 28.82 19 238.24 238.24 0 0 1 25.9 22.87q6 6.24 11.44 13a159.93 159.93 0 0 1 10.08 14.06 139.25 139.25 0 0 1 8.23 15.2 113.53 113.53 0 0 1 5.76 16.27 120.58 120.58 0 0 0-6.21-16.06 138.75 138.75 0 0 0-8.43-15c-3.18-4.77-6.52-9.44-10.14-13.89s-7.46-8.72-11.45-12.85a250.54 250.54 0 0 0-25.65-22.95q-6.76-5.34-13.86-10.24c-4.72-3.34-9.54-6.48-14.49-9.41z"/><path d="M590.99 1315.38a106.2 106.2 0 0 1 15.81 1.44 127.2 127.2 0 0 1 15.51 3.59 96.83 96.83 0 0 1 14.72 6.08 61.76 61.76 0 0 1 12.91 9.24 68.65 68.65 0 0 0-6.42-4.63 70.33 70.33 0 0 0-6.84-3.93 104.52 104.52 0 0 0-14.67-5.8 139 139 0 0 0-15.34-3.79q-3.88-.76-7.81-1.29l-7.87-.91zm794.2-40.96a140.14 140.14 0 0 0-16.14 5.14 161.54 161.54 0 0 0-15.49 6.8 158.76 158.76 0 0 0-14.68 8.38 126.72 126.72 0 0 0-13.52 10.1c-2.18 1.79-4.2 3.75-6.25 5.68s-4 4-5.76 6.17l-1.39 1.58-1.32 1.66-2.58 3.34-4.68 7-4.13 7.37-1.76 3.84-.86 1.93-.75 2a104.59 104.59 0 0 0-4.88 16.2l.86-4.15.44-2.08.56-2 1.16-4.09 1.4-4 .72-2 .84-2 1.7-3.9 4-7.49 2.23-3.62 2.41-3.51 2.59-3.39 1.31-1.67 1.4-1.61c1.81-2.19 3.81-4.2 5.77-6.25s4.09-3.94 6.28-5.76a135.17 135.17 0 0 1 28.51-18.41 144.48 144.48 0 0 1 32.01-11.26z"/><path d="M1346.7 1289.51a182.08 182.08 0 0 0-10.47.61c-3.47.3-7 .66-10.41 1.13a174.2 174.2 0 0 0-20.54 3.91 115.31 115.31 0 0 0-19.75 6.75 71.92 71.92 0 0 0-17.65 11.08 61.8 61.8 0 0 1 8.16-6.6 81.08 81.08 0 0 1 9.17-5.18 109.63 109.63 0 0 1 19.82-7 159.7 159.7 0 0 1 20.7-3.7 153.07 153.07 0 0 1 20.97-1zm-63.7-230.34-4.16 7.14-4.62 6.87c-3.18 4.5-6.61 8.83-10.2 13s-7.39 8.2-11.41 12l-3 2.82-3.1 2.73c-1 .92-2.12 1.77-3.2 2.63l-3.24 2.56c4.09-3.69 8.19-7.35 12-11.29 1.95-1.93 3.83-3.93 5.72-5.92.94-1 1.84-2 2.76-3.06s1.83-2 2.71-3.1c3.64-4.12 7-8.44 10.34-12.83a187.95 187.95 0 0 0 9.4-13.55zm229.29 204.31c-3.1 3.33-6.36 6.51-9.61 9.69s-6.63 6.24-10 9.28c-6.77 6.08-13.75 11.93-20.87 17.59s-14.43 11.1-21.93 16.26l-5.64 3.85-5.71 3.74c-1.89 1.26-3.84 2.44-5.78 3.62l-5.83 3.55c7.58-5 15.17-10 22.51-15.39 3.71-2.63 7.35-5.35 11-8.06 1.83-1.35 3.61-2.76 5.41-4.15l5.36-4.2c7.16-5.59 14.12-11.44 21-17.39s13.56-12.05 20.09-18.39zm-266.91 217.47-6.88-29.79-6.79-29.8-13.4-59.64-13.18-59.7-6.51-29.86-6.41-29.89 6.89 29.78 6.78 29.81 13.4 59.64 13.18 59.69 6.51 29.87 6.41 29.89zm-573.77-429.03 3 6.92 3.3 6.8c2.29 4.48 4.72 8.89 7.38 13.17 1.27 2.17 2.67 4.26 4 6.37s2.84 4.16 4.36 6.17l2.25 3 2.37 2.94 1.18 1.48 1.23 1.43 2.47 2.87a108.33 108.33 0 0 1-10.11-11.29 131.86 131.86 0 0 1-8.63-12.48 150.65 150.65 0 0 1-7.22-13.35 115.9 115.9 0 0 1-5.58-14.03z"/><path d="m1245.87 1011.87-3 44.87-1.2 22.46-1 22.46q-1.87 44.94-2.22 89.91l-.22 45 .24 22.48.14 11.24.28 11.24.58 22.48.88 22.47.43 11.24.59 11.22 1.18 22.46-1.43-22.44-.71-11.23-.54-11.23-1-22.47-.67-22.48-.32-11.24-.18-11.25-.33-22.49.06-45q.53-45 2.56-89.93l1.09-22.46 1.3-22.46 3.49-44.85zM664.19 865.82c8.29 9.43 14.58 20.51 19.48 32.06 2.5 5.76 4.65 11.67 6.57 17.65s3.66 12 5.16 18.12a369 369 0 0 1 7 37c1.72 12.43 2.93 24.93 3.4 37.47-.38-6.26-1-12.5-1.71-18.73s-1.5-12.44-2.45-18.63c-1.89-12.38-4.18-24.71-7.24-36.85-1.47-6.09-3.17-12.11-5.06-18.08s-4-11.85-6.41-17.63c-1.16-2.91-2.5-5.74-3.8-8.58l-2.12-4.19c-.69-1.41-1.52-2.73-2.26-4.11a101.85 101.85 0 0 0-10.56-15.5zm639.24-24.11c-2.89 4.11-6 8.09-8.53 12.4-2.8 4.16-5.17 8.58-7.7 12.91-4.76 8.82-9.18 17.83-13.18 27s-7.67 18.53-11.1 28c-1.71 4.71-3.36 9.46-4.91 14.23l-4.5 14.36c2.43-9.74 5.43-19.34 8.69-28.84s7-18.86 10.9-28.11 8.51-18.22 13.43-27a196 196 0 0 1 16.9-24.95zm-204.68 472.96c1.24-16.38 3-32.72 4.84-49q1.42-12.24 3-24.46.78-6.11 1.66-12.21l1.77-12.19q3.62-24.37 7.91-48.64l4.38-24.25 2.31-12.1 2.41-12.08c6.59-32.18 14.28-64.19 24.42-95.48l3.92-11.68 4.21-11.59 2.24-5.75 1.12-2.87a18.05 18.05 0 0 0 1-2.84 10.07 10.07 0 0 0-.41-5.82 9.92 9.92 0 0 0-3.61-4.6 19.13 19.13 0 0 0-2.64-1.47l-2.75-1.39-5.49-2.79-11-5.57-21.94-11.21v-.09l22.12 10.86 11 5.47 5.52 2.73 2.76 1.37a20.53 20.53 0 0 1 2.75 1.49 10.81 10.81 0 0 1 4.42 11.2 19.65 19.65 0 0 1-1 3l-1.09 2.88-2.19 5.75-4.14 11.59c-1.39 3.86-2.6 7.78-3.9 11.67-10 31.26-18 63.16-24.86 95.27l-2.49 12.06-2.38 12.08-4.4 24.24q-4.1 24.3-7.53 48.69l-3.32 24.4-3.16 24.43-2.84 24.47-2.58 24.5z"/><path d="m1116.09 956.6 31.27-17.66 15.66-8.78 3.89-2.19a10.08 10.08 0 0 0 3-3 10 10 0 0 0 1.14-8.25l-11.67-26-11.59-26.07-11.5-26.11-11.39-26.17 11.9 25.94 11.78 26 11.69 26 11.62 26.06v.06a11.32 11.32 0 0 1 .34 4.63 11.14 11.14 0 0 1-1.62 4.35 11 11 0 0 1-3.29 3.28l-3.94 2.2-15.76 8.6-31.53 17.11zm-245.31 371.99-4.91-22.88-5.12-22.84-5.43-22.77-5.56-22.73-2.85-11.35-3-11.32-3-11.32-3.12-11.28-6.52-22.48-3.42-11.19-1.71-5.6-1.8-5.57-7.34-22.22-7.76-22.08-8.23-21.92-1-2.73-1.11-2.71-2.22-5.41-4.45-10.82-2.24-5.4-2.42-5.32-4.87-10.61-2.4-5.33a19.08 19.08 0 0 1-1.11-2.79 11.36 11.36 0 0 1-.39-3 10.85 10.85 0 0 1 1.73-5.75 12 12 0 0 1 2-2.28 15.62 15.62 0 0 1 2.48-1.67l40.5-23.5.05.08q-20 12.11-40.18 24a15.22 15.22 0 0 0-2.35 1.61 10 10 0 0 0-3.37 7.48 10.45 10.45 0 0 0 .38 2.77 20 20 0 0 0 1.08 2.63l2.46 5.31 4.89 10.65 2.44 5.32 2.25 5.41 4.47 10.83c1.46 3.62 3.06 7.18 4.37 10.86l8.19 21.95 7.6 22.15 7.14 22.3 13.3 44.9 3.21 11.25 3.08 11.3 3.06 11.3 2.93 11.33c4 15.1 7.49 30.31 10.93 45.54s6.65 30.5 9.45 45.86z"/><path d="m825.51 993.75-32.65-14.93-16.31-7.51-4.09-1.92a10.65 10.65 0 0 1-3.5-3 10.83 10.83 0 0 1-1.88-8.86l11.48-32.17 11.59-32.12 11.68-32.2 11.8-32-11.26 32.25-11.39 32.19-11.47 32.17-11.58 32.12a10.41 10.41 0 0 0 0 4.27 10.26 10.26 0 0 0 1.75 3.9 10.07 10.07 0 0 0 3.21 2.81l4 1.94 16.23 7.68 32.39 15.38z"/></g><circle cx="1680.17" cy="1485.19" r="12.45" class="T" transform="rotate(-45 1373.047 1602.015)"/><path d="M420.78 1274.24c6.93 6.46 14.09 12.67 21.36 18.73s14.66 12 22.24 17.66c1.87 1.45 3.77 2.86 5.68 4.26l5.71 4.21 11.62 8.16c7.77 5.42 15.77 10.49 23.77 15.57l-6.14-3.58-6.09-3.67-6-3.78-6-3.9c-7.92-5.22-15.6-10.79-23.18-16.48s-14.94-11.69-22.13-17.87q-5.38-4.63-10.64-9.43c-3.43-3.24-6.89-6.48-10.2-9.88z" class="S"/><circle cx="598.04" cy="1495.95" r="12.45" class="T" transform="rotate(-45 290.903 1612.774)"/><g class="I X"><circle cx="981.76" cy="1022.12" r="9.32" class="U"/></g><g class="I X"><circle cx="987.91" cy="1222.89" r="9.32" class="U"/></g><g class="I X"><circle cx="990.53" cy="1426.4" r="9.32" class="U"/></g><g class="I X"><circle cx="1166.97" cy="1812.72" r="9.32" class="U" transform="rotate(-80.78 973.232 1822.684)"/></g><path d="m1160.74 1521.8 22.69-4 22.72-3.79 22.77-3.56 11.39-1.7 11.41-1.6-11.33 2.08-11.35 2-22.73 3.78-22.76 3.56-22.81 3.23zm103.47 36.8-33.63 5.82-16.84 2.79-8.42 1.38-4.21.69-4.24.63a28.39 28.39 0 0 1-8.63-.25 29.88 29.88 0 0 1-15.23-7.72l-1.53-1.54-1.39-1.65c-.46-.56-.83-1.18-1.25-1.76l-.61-.9-.52-1a28 28 0 0 1-3.09-8l-.43-2.11-.32-2.11-.65-4.22-2.48-16.88 3 16.81.72 4.2.36 2.11.45 2.06a27.71 27.71 0 0 0 3.15 7.78 29.08 29.08 0 0 0 12.09 11.34 28.67 28.67 0 0 0 16.29 2.82l33.7-5.26 33.71-5.03zm-473.33-29.46-28.09-4.15-28.05-4.41-28-4.64-14-2.4-14-2.5 14.06 2 14 2.12 28.05 4.42 28 4.64 28.03 4.92zm-121.12 34.08 38.17 5.75 38.14 6 4.76.76 4.75.67a28.72 28.72 0 0 0 25.18-10.64 28.4 28.4 0 0 0 4.7-8.23c1.16-3 1.52-6.17 2.09-9.35l3.33-19-2.81 19.1c-.52 3.15-.83 6.42-2 9.49a29 29 0 0 1-4.68 8.53 29.7 29.7 0 0 1-25.94 11.11l-4.8-.71-4.77-.77-38.09-6.22-38.03-6.49z" class="S"/><path d="M1146.32 1099.77h86.54v11.69h-86.54z" class="U"/><path d="M1497.43 1207.58s12.52 45.1 45 78.24c0 0 47.78-47.17 67.19-88.16 0 0 36.24-47.48 77.38-78.47a46.8 46.8 0 0 0 13.89-17s27-36.6 100.31-62.06c0 0 18.8-4.72 48.87-3.68a8.11 8.11 0 0 0 6.79-13c-5.73-7.65-18.94-15.29-49.26-13.18l30.53-19.5a8 8 0 0 0-2.44-14.55c-9.67-2.41-24.56-1.49-44.79 12.59l-40.24 17.76s-15-16.59-47.82 13.09a167 167 0 0 0-20 3.78c-10.11 2.83-26.16 12.86-42.94-.29a17.89 17.89 0 0 1-6.68-15.3l.33-5.16c.6-9.17 1.7-18.3 3.13-27.39 2.19-13.93 2.65-39.74-23-43.25a11 11 0 0 0-12.55 10.48l-2.17 46.51c-1.47 17-6.7 34.53-10.7 44.7-7.9 20-22.23 39.72-26.67 79.34 0 0-8.56 13-8.87 26.3.01.08-23.76 46.93-55.29 68.2zm-1059.85 0s-12.11 48.11-36.36 86.78c0 0-56.41-55.71-75.83-96.7 0 0-36.23-47.48-77.37-78.47a46.7 46.7 0 0 1-13.89-17s-27-36.6-100.32-62.06c0 0-18.8-4.72-48.87-3.68a8.11 8.11 0 0 1-6.78-13c5.72-7.65 18.93-15.29 49.26-13.18l-30.54-19.5a8 8 0 0 1 2.45-14.55c9.67-2.41 24.55-1.49 44.79 12.59l40.23 17.76s15-16.59 47.83 13.09a167.41 167.41 0 0 1 20 3.78c10.1 2.83 26.15 12.86 42.93-.29a17.93 17.93 0 0 0 6.69-15.3l-.34-5.16c-.6-9.17-1.7-18.3-3.12-27.39-2.2-13.93-2.66-39.74 22.95-43.25a11 11 0 0 1 12.54 10.48l2.18 46.51c1.46 17 6.69 34.53 10.7 44.7 7.89 20 22.22 39.72 26.66 79.34 0 0 8.56 13 8.88 26.3.02.08 23.79 46.93 55.33 68.2z" class="Y"/><path d="M1144.13 743.04s-6.55 34.32-41.39 18.71c0 0 12.27-3.9 18.4-12.54 0 0-25.37 24.66-63.28 1.32l58.92-200.34s79.73 87.58 27.35 192.85z" class="V"/><g class="Y"><path d="M1065.01 773.95V621.77h-187v151.09a32.21 32.21 0 0 1-20.89 30.18l-1.4.53v46.77l63.43 56.12a134.19 134.19 0 0 1 37.58 55.68l13.36 37.66 8.3-24.67a134.22 134.22 0 0 1 39-58.34l4.63-4s43-43.3 62.49-109.17a32.2 32.2 0 0 1-19.5-29.67z"/><rect width="249.14" height="401.32" x="846.92" y="393.82" rx="124.57"/></g><path d="M971.49 795.13a103.81 103.81 0 0 1-32.3-2.45l-7.89-2.13-7.73-2.7c-1.3-.42-2.51-1.06-3.77-1.6l-3.73-1.68-7.27-3.78-7-4.32c-2.36-1.43-4.45-3.17-6.65-4.78s-4.18-3.51-6.27-5.26-3.93-3.78-5.87-5.69a103.46 103.46 0 0 1-18.58-26.49 158.66 158.66 0 0 0 21.09 24l6 5.21 6.26 4.85 6.5 4.5 6.77 4.09 7 3.74 7.19 3.29 7.37 2.9 3.76 1.26 3.77 1.22a158.56 158.56 0 0 0 31.35 5.82zm111.29-68.55-1.9 4.86-1 2.42-1.2 2.32-2.5 4.62-2.87 4.39-1.47 2.19-1.62 2.07-3.28 4.11-3.54 3.88-3.71 3.73-1.91 1.8-2 1.72-4 3.36c-2.78 2.14-5.59 4.21-8.54 6.09l-4.47 2.73c-1.47.87-3 1.71-4.6 2.48a57.35 57.35 0 0 1-9.67 4c2.94-1.85 5.75-3.82 8.52-5.86l8.19-6.18 4-3.22c1.37-1.05 2.59-2.2 3.88-3.3s2.56-2.25 3.83-3.37l1.89-1.7 1.82-1.78a164.1 164.1 0 0 0 13.93-14.83l3.25-3.95 3.05-4.11 1.56-2 1.43-2.14c.91-1.5 1.91-2.87 2.93-4.33z" class="W"/><rect width="52.83" height="87.72" x="819.4" y="577.91" class="Y" rx="23.17"/><path d="M840.73 602.46a9.24 9.24 0 0 0-5.21 4.82 21.57 21.57 0 0 0-2 6.8 34.59 34.59 0 0 0 1 14.13 18.21 18.21 0 0 0 3 6 8 8 0 0 0 2.07 2c.12.06.19.07.18.1s-.09.06-.06.08.34-.26.54-.67a14.1 14.1 0 0 0 1-3.24c.23-1.19.36-2.43.51-3.68l.59-7.65a43.77 43.77 0 0 1 1.51 7.64 32.49 32.49 0 0 1 .19 4 13.26 13.26 0 0 1-.62 4.23 4.91 4.91 0 0 1-1.65 2.41 3.49 3.49 0 0 1-1.86.66 4.39 4.39 0 0 1-1.69-.26 10.41 10.41 0 0 1-3.83-2.82 19.6 19.6 0 0 1-4.12-7.43 29.33 29.33 0 0 1-.2-16.19 19.66 19.66 0 0 1 3.65-7.33 11.25 11.25 0 0 1 3.19-2.64 7.4 7.4 0 0 1 3.81-.96zm4.53 10.93a23.58 23.58 0 0 1-1.25-4.56l-.61-4.08a16.79 16.79 0 0 0-.7-3.26 2.72 2.72 0 0 0-.84-1.21 7.08 7.08 0 0 0-2-1 3.91 3.91 0 0 1 2.45-1.16 4.23 4.23 0 0 1 3 1 7.72 7.72 0 0 1 2.54 5 12.53 12.53 0 0 1-.31 4.9 10.71 10.71 0 0 1-2.28 4.37z" class="W"/><g class="V"><circle cx="1038.22" cy="587.92" r="11.21"/><path d="M1058.64 573.66a54.48 54.48 0 0 0-11.56 0 61.52 61.52 0 0 0-11.27 2.19 64 64 0 0 0-10.71 4.16 87.49 87.49 0 0 0-10 5.83l4.52-3.71a56.61 56.61 0 0 1 5-3.14 49.4 49.4 0 0 1 10.83-4.58 47.73 47.73 0 0 1 11.61-1.89 50.14 50.14 0 0 1 5.88.11 33.91 33.91 0 0 1 5.7 1.03z"/></g><path d="M988.55 550.14c.09 2 .32 3.94.59 5.87a43.23 43.23 0 0 0 1.24 5.66 29.64 29.64 0 0 0 2.12 5.35 33.48 33.48 0 0 0 3.18 4.92 16.26 16.26 0 0 1-4.18-4.33 19.92 19.92 0 0 1-2.55-5.52 23.53 23.53 0 0 1-.4-11.95zm-9.73 0a23.53 23.53 0 0 1-.4 11.95 20.51 20.51 0 0 1-2.55 5.52 16.45 16.45 0 0 1-4.19 4.33 31.92 31.92 0 0 0 3.18-4.92 29.64 29.64 0 0 0 2.12-5.35 44.94 44.94 0 0 0 1.25-5.66l.59-5.87z" class="W"/><g class="V"><circle cx="920.54" cy="587.92" r="11.21"/><path d="M992.74 616.54c1 4.76 1.8 9.55 2.6 14.33l2.2 14.38a31.2 31.2 0 0 1 .49 7.39 19.67 19.67 0 0 1-1.94 7.21 12.93 12.93 0 0 1-5 5.56l-6.46 3.37c2-1.38 4.06-2.66 6.08-4a12.1 12.1 0 0 0 4.29-5.41 20.29 20.29 0 0 0 1.56-6.83 30.54 30.54 0 0 0-.55-7.08l-1.86-14.43-1.41-14.49zm53.16-80.76a16.2 16.2 0 0 1 .55 7.51 24 24 0 0 1-.83 3.62c-.18.59-.42 1.16-.65 1.73a13.08 13.08 0 0 1-.76 1.71 25.49 25.49 0 0 1-10.45 10.69 20.87 20.87 0 0 1-3.46 1.6l-1.78.67c-.6.19-1.22.31-1.84.44l-3.69.62h-3.71c-.61 0-1.23-.08-1.83-.15s-1.2-.22-1.79-.38l-3.5-1a20.73 20.73 0 0 1-3.28-1.68 20.22 20.22 0 0 1-3-2.24 48 48 0 0 1 6.18-3.44l2.77-1.43c.44-.23.89-.4 1.33-.59s.83-.5 1.25-.71a34.05 34.05 0 0 1 2.45-1.18c.81-.35 1.52-.87 2.29-1.23l1.13-.54 1.07-.63 1.09-.57a5 5 0 0 0 .99-.56c2.88-1.52 5.61-3.25 8.73-5.19s6.42-4.23 10.74-7.07zm-145.72 37.88a33.91 33.91 0 0 1 5.76-1 50 50 0 0 1 5.87-.11 47.65 47.65 0 0 1 11.61 1.89 49.2 49.2 0 0 1 10.83 4.58 56.61 56.61 0 0 1 5 3.14c1.58 1.16 3.06 2.45 4.53 3.71a89.24 89.24 0 0 0-10-5.83 64 64 0 0 0-10.71-4.16 61.68 61.68 0 0 0-11.27-2.19 54.48 54.48 0 0 0-11.62-.03zm12.73-37.88 10.72 7c3.17 1.92 5.85 3.67 8.72 5.19a5.54 5.54 0 0 0 1.07.58l1.09.57c.36.21.72.4 1.07.63s.77.34 1.14.54c.76.36 1.51.8 2.28 1.23s1.63.74 2.46 1.18c.41.21.83.47 1.25.71s.88.36 1.33.59c.9.42 1.81.91 2.76 1.43a48.11 48.11 0 0 1 6.19 3.44 20.74 20.74 0 0 1-3 2.24 20.4 20.4 0 0 1-3.29 1.68 36 36 0 0 1-3.49 1c-.59.16-1.19.26-1.79.38s-1.22.12-1.83.15c-1.23.06-2.46.06-3.71 0s-2.47-.36-3.7-.62c-.61-.13-1.23-.25-1.83-.44l-1.79-.67a21.65 21.65 0 0 1-3.46-1.6 25.46 25.46 0 0 1-10.44-10.73 13.08 13.08 0 0 1-.76-1.71c-.24-.57-.47-1.14-.66-1.73a26.7 26.7 0 0 1-.83-3.62 16.47 16.47 0 0 1 .5-7.42z"/></g><rect width="52.83" height="87.72" x="1070.75" y="577.91" class="Y" rx="23.17"/><path d="M1094.75 599.11a21.67 21.67 0 0 1 7.21.39 22.42 22.42 0 0 1 6.77 2.91 22.85 22.85 0 0 1 10.46 19l-.21 7.15c-.22 4.73-.55 9.46-1.17 14.19-.63-4.73-1-9.46-1.17-14.19-.16-2.35-.13-4.78-.29-7.06a21.44 21.44 0 0 0-1.28-6.49 20.83 20.83 0 0 0-3.07-5.87 22.88 22.88 0 0 0-4.61-4.82 26 26 0 0 0-5.87-3.42 30.63 30.63 0 0 0-6.77-1.79zm9.14 50.46a9.87 9.87 0 0 1-3.38-2.72 13.22 13.22 0 0 1-2.14-3.76 12.88 12.88 0 0 1-.82-4.25 9.72 9.72 0 0 1 .8-4.27c.63 1.36 1.06 2.62 1.51 3.86l1.32 3.62 1.35 3.61 1.36 3.91z" class="W"/><path d="M1142.52 463.04c-61.92-152.88-175.7-108.82-175.7-108.82-72-23-121 11.34-156 60.48-3.73 5-7.21 10-10.8 15l-10.84 14.89-22 29.55c-3.65 5-7.24 10-10.67 15.18l-5.08 7.88-4.74 8.12-4.32 8.39c-1.42 2.81-2.52 5.78-3.71 8.69s-2 6-2.95 9a42.44 42.44 0 0 0-1.19 4.56l-1.07 4.57c-.82 3-1.12 6.15-1.69 9.2l-.77 4.6c-.21 1.54-.36 3.08-.54 4.62-.29 3.09-.86 6.14-1.08 9.23s-.5 6.16-.81 9.24c-.65 6.16-1 12.38-1.11 18.64a101.17 101.17 0 0 0 1.27 18.84 75.18 75.18 0 0 0 5.4 18.29c.66 1.46 1.29 2.93 2.06 4.34s1.47 2.84 2.3 4.21a74.16 74.16 0 0 0 5.47 7.91 62 62 0 0 0 6.52 7 56.74 56.74 0 0 0 7.46 6 49 49 0 0 0 17 7.6c-2.32 2.1-16.44 15.44-34.07 44.18-19.3 31.48 14.69 46.58 14.69 46.58-17.63-30.63 16.78-81.41 16.78-81.41-47.84 101.55 35.81 112.37 35.81 112.37-34.7 30-30.32 65-30.32 65-38.32 76.66 46.79 61.56 54 60.16a52.38 52.38 0 0 0-4.92 9.67 68.16 68.16 0 0 0-3.3 10.69 66.19 66.19 0 0 0-1.55 11.16 45.54 45.54 0 0 0 .69 11.35c1.45 7.53 4.8 14.51 8.71 20.8a55.84 55.84 0 0 0 6.81 8.88 40.57 40.57 0 0 0 9 7.07 39.44 39.44 0 0 0 10.76 4.24 61.07 61.07 0 0 0 11.35 1.42 120 120 0 0 0 22.21-1.35c13.77-2.08 26.85-5.19 40.63-6-10.19 48.36-56.45 45.11-76.57 74.9s8.54 54.35 8.54 54.35c-2.91-9.8.53-21.18.53-21.18-2.65 20.38 11.12 25.41 11.12 25.41a49.1 49.1 0 0 1 .79-18.79c5.29 34.41 26.47 31.5 26.47 31.5-7.15-9.8-6.09-31.5-6.09-31.5 7.15 53.2 46.85 43.67 46.85 43.67a31.34 31.34 0 0 1-6.88-6.62c30.17 13.77 35.35-21.38 35.35-21.38-20 13.27-28.16 5.37-31.35-5.85-3.54-12.48-.18-25.84 8-35.91 24.29-29.92 18.68-57.4 18.68-57.4 46.67-62.42-7.58-107.92-7.58-107.92 23.33 9.63 33.25 49.29 33.25 49.29 14.71-27.21-30.63-51.11-35-53.34a121.25 121.25 0 0 0 14.17-19.54 104.76 104.76 0 0 0 10-22.29 76.36 76.36 0 0 0 2.67-12.1 77.2 77.2 0 0 0 .79-12.45 55 55 0 0 0-6.14-23.95 98.69 98.69 0 0 0-13.77-20.07 121 121 0 0 0-17.84-16.38 218.33 218.33 0 0 0-20.16-13 193.69 193.69 0 0 0-19.07-9.67c-44.81-28.2-53.9-70.06-53.29-101.26.39-19.36 6-38.16 15.26-55.17 17-31.22 16-64.34 16-64.34 10.06-10.52 22.33-30.67 37.52-89.24 12.25-47.2 36.22-51.89 41.93-51.47h.28a87.33 87.33 0 0 1 27.6 10.93q3.17 1.95 6.13 4.15a73.11 73.11 0 0 1 5.76 4.61 118.6 118.6 0 0 1 10.41 10.5 116.63 116.63 0 0 1 9.18 11.86 83.21 83.21 0 0 1 7.11 13.43c.52 1.16.93 2.37 1.35 3.57s.85 2.4 1.22 3.62c.65 2.47 1.42 4.89 1.94 7.4 1.17 5 2 10 2.8 15.12s1.4 10.16 2.13 15.23l2.23 15.22 2.41 15.3c.88 5.12 1.93 10.22 3.31 15.32a81.36 81.36 0 0 0 5.61 15.06 50.71 50.71 0 0 0 4.27 7.07 39.26 39.26 0 0 0 5.65 6.17 35 35 0 0 0 14.55 7.53 50.3 50.3 0 0 0 15.34 1.37l.4.08c37 69.63 55.67 145.71 42.33 173.48-11.81 24.58-49.82 33.45-49.82 33.45 12.48 18.54 35.66-4.1 35.66-4.1-5.71 13.37-25.35 19.43-25.35 19.43 69.16 13.88 105.54-193.24 43.63-346.12zm-393.88 183.1a73 73 0 0 1-4.58-7.58c-.74-1.27-1.39-2.6-2-3.94l-1.78-4.06a129.25 129.25 0 0 1-5.41-17c-6.16-23.16-4.95-49 2.59-72a158.81 158.81 0 0 1 15.39-32.69c6.32-10.29 13.78-20 20.86-30.05l3-4.24c-11.61 24.57-21 48.87-29.11 69-29.55 73.62 17 117.41 26.22 125.1a71 71 0 0 1-25.18-22.54zm215.07 160.13a40.16 40.16 0 0 1 13.19 18.86c2.45 7.39 2.68 15.13 2.31 22.64s-2.24 15-4.4 22.34c-2.11 7-4.61 14-7.43 21 7.14-23 12.19-59.35-11.14-90.25l2.79 1.9c1.56 1.14 3.18 2.28 4.68 3.51zm-95.42 189a71.84 71.84 0 0 1-9.19-.37 42.61 42.61 0 0 1-10-2.09 28.52 28.52 0 0 1-15.64-13.21 33.86 33.86 0 0 1-3.59-9.91 64.09 64.09 0 0 1-1.05-10.39c0-1.79-.08-3.58-.09-5.38 1.8 20.24 11.42 39.47 39.56 41.33zm213.27-413.43a39.9 39.9 0 0 1-6.36-3.51 34 34 0 0 1-5.34-4.65c-6.37-7-9.45-16.44-11.88-26.09s-4.4-19.75-6.49-29.81c-1-5-2.07-10.09-3.29-15.12s-2.61-10-4-15l-4.34-14.88-2.24-7.44c-.87-2.44-1.59-4.93-2.49-7.37-.46-1.21-.86-2.45-1.3-3.68s-1-2.41-1.42-3.63c-.87-2.47-2-4.82-3-7.26a85.32 85.32 0 0 0-7.92-13.75 61.09 61.09 0 0 0-6.56-7.64c20.87 14.81 40.49 40.92 41.19 86.53.81 53.16 22.37 70.56 33.49 76a56.89 56.89 0 0 1-8.05-2.72z" class="V"/><g fill="#1f4068"><path d="M1096.06 586.89c5.06 8.83 9.69 17.91 14.13 27.08s8.4 18.58 12.16 28.06a366.35 366.35 0 0 1 17.79 58.54 198.55 198.55 0 0 1 3.81 30.48 101.13 101.13 0 0 1-.58 15.45c-.67 5.11-1.77 10.32-4.29 15l-2 3.39c-.67 1.12-1.55 2.09-2.32 3.15l-1.19 1.54-1.34 1.41c-.92.92-1.74 1.93-2.73 2.77a72.53 72.53 0 0 1-12.46 9.07 108.19 108.19 0 0 1-28.49 11 113.63 113.63 0 0 0 27.73-12.26 71.61 71.61 0 0 0 11.92-9.18c.93-.84 1.69-1.83 2.55-2.74l1.25-1.38 1.1-1.51c.7-1 1.51-2 2.12-3.05l1.78-3.25a11.91 11.91 0 0 0 .76-1.67l.68-1.71c.33-1.19.78-2.33 1-3.55a56.07 56.07 0 0 0 1.31-7.34 97.67 97.67 0 0 0 .43-15 198.93 198.93 0 0 0-4-30c-2-9.92-4.49-19.75-7.36-29.47s-6.21-19.31-9.65-28.86-7.28-18.95-11.34-28.26-8.3-18.56-12.77-27.71zm-208.97-42.03a133.71 133.71 0 0 1-10.38 53.34 233.35 233.35 0 0 1-12.51 24.26l-13.83 23.44c-9.21 15.6-19.39 30.74-25.44 47.57a81.42 81.42 0 0 0-5 26.09 84.58 84.58 0 0 0 4 26.54l-.29.1a73.92 73.92 0 0 1-6-26.63 76 76 0 0 1 4.4-27.17c3-8.72 7.45-16.79 12.12-24.6s9.83-15.3 14.94-22.78a265 265 0 0 0 14.37-23 192.62 192.62 0 0 0 11-24.71 199.58 199.58 0 0 0 8-25.74 228.67 228.67 0 0 0 4.41-26.7z"/><path d="M907.85 508.19a154.24 154.24 0 0 1-27.64 47.66c-6 7-12.58 13.49-19.13 19.94l-19.65 19.36-19.48 19.44q-9.63 9.78-18.54 20.18a250.53 250.53 0 0 0-31.08 45l-.27-.12a180 180 0 0 1 28.91-47 269.55 269.55 0 0 1 19-20.11c6.59-6.43 13.45-12.56 20.34-18.63s13.68-12.25 20.05-18.85a254.25 254.25 0 0 0 17.89-20.83 269.47 269.47 0 0 0 15.95-22.19 253 253 0 0 0 13.38-24z"/><path d="M783.15 537.71a146.45 146.45 0 0 0-4 25.6 120.32 120.32 0 0 0 1.32 25.66 123.12 123.12 0 0 0 6.67 24.83c1.55 4 3.26 8 5.21 11.83a97.14 97.14 0 0 0 6.46 11.28 86.73 86.73 0 0 1-13.83-22.22 105.83 105.83 0 0 1-4.55-12.37 110.87 110.87 0 0 1-2.91-12.87 101 101 0 0 1-.69-26.33 99 99 0 0 1 6.32-25.41zm-5.31 319.23 1.58 6.18 1.91 6 1.1 2.92 1.28 2.83a27.41 27.41 0 0 0 1.37 2.77 29.52 29.52 0 0 0 1.5 2.7l1.6 2.65 1.8 2.52c1.21 1.66 2.53 3.25 3.91 4.81a61.6 61.6 0 0 0 9.27 8.5 33.37 33.37 0 0 1-10.93-6.85 42.67 42.67 0 0 1-8.23-10.1 44.47 44.47 0 0 1-4.88-12.07 43.61 43.61 0 0 1-1.12-6.39 60.25 60.25 0 0 1-.16-6.47zm67.79 61.96a81.65 81.65 0 0 0 9.88 20.54 98.74 98.74 0 0 0 14.77 17.18 140.35 140.35 0 0 0 17.88 14.1 179.13 179.13 0 0 0 19.83 11.57 100.11 100.11 0 0 1-21.08-9.59 113.15 113.15 0 0 1-9.71-6.42 116.13 116.13 0 0 1-9-7.48 82 82 0 0 1-14.69-18.13 60.76 60.76 0 0 1-7.88-21.77zm30.12-440.41a242.16 242.16 0 0 0-22.1 28.42l-2.42 3.79-2.36 3.81-4.37 7.83a167.2 167.2 0 0 0-7.61 16.21 157.9 157.9 0 0 0-5.92 16.89 164.17 164.17 0 0 0-4.1 17.44 156.12 156.12 0 0 0-2.13 17.82 109.32 109.32 0 0 0 .19 18c-2.3-11.87-2-24.18-.37-36.19a147.1 147.1 0 0 1 9.55-35.1 159 159 0 0 1 17.62-31.81 170.79 170.79 0 0 1 24.02-27.11zm82.73-89.66a70.21 70.21 0 0 0-18.39.29 57.61 57.61 0 0 0-17.16 5.7 59.79 59.79 0 0 0-7.78 4.7 79.3 79.3 0 0 0-7.17 5.67 94 94 0 0 0-12.49 13.61 57.46 57.46 0 0 1 10.88-15.29 58.85 58.85 0 0 1 15.19-11.35 55.73 55.73 0 0 1 8.87-3.57 50.79 50.79 0 0 1 9.37-1.78 48.55 48.55 0 0 1 18.68 2.02zM1079 459.64a100 100 0 0 0-8.4-21.32 77.62 77.62 0 0 0-13.73-18 86 86 0 0 0-18.28-13.41 98.94 98.94 0 0 0-21.23-8.64 69.23 69.23 0 0 1 22.3 6.56 69.76 69.76 0 0 1 27 22.27 67.41 67.41 0 0 1 12.34 32.5zm48.59 113.3a36 36 0 0 1-17.69 1 42.66 42.66 0 0 1-16.44-7.22 59.85 59.85 0 0 1-12.74-12.53 61.91 61.91 0 0 1-8.67-15.42 114.73 114.73 0 0 0 10.48 13.93 75.76 75.76 0 0 0 12.66 11.58 45.76 45.76 0 0 0 32.4 8.7z"/><path d="m1127.59 572.94-1.58 2.14-.83 1.05-.93.95-1.93 1.87-2.14 1.62a15.84 15.84 0 0 1-2.24 1.49l-2.35 1.33-2.45 1.12c-.82.38-1.68.63-2.52.95a42.49 42.49 0 0 1-10.49 2.12 34.19 34.19 0 0 1-10.58-.76c3.51-.39 6.91-.9 10.27-1.56a77.43 77.43 0 0 0 9.84-2.63 55.29 55.29 0 0 0 9.28-4 69.68 69.68 0 0 0 8.65-5.69zm-261.73 45.52a338.68 338.68 0 0 0-10.68 45.34l-.84 5.76-.78 5.75c-.38 3.86-.88 7.7-1.1 11.57-.66 7.72-.88 15.46-.83 23.2s.45 15.48 1.18 23.19a269.94 269.94 0 0 0 3.19 23c1.39 7.62 3.19 15.17 5.34 22.63a165.07 165.07 0 0 0 7.8 21.95c-7.32-13.78-12.08-28.86-15.43-44.12a230.39 230.39 0 0 1-5.07-46.63 242.17 242.17 0 0 1 4.25-46.7 251.2 251.2 0 0 1 12.97-44.94zm66.37 376.58a37.33 37.33 0 0 1 17.39 1.33 28.88 28.88 0 0 1 7.89 4.31 27.31 27.31 0 0 1 6.05 6.73 38.09 38.09 0 0 1 5.46 16.84 51.07 51.07 0 0 1-1.29 17.36 84 84 0 0 0-1-17 42.08 42.08 0 0 0-5.66-15.54 27.27 27.27 0 0 0-12.27-10.48 51.13 51.13 0 0 0-16.57-3.55zM852.6 824.15c-6.63 8.65-12.82 17.64-17.42 27.39a81 81 0 0 0-5.45 15.11 67.91 67.91 0 0 0-1.34 7.86 58.81 58.81 0 0 0-.23 8 50 50 0 0 0 11.57 29.42 75 75 0 0 0 11.62 11.33 107.41 107.41 0 0 0 13.48 9.08 235.56 235.56 0 0 0 29.4 13.9l15.23 6a156 156 0 0 1 14.86 7.16 119.93 119.93 0 0 1 26.59 19.5 80.74 80.74 0 0 1 10.56 12.7 58.53 58.53 0 0 1 4.11 7.17 36 36 0 0 1 2.83 7.73l-.29.07a52.2 52.2 0 0 0-7.9-14.08 87.33 87.33 0 0 0-10.94-11.88 131 131 0 0 0-26.5-18.4q-7.11-3.87-14.55-7.13c-4.92-2.19-10-4.14-15.07-6.29A191.38 191.38 0 0 1 864 933.67a139.77 139.77 0 0 1-13.3-9.64 90.788 90.788 0 0 1-6.11-5.5 76 76 0 0 1-5.62-6 60.76 60.76 0 0 1-9-13.82 47.64 47.64 0 0 1-4.3-16.07 51.85 51.85 0 0 1 1.5-16.61 74.31 74.31 0 0 1 5.94-15.5 120.31 120.31 0 0 1 19.27-26.57zm53.65 101.13 5.33 2.11 2.66 1.09a24.78 24.78 0 0 1 2.61 1.22 99.72 99.72 0 0 1 27.8 20.44 92 92 0 0 1 13.7 18.61 72.51 72.51 0 0 1 8.27 21.43 107.72 107.72 0 0 0-10.27-20.23q-3.06-4.76-6.52-9.22l-3.54-4.38-3.81-4.15c-1.21-1.45-2.64-2.68-4-4s-2.67-2.65-4.15-3.82l-4.29-3.67-4.52-3.39c-3-2.35-6.25-4.23-9.41-6.33-1.54-1.12-3.28-1.89-4.92-2.86l-4.94-2.85zm-3.5 128.67c-4 3.68-7.92 7.23-11 11.51a69.65 69.65 0 0 0-4.48 6.47 73 73 0 0 0-3.56 7 78.21 78.21 0 0 0-4.94 14.95 96.72 96.72 0 0 0-2.11 15.84 51.78 51.78 0 0 1-.19-16.25 58 58 0 0 1 4.51-15.76 66.72 66.72 0 0 1 3.89-7.27l2.43-3.34c.43-.54.78-1.13 1.26-1.63l1.4-1.51a47.65 47.65 0 0 1 12.79-10.01z"/><path d="M895.07 1060.1a68.3 68.3 0 0 0-10.15 8.7 81.88 81.88 0 0 0-8.09 10.45 121.32 121.32 0 0 0-6.55 11.57c-2 4-3.82 8.08-5.55 12.28a55.19 55.19 0 0 1 3.41-13.22 66.9 66.9 0 0 1 6.19-12.27 54.07 54.07 0 0 1 9-10.48 37.21 37.21 0 0 1 11.74-7.03zm47-63.31a28.36 28.36 0 0 1 8.44 7.13 27.53 27.53 0 0 1 4.92 10.12c1.94 7.38 1 15.19-1.28 22.28a61.25 61.25 0 0 1-10.85 19.42 54.69 54.69 0 0 1-16.91 14.06 73.42 73.42 0 0 0 15.06-15.49 69.52 69.52 0 0 0 9.85-18.92c2.24-6.71 3.2-13.92 1.87-20.83a28.39 28.39 0 0 0-3.88-9.78 33.54 33.54 0 0 0-7.22-7.99zM860.9 730.57a97.35 97.35 0 0 0 12 21.85 239 239 0 0 0 15.89 19.3c5.54 6.28 11.18 12.51 17 18.59l17.44 18.25a135.15 135.15 0 0 1 15.49 20.09 95.58 95.58 0 0 1 10.66 23.18 84.91 84.91 0 0 1 3.48 25.26 105.71 105.71 0 0 1-3.48 25.09l-.3-.07a136.94 136.94 0 0 0 1.42-25 94.53 94.53 0 0 0-4.18-24.39 106.57 106.57 0 0 0-10-22.64A178.28 178.28 0 0 0 922 809.6a220.78 220.78 0 0 0-16.9-18.64l-18.11-17.58a134.61 134.61 0 0 1-16-19.68 73.66 73.66 0 0 1-10.39-23.08zm237.25-221.53q3.69 4.74 7.32 9.55c2.41 3.21 4.93 6.35 7.09 9.74l6.65 10.06 1.66 2.52 1.51 2.61 3 5.22 3 5.22 1.5 2.62c.48.89.92 1.79 1.37 2.69l5.44 10.78 1.35 2.7 1.21 2.76 2.43 5.53 2.42 5.53c.84 1.83 1.49 3.74 2.23 5.61a315 315 0 0 1 14.31 46.08c1.85 7.82 3.27 15.75 4.5 23.69a217 217 0 0 1 2.12 24 322.55 322.55 0 0 0-8.89-47.13c-2-7.74-4.27-15.4-6.7-23l-3.85-11.35c-1.35-3.75-2.86-7.45-4.27-11.18a374.94 374.94 0 0 0-20.22-43.4l-2.85-5.28-1.42-2.64-1.56-2.56-6.2-10.27c-2-3.5-4.29-6.75-6.52-10.08l-6.63-10.02z"/></g><circle cx="1145.81" cy="889.96" r="27.25" class="W" transform="rotate(-76.72 943.9 907.504)"/><path fill="#e3405a" d="M997.43 719.65a26 26 0 0 1-4.21 6.45 27.94 27.94 0 0 1-6 5 27 27 0 0 1-29.65-1.08 28 28 0 0 1-5.6-5.38 26.15 26.15 0 0 1-3.72-6.74 29 29 0 0 0 10 11.17 27.73 27.73 0 0 0 28.42 1 29.05 29.05 0 0 0 10.76-10.42z"/><g class="W"><path d="M995.56 471.36a35.91 35.91 0 0 1 6.84-1.25 9.34 9.34 0 0 1 10 9.95 35.83 35.83 0 0 1-1.26 6.83 38.26 38.26 0 0 1-1.27-6.78 8.77 8.77 0 0 0-7.48-7.48 38.43 38.43 0 0 1-6.83-1.27zm21.55 15.53a35.83 35.83 0 0 1-1.26-6.83 9.36 9.36 0 0 1 9.95-10 35.93 35.93 0 0 1 6.84 1.26 39.33 39.33 0 0 1-6.79 1.28 8.75 8.75 0 0 0-7.47 7.47 40.16 40.16 0 0 1-1.27 6.82zm-6.02-37.31a35.83 35.83 0 0 1 1.26 6.83 9.36 9.36 0 0 1-10 10 35.93 35.93 0 0 1-6.84-1.26 39.4 39.4 0 0 1 6.78-1.28 8.74 8.74 0 0 0 7.48-7.47 40 40 0 0 1 1.32-6.82zM1032.64 465.11a35.91 35.91 0 0 1-6.84 1.25 9.34 9.34 0 0 1-9.95-10 35.07 35.07 0 0 1 1.26-6.83 38.1 38.1 0 0 1 1.27 6.78 8.77 8.77 0 0 0 7.47 7.48 38.37 38.37 0 0 1 6.79 1.32zm580.42 569.05a15.62 15.62 0 0 0-5 3.37 16.53 16.53 0 0 0-3.28 5 22 22 0 0 0-1.55 5.77 35.46 35.46 0 0 0-.32 6c.14 8.1 2.43 16.1 5.7 23.51q2.43 5.58 5.39 10.9c1 1.77 2.05 3.5 3.14 5.21a36.63 36.63 0 0 1 2.87 5.48 33.09 33.09 0 0 1 .63 24.11h-.1a35.71 35.71 0 0 0-1.48-23.68 38.61 38.61 0 0 0-2.81-5.32c-1.07-1.74-2.11-3.5-3.08-5.31a94.93 94.93 0 0 1-5.11-11.14 116 116 0 0 1-3.79-11.63 63.13 63.13 0 0 1-2.17-12.07 25.79 25.79 0 0 1 2-12.13 15.55 15.55 0 0 1 3.61-5 14.18 14.18 0 0 1 5.3-3.08zm44.52 64.96a115.13 115.13 0 0 1-14.25-15 100.7 100.7 0 0 1-11.28-17.41 73.08 73.08 0 0 1-4-9.59q-1.69-4.9-3.2-9.86l-1.44-5-.72-2.48a9.9 9.9 0 0 0-.87-2.36 7.24 7.24 0 0 0-3.73-3.2 7.74 7.74 0 0 0-5-.09 7.53 7.53 0 0 1 5.13-.2 7.44 7.44 0 0 1 4.11 3.21 11.69 11.69 0 0 1 1 2.45l.79 2.46 1.57 4.93c1 3.29 2.14 6.56 3.3 9.8a86.54 86.54 0 0 0 4 9.48 110 110 0 0 0 11 17.42 137.44 137.44 0 0 0 13.59 15.44zm-15.15 57.7a82.14 82.14 0 0 1 6.53-13.15 88.5 88.5 0 0 1 8.67-11.88 28.46 28.46 0 0 0 6.22-12.83 20.67 20.67 0 0 0-1.93-14.09 18 18 0 0 1 2.69 6.82 22.69 22.69 0 0 1 0 7.4 28.39 28.39 0 0 1-6.22 13.35 98.49 98.49 0 0 0-8.76 11.65l-3.79 6.25a152.91 152.91 0 0 0-3.41 6.48z"/><path d="m1621.24 1104.55-7.69 4.41-7.34 5a110.6 110.6 0 0 0-13.45 11.46 86.62 86.62 0 0 0-11.26 13.57 69.94 69.94 0 0 0-4.5 7.6 76.15 76.15 0 0 0-3.6 8.1 64.82 64.82 0 0 1 7.45-16.12 70.31 70.31 0 0 1 5.23-7.23 85.38 85.38 0 0 1 6-6.63 101.41 101.41 0 0 1 13.71-11.37 91.39 91.39 0 0 1 15.45-8.79zm-6.47-13.58a66.38 66.38 0 0 1-9.17 8.56 75.57 75.57 0 0 1-10.56 6.83 81.21 81.21 0 0 1-11.55 5 57.55 57.55 0 0 1-3 .94l-3 .85-6.13 1.31 3-.86 3-.92a70.28 70.28 0 0 0 3-1l2.93-1.07a91.67 91.67 0 0 0 11.34-5.12 85.79 85.79 0 0 0 10.57-6.56 98.62 98.62 0 0 0 9.57-7.96zm22.66-44.6a38.49 38.49 0 0 1-1.76 9.7l-1.68 4.65a38.69 38.69 0 0 1-2.18 4.43l1.45-4.7 1.45-4.67 1.39-4.68 1.33-4.73zm60.13 60.67a131.58 131.58 0 0 1 1.4-30.89 73.58 73.58 0 0 1 34.28-49.74c2.21-1.35 4.53-2.53 6.83-3.68l6.9-3.49a9.92 9.92 0 0 0 3.14-2.09 8.36 8.36 0 0 0 1.88-3.25 8 8 0 0 0-1.35-7.25 8.22 8.22 0 0 1 1.72 3.44 8.34 8.34 0 0 1-.12 3.88 8.46 8.46 0 0 1-1.86 3.43 10 10 0 0 1-3.19 2.27l-6.83 3.62-6.72 3.78a75.3 75.3 0 0 0-33.93 49.22 149.18 149.18 0 0 0-2.15 30.75zm5.29-87.26a134.37 134.37 0 0 0-14 16.31 91.65 91.65 0 0 0-6 9 90.33 90.33 0 0 0-4.75 9.68c-1.4 3.31-2.7 6.66-4 10s-2.62 6.72-4.18 10a38.33 38.33 0 0 1-5.77 9.23 20.2 20.2 0 0 1-4.15 3.57 19.47 19.47 0 0 1-5 2.18v-.1a20.71 20.71 0 0 0 4.72-2.5 21.12 21.12 0 0 0 3.84-3.66 30.08 30.08 0 0 0 3-4.4c.89-1.54 1.69-3.14 2.45-4.76 3-6.52 5.46-13.3 8.64-19.78a159.47 159.47 0 0 1 10.54-18.9 79.32 79.32 0 0 1 14.64-15.91z"/><path d="M1710.12 1047.83a27.85 27.85 0 0 1 2.53-2.45l1.33-1.14 1.39-1.08 5.77-4 6-3.57a70.63 70.63 0 0 1 6.28-3.13c4.24-2 8.59-3.7 12.89-5.52l6.51-2.61 6.56-2.48a113 113 0 0 1 11.61-4.54c3.93-1.34 7.93-2.46 12-3.43a143.35 143.35 0 0 1 12.23-2.37c2-.32 4.11-.53 6.17-.76s4.14-.3 6.2-.46v.1c-4.11.52-8.21 1.07-12.27 1.85s-8.09 1.64-12.1 2.62-8 2.17-11.9 3.4-7.82 2.67-11.59 4.29l-6.64 2.21-6.56 2.44-3.22 1.36c-1.07.47-2.15.9-3.2 1.41l-6.27 3.09c-4.14 2.14-8.25 4.32-12.23 6.74a78 78 0 0 0-11.37 8.07zm-157.39 91.63-.31 5.72.08 5.7a71.25 71.25 0 0 0 1.39 11.28 52.57 52.57 0 0 0 3.42 10.8l1.22 2.56c.42.85 1 1.63 1.44 2.45l.73 1.23c.25.4.56.76.84 1.15l1.7 2.3a36.66 36.66 0 0 1-6.63-9.37 48.32 48.32 0 0 1-3.7-10.92 64 64 0 0 1-1.18-11.46 56.22 56.22 0 0 1 1-11.44zm70.59-131.52a28.08 28.08 0 0 0 5.61 9.95 30.68 30.68 0 0 0 8.87 7.07l2.58 1.24a8.87 8.87 0 0 0 1.32.53l1.35.47a45.66 45.66 0 0 0 5.54 1.48l.7.17.71.09 1.43.19 2.86.37 5.78.29-5.81.2-2.9-.24-1.46-.12-.73-.06-.71-.14a34.43 34.43 0 0 1-5.69-1.37l-1.4-.46a8.39 8.39 0 0 1-1.37-.52l-2.67-1.23a30.15 30.15 0 0 1-9-7.47 28.71 28.71 0 0 1-3.15-4.94 24 24 0 0 1-1.86-5.5zm-1301.35 26.1a14.1 14.1 0 0 1 5.3 3.08 15.55 15.55 0 0 1 3.61 5 25.79 25.79 0 0 1 2 12.13 63.11 63.11 0 0 1-2.16 12.07 116.1 116.1 0 0 1-3.8 11.63 93.32 93.32 0 0 1-5.11 11.14l-3.08 5.31a39.73 39.73 0 0 0-2.81 5.32 35.71 35.71 0 0 0-1.48 23.68h-.09a33.08 33.08 0 0 1 .62-24.11 38.58 38.58 0 0 1 2.87-5.48 105.79 105.79 0 0 0 3.14-5.21q3-5.31 5.4-10.9c3.26-7.41 5.55-15.41 5.7-23.51a36.53 36.53 0 0 0-.33-6 22 22 0 0 0-1.55-5.77 16.16 16.16 0 0 0-3.28-5 15.51 15.51 0 0 0-5-3.37z"/><path d="M275.43 1100.54a154.23 154.23 0 0 0 14.4-15.63 112.26 112.26 0 0 0 11.74-17.62c3.31-6.24 5.44-13 7.65-19.75l1.62-5.07.81-2.54.41-1.26a8 8 0 0 1 .56-1.27 7.37 7.37 0 0 1 4.11-3.44 7.64 7.64 0 0 1 5.27.16 7.68 7.68 0 0 0-5.16.14 7.17 7.17 0 0 0-3.73 3.4 12.49 12.49 0 0 0-.84 2.46l-.74 2.56-1.49 5.11c-2.14 6.76-4.18 13.65-7.63 19.94a103.5 103.5 0 0 1-12.05 17.61 127.62 127.62 0 0 1-14.93 15.2zm17.1 56.28q-1.74-3.62-3.74-7.06-2-3.44-4.19-6.77l-4.64-6.47-5-6.25a32 32 0 0 1-3.66-7.21 26.48 26.48 0 0 1-1.57-7.93 20.34 20.34 0 0 1 1.23-8 18.27 18.27 0 0 1 4.44-6.63 18.87 18.87 0 0 0-4 6.78 20.29 20.29 0 0 0-.94 7.77 30.1 30.1 0 0 0 5.32 14.64 39 39 0 0 0 2.45 3.09l1.28 1.54 1.24 1.59 4.59 6.58a85.16 85.16 0 0 1 7.19 14.33zm21.23-52.27a91.7 91.7 0 0 1 15.46 8.75 101.5 101.5 0 0 1 13.72 11.37 87.33 87.33 0 0 1 6 6.63 68.84 68.84 0 0 1 5.23 7.23 64.46 64.46 0 0 1 7.45 16.12 74.19 74.19 0 0 0-3.6-8.1 68.36 68.36 0 0 0-4.5-7.6 86.07 86.07 0 0 0-11.26-13.57 110.6 110.6 0 0 0-13.45-11.46q-3.57-2.61-7.33-5l-7.72-4.37zm6.46-13.58a98.62 98.62 0 0 0 9.63 8 85.79 85.79 0 0 0 10.57 6.56 92.34 92.34 0 0 0 11.34 5.12l2.93 1.07 3 1 3 .92 3 .86a91.79 91.79 0 0 1-6.14-1.31l-3-.85-3-.94a81.21 81.21 0 0 1-11.55-5 76.16 76.16 0 0 1-10.56-6.83 67 67 0 0 1-9.22-8.6z"/><path d="m297.54 1046.37 1.33 4.73 1.39 4.68 1.46 4.67 1.44 4.7a38.62 38.62 0 0 1-2.17-4.43 47.72 47.72 0 0 1-1.68-4.65 38.5 38.5 0 0 1-1.77-9.7zm-60.11 60.67a137.28 137.28 0 0 0-.28-15.45 135.13 135.13 0 0 0-1.88-15.3 75.3 75.3 0 0 0-33.92-49.25c-2.17-1.38-4.42-2.59-6.71-3.78l-6.84-3.62a10 10 0 0 1-3.19-2.27 8.46 8.46 0 0 1-1.86-3.43 8.34 8.34 0 0 1-.11-3.88 8.09 8.09 0 0 1 1.71-3.44 8 8 0 0 0-1.35 7.25 8.26 8.26 0 0 0 1.89 3.25 9.76 9.76 0 0 0 3.13 2.09l6.91 3.49 6.82 3.68a73.58 73.58 0 0 1 34.28 49.74 131.58 131.58 0 0 1 1.4 30.92zm-5.22-87.34a79.32 79.32 0 0 1 14.64 15.91 159.47 159.47 0 0 1 10.54 18.9c3.18 6.48 5.69 13.26 8.65 19.78.75 1.62 1.56 3.22 2.44 4.76a29.37 29.37 0 0 0 3 4.4 19.36 19.36 0 0 0 8.55 6.16v.1a19.62 19.62 0 0 1-5-2.18 20.47 20.47 0 0 1-4.15-3.57 38.33 38.33 0 0 1-5.77-9.23c-1.55-3.27-2.85-6.64-4.18-10l-4-10a82.42 82.42 0 0 0-10.71-18.64 133.49 133.49 0 0 0-14-16.31z"/><path d="M224.8 1047.9a77.47 77.47 0 0 0-11.37-8.07c-4-2.42-8.09-4.6-12.22-6.74-2.06-1.09-4.17-2.09-6.27-3.09-1.06-.51-2.13-1-3.2-1.41s-2.15-.92-3.23-1.36q-3.25-1.26-6.56-2.44l-6.63-2.21c-3.78-1.62-7.67-3-11.6-4.29s-7.89-2.43-11.9-3.4-8-1.92-12.1-2.62-8.16-1.33-12.27-1.85v-.1c2.06.16 4.14.24 6.2.46s4.13.44 6.18.76a137.23 137.23 0 0 1 12.22 2.37c4.03.98 8 2.09 12 3.43a114.83 114.83 0 0 1 11.61 4.54l6.56 2.48 6.5 2.61c4.3 1.82 8.65 3.54 12.89 5.52 2.14.94 4.2 2.06 6.29 3.13s4.06 2.32 6 3.57 3.91 2.59 5.77 4l1.39 1.08 1.34 1.14a27.74 27.74 0 0 1 2.52 2.45zm157.47 91.56a56.21 56.21 0 0 1 1 11.44 64 64 0 0 1-1.18 11.46 48.32 48.32 0 0 1-3.7 10.92 36.42 36.42 0 0 1-6.63 9.37l1.7-2.3.84-1.15.73-1.23 1.44-2.45 1.23-2.56a52.55 52.55 0 0 0 3.41-10.8 71.26 71.26 0 0 0 1.4-11.28 77.4 77.4 0 0 0 .07-5.7l-.31-5.72zm-70.6-131.52a20.91 20.91 0 0 1-1.71 5.43 23 23 0 0 1-1.4 2.52l-.77 1.21-.88 1.14a29 29 0 0 1-8.82 7.31l-2.61 1.24-2.7 1-1.36.47c-.46.15-.93.23-1.4.34a87.17 87.17 0 0 1-2.8.62l-5.68.67h-5.7l5.66-.46 5.57-.93 2.73-.7 1.36-.36 1.32-.48 2.63-1 2.5-1.24a29.64 29.64 0 0 0 8.71-6.91 26 26 0 0 0 5.35-9.87z"/></g><path d="M107.99 1687.48h1738.89v3H107.99z" class="V"/><path d="M1391.77 608.55c0-12.71-8.2-23.69-20.12-28.94a29.38 29.38 0 0 0 1.34-8.72c0-17.8-16.1-32.23-36-32.23s-35.95 14.43-35.95 32.23c0 .82 0 1.62.11 2.42-9.48 3.61-16.13 12-16.13 21.83v.08a8.08 8.08 0 0 1-7.4 8.21l-72.54 5.47 93.81 7.35a14.6 14.6 0 0 0-4.68 10.57c0 6.2 4.07 11.54 9.94 14 0 .57-.08 1.14-.08 1.72 0 13.09 11.83 23.7 26.43 23.7s26.43-10.61 26.43-23.7c0-.6 0-1.19-.08-1.78 19.4-.51 34.92-14.72 34.92-32.21zm-679.94.35-81.35-6.13a21.44 21.44 0 0 0 1.41-7.63c0-9.81-6.65-18.22-16.13-21.83a27.63 27.63 0 0 0 .11-2.42c0-17.8-16.09-32.23-36-32.23s-36 14.43-36 32.23a29.07 29.07 0 0 0 1.35 8.72c-11.92 5.25-20.13 16.23-20.13 28.94 0 17.48 15.52 31.7 34.87 32.21 0 .59-.08 1.18-.08 1.78 0 13.09 11.84 23.7 26.43 23.7s26.43-10.61 26.43-23.7c0-.58 0-1.15-.07-1.72 5.87-2.46 9.93-7.8 9.93-14v-.12a11.41 11.41 0 0 1 10.53-11.66zm493.06-409.46 32.66-28.05-3.86-27.28 37.1-13.3-3.85-18.63 31.95-56.44 21.98 22.48-37.63 42.47 7.48 18.76-46.09 17.47 5.16 12.59-44.9 29.93zm-231.32-71.85 5.63-31.67-15.13-13.96 15.18-25.24-11.04-8.96L960 0l23.35 2.62-1.69 42.36 13.2 7.32-18.41 31.9 8.94 4.85-11.82 38.54zm371.76 261.24 64.69-23.08 6.45-42.45 64.93 1.19 2.47-29.67 76.63-65.39 24.48 45.52-79.2 41.59 3.22 31.9-81.1-.08 2.38 21.48-84.95 18.99zM758.82 192.42l-32.66-28.06 3.85-27.28-37.1-13.3 3.86-18.63-31.95-56.43-21.98 22.47 37.63 42.48-7.48 18.75 46.09 17.48-5.16 12.59 44.9 29.93zM609.53 388.83l-64.68-23.08-6.46-42.45-64.92 1.19-2.48-29.67-76.62-65.39-24.48 45.52 79.19 41.59-3.22 31.9 81.11-.08-2.38 21.48 84.94 18.99z" class="T"/></g></svg>