<svg xmlns="http://www.w3.org/2000/svg" xmlns:xlink="http://www.w3.org/1999/xlink" viewBox="0 0 1954.87 1690.48"><defs><clipPath id="a" transform="translate(-172.57 -182.96)"><rect width="2300" height="2100" style="fill:none"/></clipPath></defs><g style="isolation:isolate"><g style="clip-path:url(#a)"><path d="M1922.12,1871.94H352.32s-97.3-93.64-14.68-178.29c22.78-23.33,25.35-61.53.4-82.51-.64-.54-1.3-1.07-2-1.62,0,0,56.83,4.31,52.65,67.76,0,0,22-14.2,29.09-30.06a24.59,24.59,0,0,1-2.38-2.11c-17-16.6-18-44.76-2.48-62.9,3.82-4.46,9-10.06,14.71-16.06,20.89-21.8,23.2-56.73,5.37-81.41-5.38-7.45-11.16-15.55-17.11-24.06-23.39-33.48-17.83-80.73,12.79-106.82,9.1-7.77,19.86-16.12,32.55-25q9.63-6.75,17.69-12.71c38.77-28.66,48.37-85.43,21.31-126.56l-.68-1c-27.74-41.82-20.53-93.44,16.7-124.51,39.75-33.18,25.46-73.15,25.07-74.23.57.91,26,42.36,4.47,103.39a62.69,62.69,0,0,0,14.67,65,255.93,255.93,0,0,1,39.11,49.84c-2.14-3.79-18.73-35.15.23-70.83,20.22-38.06,54.11-38.47,54.11-38.47s-22.74,13.64-24.1,44.72c-2,46.11,23.1,80.7,54.17,102.66,33.25,23.49,80.78,63.85,95.61,138.06,8.26,41.33,2.77,102.94-8.15,129.82,0,0,40.49-26.11,53.49-55.29a42.15,42.15,0,0,1-4.37-3.87c-31.2-30.5-33.07-82.28-4.56-115.62,7-8.21,16.46-18.51,27-29.55,38.41-40.06,42.64-104.29,9.87-149.66-9.89-13.71-20.51-28.58-31.45-44.24-43-61.53-32.78-148.43,23.5-196.38,16.75-14.28,36.51-29.64,59.84-46,11.82-8.28,22.63-16,32.53-23.37,71.28-52.7,88.93-157.07,39.19-232.68-.41-.64-.83-1.27-1.26-1.91-51-76.85-37.74-171.79,30.7-228.89,73.11-61,46.82-134.5,46.1-136.47,1.17,1.87,47.78,78,8.21,190.08-14.81,41.93-3.87,89,27,119.56a470.92,470.92,0,0,1,72.15,92c-2.78-4.78-35.45-63.53.18-130.6,37.18-70,99.49-70.72,99.49-70.72s-41.81,25.1-44.3,82.21c-3.69,84.78,42.46,148.37,99.58,188.74,61.12,43.19,148.5,117.4,175.78,253.83,27.91,139.67-30,241.74-77.45,298.7-5.18,6.23-10.26,11.93-15.07,17.07-32.18,34.38-33,90.62-.12,124.24,7.64,7.81,16.72,14,27.5,17.18,15.14,4.53,33.61,3.21,56.09-7.58,0,0,34.41-16.79,40.35-57.83s36.17-91,104-102.62c0,0-26.25,23.74-38.08,72.72q5.47-4.07,11.5-8.3,9.64-6.75,17.7-12.71c38.77-28.66,48.37-85.43,21.32-126.56l-.69-1c-27.74-41.82-20.52-93.44,16.7-124.51,39.76-33.18,25.46-73.15,25.07-74.23.56.91,26,42.36,4.47,103.39a62.69,62.69,0,0,0,14.67,65,255.93,255.93,0,0,1,39.12,49.84c-2.15-3.79-18.73-35.15.23-70.83,20.21-38.06,54.11-38.47,54.11-38.47s-22.75,13.64-24.1,44.72c-2,46.11,23.1,80.7,54.16,102.66,33.25,23.49,80.78,63.85,95.6,138.06,16.85,84.28-23.76,143.38-50.31,171.75-17.51,18.7-18,49.29-.06,67.58,10,10.21,24.53,15.26,45.46,5.22,0,0,18.72-9.13,22-31.46s19.68-49.52,56.59-55.82c0,0-40.32,36.47-16,113.26S2021.38,1826.59,1922.12,1871.94Z" transform="translate(-172.57 -182.96)" style="fill:#d2d9e1"/><path d="M507.52,1871.94H483.09a41,41,0,0,0-14.55-29.62c-.52-.45-1.07-.9-1.62-1.34C466.92,1841,497.63,1843.32,507.52,1871.94Z" transform="translate(-172.57 -182.96)" style="fill:#e1e6eb"/><path d="M1818,1871.94H534.21a21,21,0,0,1-1.76-1.58c-14-13.7-14.86-36.95-2.05-51.92,3.15-3.69,7.38-8.31,12.13-13.27,17.25-18,19.15-46.83,4.44-67.2-4.45-6.15-9.21-12.83-14.12-19.87-19.32-27.63-14.73-66.64,10.55-88.18,7.52-6.41,16.39-13.31,26.87-20.63,5.31-3.72,10.16-7.21,14.6-10.49,32-23.67,39.93-70.54,17.6-104.49-.18-.28-.38-.56-.56-.85C579,1459,585,1416.32,615.69,1390.68c32.83-27.4,21-60.4,20.7-61.28.59.94,21.44,35.1,3.69,85.35a51.77,51.77,0,0,0,12.11,53.69,211.5,211.5,0,0,1,32.29,41.14,62.22,62.22,0,0,1,.18-58.46c16.71-31.43,44.69-31.77,44.69-31.77s-18.78,11.27-19.9,36.92c-1.65,38.06,19.07,66.63,44.71,84.74,27.45,19.4,66.69,52.72,78.93,114,6.83,34.12,2.29,85-6.72,107.17,0,0,33.42-21.55,44.16-45.64a34.19,34.19,0,0,1-3.61-3.19c-25.76-25.18-27.3-67.94-3.76-95.46,5.79-6.78,13.59-15.28,22.32-24.39,31.71-33.07,35.2-86.09,8.14-123.56-8.16-11.3-16.92-23.6-26-36.51-35.52-50.81-27.07-122.53,19.41-162.13,13.82-11.79,30.14-24.47,49.39-37.93,9.77-6.83,18.69-13.26,26.86-19.3,58.85-43.5,73.41-129.66,32.35-192.09l-1-1.57c-42.1-63.45-31.15-141.82,25.34-189,60.36-50.37,38.65-111,38.06-112.67,1,1.57,39.44,64.45,6.78,156.92-12.23,34.62-3.19,73.49,22.27,98.71a388.83,388.83,0,0,1,59.37,75.65c-3.25-5.75-28.42-53.35.35-107.5,30.68-57.78,82.13-58.39,82.13-58.39s-34.53,20.71-36.58,67.86c-3,70,35.06,122.49,82.21,155.82,43.56,30.78,103.27,80.64,133.27,166.15a321.76,321.76,0,0,1,11.84,43.4c8.54,42.73,7.35,81.2.47,115.09-13.7,67.56-50,116.92-76.84,145.6-26.58,28.39-27.26,74.81-.11,102.56,15.18,15.51,37.25,23.16,69,7.93,0,0,28.41-13.86,33.32-47.74s29.86-75.16,85.9-84.72c0,0-21.68,19.6-31.44,60,3-2.24,6.17-4.52,9.5-6.85q7.95-5.58,14.6-10.49c32-23.67,39.94-70.54,17.6-104.49l-.57-.85c-22.89-34.51-16.94-77.14,13.79-102.78,32.83-27.4,21-60.4,20.7-61.28.59.94,21.43,35.1,3.69,85.35a51.77,51.77,0,0,0,12.1,53.69,211.13,211.13,0,0,1,32.31,41.14,62.19,62.19,0,0,1,.18-58.46c16.69-31.43,44.67-31.77,44.67-31.77s-18.78,11.27-19.89,36.92c-1.66,38.06,19.06,66.63,44.71,84.74,27.44,19.4,66.69,52.72,78.94,114,13.9,69.58-19.63,118.37-41.55,141.79-14.45,15.43-14.82,40.69,0,55.78,8.25,8.44,20.25,12.6,37.53,4.32,0,0,15.45-7.54,18.12-26s16.25-40.88,46.72-46.08C1833.08,1784.84,1802,1812.92,1818,1871.94Z" transform="translate(-172.57 -182.96)" style="fill:#e1e6eb"/><path d="M725.28,1730c12.54-50.18-8.22-74-8.22-74,19,4.11,27.47,21.88,29.14,36.47s11.3,20.55,11.3,20.55c10.77,6.56,18.26,3.27,23.41-3.41,9.21-12,9-31.93,0-44.16C767.2,1647,746.29,1608.33,755,1553.25c7.64-48.49,32.11-74.86,49.23-90.21,16-14.35,28.92-37,27.88-67.09-.69-20.29-12.41-29.21-12.41-29.21s17.46.26,27.87,25.13a60.86,60.86,0,0,1,0,46.53,167.73,167.73,0,0,1,20.25-32.81c8.64-10.86,11.7-27.59,7.56-42.5-11.22-40.32,2.3-67.57,2.3-67.57s-7.85,26.54,12.91,48.52c19.16,20.3,22.87,54,8.59,81.35l-.35.68c-13.93,26.87-9,64,11,82.7q4.15,3.9,9.11,8.3c2.08,1.85,4,3.65,5.93,5.43-6.09-32-19.61-47.52-19.61-47.52,34.95,7.56,50.51,40.23,53.57,67s20.77,37.79,20.77,37.79c19.82,12.06,33.58,6,43-6.27,16.94-22,16.51-58.71-.06-81.18-25.13-34.08-63.58-105.09-47.63-206.34,14-89.15,59-137.64,90.5-165.86,29.4-26.38,53.16-67.93,51.26-123.34-1.28-37.32-22.81-53.72-22.81-53.72s32.09.5,51.23,46.22,0,85.55,0,85.55a307.81,307.81,0,0,1,37.24-60.33c15.88-20,21.51-50.73,13.88-78.13-20.62-74.14,4.24-124.23,4.24-124.23S1186,861,1224.15,901.39c35.23,37.31,42.06,99.34,15.8,149.57l-.65,1.24c-25.61,49.41-16.52,117.61,20.18,152q7.63,7.15,16.75,15.26c12,10.66,22.18,20.7,30.81,30,29,31.34,34.24,88.12,12.09,128.33-5.63,10.22-11.09,20-16.19,28.9-16.87,29.65-14.69,71.62,5.09,97.8,5.44,7.21,10.3,13.94,13.92,19.31,14.67,21.78,13.71,55.62-2.35,75.55a25.23,25.23,0,0,1-2.25,2.53c6.7,19.07,27.54,36.12,27.54,36.12-5.62-17.56-8.45-57.82-4.2-84.83,7.64-48.49,32.11-74.86,49.23-90.21,16-14.35,28.91-37,27.88-67.09-.7-20.29-12.41-29.21-12.41-29.21s17.46.26,27.87,25.13a60.86,60.86,0,0,1,0,46.53,167.73,167.73,0,0,1,20.25-32.81c8.64-10.86,11.7-27.59,7.56-42.5-11.22-40.32,2.3-67.57,2.3-67.57s-7.85,26.54,12.9,48.52c19.17,20.3,22.88,54,8.6,81.35-.12.23-.24.45-.35.68-13.93,26.87-9,64,11,82.7q4.15,3.9,9.11,8.3c6.53,5.8,12.07,11.26,16.76,16.33,15.76,17,18.63,47.93,6.58,69.8-3.06,5.57-6,10.86-8.81,15.73-9.17,16.12-8,39,2.77,53.19,3,3.92,5.6,7.58,7.57,10.5,8,11.85,7.46,30.26-1.28,41.1a13.45,13.45,0,0,1-1.22,1.37c3.64,10.37,15,19.65,15,19.65-2.15-41.46,27.1-44.27,27.1-44.27l-1,1c-12.85,13.72-11.53,38.67.2,53.92,42.54,55.31-7.56,116.5-7.56,116.5H752.48C701.37,1842.3,712.75,1780.2,725.28,1730Z" transform="translate(-172.57 -182.96)" style="fill:#f0f2f5"/><polygon points="1303.36 268.46 1355.9 223.32 1349.7 179.44 1409.39 158.04 1403.19 128.06 1454.59 37.27 1489.95 73.43 1429.41 141.76 1441.45 171.94 1367.29 200.05 1375.59 220.31 1303.36 268.46" style="fill:#f0f2f5"/><polygon points="1569.32 552.45 1673.38 515.3 1683.77 447.02 1788.22 448.94 1792.21 401.2 1915.48 296 1954.87 369.24 1827.46 436.14 1832.63 487.46 1702.15 487.33 1705.98 521.9 1569.32 552.45" style="fill:#f0f2f5"/><polygon points="651.51 268.46 598.96 223.32 605.16 179.44 545.48 158.04 551.67 128.06 500.27 37.27 464.92 73.43 525.45 141.76 513.42 171.94 587.58 200.05 579.27 220.31 651.51 268.46" style="fill:#f0f2f5"/><polygon points="385.54 552.45 281.48 515.3 271.1 447.02 166.64 448.94 162.66 401.2 39.38 296 0 369.24 127.41 436.14 122.23 487.46 252.71 487.33 248.88 521.9 385.54 552.45" style="fill:#f0f2f5"/></g><path d="M1728.45,1486.27c-92.4,122.06-194.22,165.52-194.22,165.52-42.25,36.55-65-7.13-65-7.13-37.71-25.28-53.09-86.35-54-90.14l0-.18,2.8,109.56,50.46,208H820.67l40.61-235.76,6.31-143.38h0v0l-.07.26-.09.31q-1.68,5.7-3.52,11.24A426.53,426.53,0,0,1,845,1551.43h0a415.18,415.18,0,0,1-23.25,43.19c-26,111.47-96.33,57.27-96.33,57.27-31.33-11.62-67.27-39.22-98.28-67.15a944.74,944.74,0,0,1-72.57-73.6,10.47,10.47,0,0,1-2.56-6.66c-1.33-73.52,35.29-109.74,50.74-121.71a10.33,10.33,0,0,1,12.72,0l94.07,73.71,50.81-167.23c7.91-109.3,26.36-173.7,47.55-222.1,11.81-27,21.35-29.5,21.35-29.5,4.09-6.93,65-24.77,116.29-39.05,30.27-8.43,57.15-15.62,66.95-18.59l3.93-3.36a43.64,43.64,0,0,1,36.41-9.77,0,0,0,0,0,0,0,42.93,42.93,0,0,1,11.15,3.68l162.17-2.92,8.36-4.07a51.75,51.75,0,0,1,56.35,7.2s4,.64,10.83,1.78c4.06.69,9.12,1.54,14.94,2.55,50.53,8.77,158.37,28.89,165.39,42.21,0,0,39.46,1.84,55.77,239.14,6.59,95.85,19.92,200.87,19.92,200.87,48.27-13.17,95.93-61.78,106.42-73a5,5,0,0,1,5.38-1.26c41.4,15.06,57.15,85.67,59.81,99.13A5,5,0,0,1,1728.45,1486.27Z" transform="translate(-172.57 -182.96)" style="fill:#f9a21b"/><path d="M1052.83,1602.38a596.89,596.89,0,0,0,1.58-86.14l-9.24-170.83-4.31-79.74-2.56-47.46-10-184.94,94.23-19.28L1257,986.49q-3.37,11.46-6.18,23c0,.16-.08.31-.11.46A490.22,490.22,0,0,0,1237,1125.38q0,12.84.68,25.68c9.44,180.33,19.09,424.09,69.36,720.88H1028.3Z" transform="translate(-172.57 -182.96)" style="fill:#1f4168"/><path d="M1250.84,1009.54c0,.16-.08.31-.11.46-.09-.12-.18-.24-.26-.37Z" transform="translate(-172.57 -182.96)" style="fill:#1f4168"/><g style="opacity:0.8;mix-blend-mode:screen"><polygon points="913.32 1111.68 913.32 1117.91 870.2 1117.91 869.86 1111.68 913.32 1111.68" style="fill:#fff"/></g><g style="opacity:0.4;mix-blend-mode:multiply"><path d="M1412.61,1291.88s-7.08,137.33,2.53,262.45C1415.14,1554.33,1420.52,1443.62,1412.61,1291.88Z" transform="translate(-172.57 -182.96)" style="fill:#a65b3c"/></g><g style="opacity:0.4;mix-blend-mode:multiply"><path d="M875.79,1286.06s-1.08,45.2-8.19,206.69v0l-.07.26-.09.31q-1.68,5.7-3.52,11.24A426.53,426.53,0,0,1,845,1551.43C845.23,1550,867.64,1382,875.79,1286.06Z" transform="translate(-172.57 -182.96)" style="fill:#a65b3c"/></g><g style="opacity:0.4;mix-blend-mode:multiply"><polygon points="884.17 1376.41 855.73 1688.98 899.39 1688.8 884.17 1376.41" style="fill:#1f4168"/></g><g style="opacity:0.4;mix-blend-mode:multiply"><path d="M585.93,1455.57s-15.64,31.87-28.4,42.55c-7.63,6.39,4.26-64.47,17.73-66.8S585.93,1455.57,585.93,1455.57Z" transform="translate(-172.57 -182.96)" style="fill:#a65b3c"/></g><g style="opacity:0.4;mix-blend-mode:multiply"><path d="M1720.75,1457.56s6.57,15.88,6.11,21.13c-.39,4.39-23.3-22.92-23.3-22.92Z" transform="translate(-172.57 -182.96)" style="fill:#a65b3c"/></g><g style="opacity:0.4;mix-blend-mode:multiply"><path d="M1194.05,1145.41a61.34,61.34,0,0,0,6.94,30.7s-30.79-16.3-44.7-5.06C1156.29,1171.05,1176.1,1137.3,1194.05,1145.41Z" transform="translate(-172.57 -182.96)" style="fill:#1f4168"/></g><g style="opacity:0.4;mix-blend-mode:multiply"><path d="M1099,1140.58s22,13.3,31.06,33c0,0-32.28-14.22-60.75-1.85C1069.34,1171.71,1088.94,1161.31,1099,1140.58Z" transform="translate(-172.57 -182.96)" style="fill:#1f4168"/></g><g style="opacity:0.4;mix-blend-mode:multiply"><path d="M1155.23,1183.42c14.72-27.21-30.63-51.12-35-53.35a120.21,120.21,0,0,0,14.17-19.54,105.29,105.29,0,0,0,10-22.29,80.91,80.91,0,0,0,3.46-24.55,55,55,0,0,0-6.15-24,98.57,98.57,0,0,0-13.77-20.07q-2.62-2.94-5.41-5.68l-94.23,19.28,10,184.94a123,123,0,0,0,15.2-1.37c13.76-2.07,26.85-5.18,40.62-6-7.15,33.94-32.08,42.46-53.26,54.82l4.31,79.74c8.18,13.22,19.84,11.62,19.84,11.62-7.15-9.79-6.09-31.5-6.09-31.5,7.14,53.2,46.84,43.68,46.84,43.68a31,31,0,0,1-6.87-6.61c30.16,13.74,35.34-21.39,35.34-21.39-20,13.27-28.16,5.37-31.35-5.86-3.53-12.48-.17-25.84,8-35.91,24.3-29.92,18.68-57.4,18.68-57.4,46.67-62.41-7.58-107.92-7.58-107.92C1145.32,1143.75,1155.23,1183.42,1155.23,1183.42Zm-34.3-164.86c1.56,1.16,3.17,2.29,4.67,3.53a40.13,40.13,0,0,1,13.19,18.85c2.46,7.39,2.68,15.13,2.32,22.64s-2.25,15-4.41,22.34c-2.1,7-4.61,14-7.43,21,7.14-23,12.19-59.34-11.13-90.25C1119.07,1017.3,1120,1017.93,1120.93,1018.56Zm129.54-8.93c.08.13.17.25.26.37,0-.15.07-.3.11-.46Z" transform="translate(-172.57 -182.96)" style="fill:#1f4168"/></g><g style="opacity:0.4;mix-blend-mode:multiply"><path d="M1518.78,1472.74s-47.28,24.39-55.21,71.82a131.55,131.55,0,0,1,.25-29.71,28.71,28.71,0,0,1,13.18-20.51C1486.79,1488.18,1502.53,1479,1518.78,1472.74Z" transform="translate(-172.57 -182.96)" style="fill:#a65b3c"/></g><g style="opacity:0.4;mix-blend-mode:multiply"><path d="M799.81,1556.88s-7.22-29.4-36.25-58.54c0,0,12.8,10.4,24.84,21.88a31.63,31.63,0,0,1,9.64,19.61Z" transform="translate(-172.57 -182.96)" style="fill:#a65b3c"/></g><g style="opacity:0.4;mix-blend-mode:multiply"><path d="M763.56,1498.34s36.25,1.08,59,20.35c0,0-14.15-13.21-27.89-21.58a23.21,23.21,0,0,0-18.53-2.39Z" transform="translate(-172.57 -182.96)" style="fill:#a65b3c"/></g><g style="opacity:0.4;mix-blend-mode:multiply"><path d="M1448,1490.05a215.55,215.55,0,0,1,37.27-22.13,27,27,0,0,1,21.64-.32l11.67,4.87S1476.36,1471.66,1448,1490.05Z" transform="translate(-172.57 -182.96)" style="fill:#a65b3c"/></g><path d="M1099,1140.58l3.74,2.23,1.87,1.13c.6.41,1.18.86,1.77,1.28l3.5,2.62,3.27,2.91a80.41,80.41,0,0,1,11.47,13.17,97.75,97.75,0,0,1,8.67,15.17,87,87,0,0,1,5.71,16.47c-.84-2.78-1.79-5.52-2.89-8.2-.52-1.35-1.12-2.67-1.68-4s-1.22-2.62-1.83-3.93a107.43,107.43,0,0,0-8.79-14.93c-.85-1.16-1.63-2.38-2.54-3.51l-2.71-3.37c-.91-1.13-1.94-2.14-2.91-3.21l-1.47-1.6c-.49-.52-1-1-1.56-1.5l-3.15-3-3.38-2.71c-.57-.45-1.12-.92-1.69-1.36l-1.8-1.22Z" transform="translate(-172.57 -182.96)" style="fill:#1b1a2e"/><path d="M1054.08,1179.44c2.31-1,4.59-2.13,6.81-3.34s4.44-2.42,6.59-3.74a108.63,108.63,0,0,0,12.37-8.69,82.59,82.59,0,0,0,10.82-10.5l2.37-3a16.44,16.44,0,0,0,1.1-1.53l1-1.58,1.06-1.56c.36-.52.62-1.1.94-1.64l1.84-3.33a56.17,56.17,0,0,1-7.76,13.08,77,77,0,0,1-10.79,10.79,99.58,99.58,0,0,1-12.61,8.57A87.61,87.61,0,0,1,1054.08,1179.44Z" transform="translate(-172.57 -182.96)" style="fill:#1b1a2e"/><path d="M1030.74,1078.55l.51,6.49c.09,1.07.15,2.16.26,3.23l.38,3.23c.26,2.15.46,4.31.75,6.45l1,6.42c1.4,8.54,3,17.06,5.13,25.45s4.31,16.77,6.87,25l2,6.19c.69,2,1.36,4.12,2.07,6.16,1.39,4.11,2.88,8.17,4.44,12.22-3.5-7.94-6.48-16.1-9.21-24.34s-5-16.61-7.11-25-3.66-17-4.9-25.57A214.62,214.62,0,0,1,1030.74,1078.55Z" transform="translate(-172.57 -182.96)" style="fill:#1b1a2e"/><path d="M1223.81,1202.24l4-33,4.12-33,4.1-33,4-33c-.92,11.06-2,22.1-3.24,33.14s-2.55,22-3.88,33.07-2.83,22-4.35,33S1225.53,1191.27,1223.81,1202.24Z" transform="translate(-172.57 -182.96)" style="fill:#1b1a2e"/><path d="M1194.05,1145.41a65.88,65.88,0,0,0,.47,8.32c.12,1.38.4,2.74.61,4.1s.54,2.72.93,4.05a64.23,64.23,0,0,0,6.21,15.31,78.2,78.2,0,0,0,9.53,13.55c1.8,2.1,3.72,4.11,5.72,6a74.45,74.45,0,0,0,6.29,5.47,70,70,0,0,1-12.58-11,73.69,73.69,0,0,1-9.83-13.57,61.19,61.19,0,0,1-6.08-15.62A54,54,0,0,1,1194.05,1145.41Z" transform="translate(-172.57 -182.96)" style="fill:#1b1a2e"/><path d="M1147.22,1184.16q4.32-6.87,9-13.5c3.13-4.41,6.31-8.8,9.8-13a71.05,71.05,0,0,1,5.52-6,33.25,33.25,0,0,1,3.12-2.67,31.41,31.41,0,0,1,3.5-2.17,21,21,0,0,1,7.83-2.45,18,18,0,0,1,8.06,1,20.62,20.62,0,0,0-8-.35,19.61,19.61,0,0,0-3.85,1,22.21,22.21,0,0,0-3.63,1.62,32.83,32.83,0,0,0-6.42,4.71,69.65,69.65,0,0,0-5.5,5.88q-5.17,6.21-10,12.74C1153.48,1175.35,1150.31,1179.72,1147.22,1184.16Z" transform="translate(-172.57 -182.96)" style="fill:#1b1a2e"/><polygon points="973.76 1471.93 974.46 1499.06 975.06 1526.19 976.09 1580.45 976.89 1634.71 977.21 1661.85 977.42 1688.98 976.72 1661.86 976.12 1634.73 975.09 1580.47 974.29 1526.2 973.97 1499.07 973.76 1471.93" style="fill:#1b1a2e"/><path d="M1139.08,1195.56l1.21,14.31c.38,4.77.85,9.54,1.14,14.31l1.67,28.68,1.25,28.7c.25,4.78.36,9.56.48,14.35l.38,14.36.37,14.35.26,14.36c.15,9.57.39,19.15.47,28.72l.81,57.43.31,28.72c.08,9.58.21,19.15.2,28.72l.06,28.73,0,28.72-.12,28.72-.29,28.72c-.21,19.14-.45,38.29-.88,57.43h-.1l.42-114.88,0-28.71,0-28.72c-.07-19.15,0-38.29-.14-57.44s-.24-38.29-.64-57.43c-.14-9.58-.45-19.15-.66-28.72l-.36-14.35-.46-14.35c-.59-19.14-1.3-38.27-2-57.4l-1.5-28.67-1.94-28.66Z" transform="translate(-172.57 -182.96)" style="fill:#1b1a2e"/><path d="M1167.78,1184.16c.83,14,1.74,28,2.48,42l2,42.07,1.67,42.08c.3,7,.5,14,.71,21.05l.63,21q.66,21,1.16,42.1l1,42.1,2.09,84.21,1,42.1.9,42.1,1.52,84.22c.51,28.07.85,56.15,1.17,84.22s.62,56.15.77,84.23h-.1L1182,1689.3l-3-168.43c-.58-28.07-1.11-56.14-1.91-84.21l-1.25-42.09q-.63-21.06-1.35-42.1l-2.93-84.17-1.78-42.08-2.07-42.06Z" transform="translate(-172.57 -182.96)" style="fill:#1b1a2e"/><polygon points="705.83 1024.53 704.93 1060.2 703.8 1095.87 701.37 1167.2 698.39 1238.51 696.82 1274.16 695.03 1309.8 700.37 1167.16 705.83 1024.53" style="fill:#a65b3c"/><path d="M955.33,1477.32c-2.61,6.19-5.37,12.31-8.16,18.41s-5.74,12.14-8.72,18.16-6,12-9.11,18l-4.68,8.91-4.78,8.87c-6.49,11.76-13.07,23.46-20,34.95-3.43,5.78-7,11.47-10.53,17.17S882,1613,878.4,1618.68c7.05-11.43,14.06-22.87,20.8-34.48s13.39-23.26,19.81-35,12.67-23.66,18.76-35.61c3.06-6,6-12,9-18S952.57,1483.44,955.33,1477.32Z" transform="translate(-172.57 -182.96)" style="fill:#a65b3c"/><path d="M709.58,1456.54a232.64,232.64,0,0,1,28.82,19,238.24,238.24,0,0,1,25.9,22.87q6,6.24,11.44,13a159.93,159.93,0,0,1,10.08,14.06,139.25,139.25,0,0,1,8.23,15.2,113.53,113.53,0,0,1,5.76,16.27,120.58,120.58,0,0,0-6.21-16.06,138.75,138.75,0,0,0-8.43-15c-3.18-4.77-6.52-9.44-10.14-13.89s-7.46-8.72-11.45-12.85a250.54,250.54,0,0,0-25.65-22.95q-6.76-5.34-13.86-10.24C719.35,1462.61,714.53,1459.47,709.58,1456.54Z" transform="translate(-172.57 -182.96)" style="fill:#a65b3c"/><path d="M763.56,1498.34a106.2,106.2,0,0,1,15.81,1.44,127.2,127.2,0,0,1,15.51,3.59,96.83,96.83,0,0,1,14.72,6.08,61.76,61.76,0,0,1,12.91,9.24,68.65,68.65,0,0,0-6.42-4.63,70.33,70.33,0,0,0-6.84-3.93,104.52,104.52,0,0,0-14.67-5.8,139,139,0,0,0-15.34-3.79q-3.88-.76-7.81-1.29C768.82,1498.85,766.19,1498.57,763.56,1498.34Z" transform="translate(-172.57 -182.96)" style="fill:#a65b3c"/><path d="M1557.76,1457.38a140.14,140.14,0,0,0-16.14,5.14,161.54,161.54,0,0,0-15.49,6.8,158.76,158.76,0,0,0-14.68,8.38,126.72,126.72,0,0,0-13.52,10.1c-2.18,1.79-4.2,3.75-6.25,5.68s-4,4-5.76,6.17l-1.39,1.58c-.46.54-.88,1.11-1.32,1.66-.86,1.11-1.75,2.2-2.58,3.34-1.6,2.31-3.26,4.59-4.68,7s-2.77,4.9-4.13,7.37l-1.76,3.84c-.28.64-.59,1.28-.86,1.93l-.75,2a104.59,104.59,0,0,0-4.88,16.2l.86-4.15.44-2.08c.16-.68.37-1.36.56-2l1.16-4.09c.43-1.35.93-2.67,1.4-4l.72-2c.26-.66.56-1.3.84-2l1.7-3.9c1.33-2.5,2.52-5.09,4-7.49.75-1.2,1.4-2.47,2.23-3.62l2.41-3.51c.83-1.16,1.73-2.26,2.59-3.39.44-.55.86-1.13,1.31-1.67l1.4-1.61c1.81-2.19,3.81-4.2,5.77-6.25s4.09-3.94,6.28-5.76a135.17,135.17,0,0,1,28.51-18.41A144.48,144.48,0,0,1,1557.76,1457.38Z" transform="translate(-172.57 -182.96)" style="fill:#a65b3c"/><path d="M1519.27,1472.47c-3.5.1-7,.31-10.47.61s-7,.66-10.41,1.13a174.2,174.2,0,0,0-20.54,3.91,115.31,115.31,0,0,0-19.75,6.75,71.92,71.92,0,0,0-17.65,11.08,61.8,61.8,0,0,1,8.16-6.6,81.08,81.08,0,0,1,9.17-5.18,109.63,109.63,0,0,1,19.82-7,159.7,159.7,0,0,1,20.7-3.7A153.07,153.07,0,0,1,1519.27,1472.47Z" transform="translate(-172.57 -182.96)" style="fill:#a65b3c"/><path d="M1455.57,1242.13c-1.27,2.45-2.72,4.8-4.16,7.14s-3,4.61-4.62,6.87c-3.18,4.5-6.61,8.83-10.2,13s-7.39,8.2-11.41,12c-1,.94-2,1.91-3,2.82l-3.1,2.73c-1,.92-2.12,1.77-3.2,2.63l-3.24,2.56c4.09-3.69,8.19-7.35,12-11.29,1.95-1.93,3.83-3.93,5.72-5.92.94-1,1.84-2,2.76-3.06s1.83-2,2.71-3.1c3.64-4.12,7-8.44,10.34-12.83S1452.63,1246.79,1455.57,1242.13Z" transform="translate(-172.57 -182.96)" style="fill:#a65b3c"/><path d="M1684.86,1446.44c-3.1,3.33-6.36,6.51-9.61,9.69s-6.63,6.24-10,9.28c-6.77,6.08-13.75,11.93-20.87,17.59s-14.43,11.1-21.93,16.26c-1.88,1.28-3.74,2.6-5.64,3.85l-5.71,3.74c-1.89,1.26-3.84,2.44-5.78,3.62l-5.83,3.55c7.58-5,15.17-10,22.51-15.39,3.71-2.63,7.35-5.35,11-8.06,1.83-1.35,3.61-2.76,5.41-4.15s3.59-2.77,5.36-4.2c7.16-5.59,14.12-11.44,21-17.39S1678.33,1452.78,1684.86,1446.44Z" transform="translate(-172.57 -182.96)" style="fill:#a65b3c"/><polygon points="1245.38 1480.95 1238.5 1451.16 1231.71 1421.36 1218.31 1361.72 1205.13 1302.02 1198.62 1272.16 1192.21 1242.27 1199.1 1272.05 1205.88 1301.86 1219.28 1361.5 1232.46 1421.19 1238.97 1451.06 1245.38 1480.95" style="fill:#a65b3c"/><path d="M844.18,1234.88c1,2.33,2,4.64,3,6.92s2.15,4.56,3.3,6.8c2.29,4.48,4.72,8.89,7.38,13.17,1.27,2.17,2.67,4.26,4,6.37s2.84,4.16,4.36,6.17l2.25,3,2.37,2.94,1.18,1.48,1.23,1.43,2.47,2.87a108.33,108.33,0,0,1-10.11-11.29,131.86,131.86,0,0,1-8.63-12.48,150.65,150.65,0,0,1-7.22-13.35A115.9,115.9,0,0,1,844.18,1234.88Z" transform="translate(-172.57 -182.96)" style="fill:#a65b3c"/><path d="M1418.44,1194.83c-1.2,14.94-2.12,29.91-3,44.87l-1.2,22.46c-.33,7.49-.72,15-1,22.46q-1.87,44.94-2.22,89.91c-.27,15-.18,30-.22,45l.24,22.48.14,11.24.28,11.24.58,22.48.88,22.47.43,11.24.59,11.22,1.18,22.46-1.43-22.44-.71-11.23-.54-11.23-1-22.47-.67-22.48-.32-11.24-.18-11.25-.33-22.49c0-15-.16-30,.06-45q.53-45,2.56-89.93c.31-7.49.73-15,1.09-22.46l1.3-22.46C1416,1224.71,1417.08,1209.76,1418.44,1194.83Z" transform="translate(-172.57 -182.96)" style="fill:#a65b3c"/><path d="M836.76,1048.78c8.29,9.43,14.58,20.51,19.48,32.06,2.5,5.76,4.65,11.67,6.57,17.65s3.66,12,5.16,18.12a369,369,0,0,1,7,37c1.72,12.43,2.93,24.93,3.4,37.47-.38-6.26-1-12.5-1.71-18.73s-1.5-12.44-2.45-18.63c-1.89-12.38-4.18-24.71-7.24-36.85-1.47-6.09-3.17-12.11-5.06-18.08s-4-11.85-6.41-17.63c-1.16-2.91-2.5-5.74-3.8-8.58l-2.12-4.19c-.69-1.41-1.52-2.73-2.26-4.11A101.85,101.85,0,0,0,836.76,1048.78Z" transform="translate(-172.57 -182.96)" style="fill:#a65b3c"/><path d="M1476,1024.67c-2.89,4.11-6,8.09-8.53,12.4-2.8,4.16-5.17,8.58-7.7,12.91-4.76,8.82-9.18,17.83-13.18,27s-7.67,18.53-11.1,28c-1.71,4.71-3.36,9.46-4.91,14.23s-3.08,9.55-4.5,14.36c2.43-9.74,5.43-19.34,8.69-28.84s7-18.86,10.9-28.11,8.51-18.22,13.43-27A196,196,0,0,1,1476,1024.67Z" transform="translate(-172.57 -182.96)" style="fill:#a65b3c"/><path d="M1271.32,1497.63c1.24-16.38,3-32.72,4.84-49q1.42-12.24,3-24.46.78-6.11,1.66-12.21l1.77-12.19q3.62-24.37,7.91-48.64l4.38-24.25,2.31-12.1,2.41-12.08c6.59-32.18,14.28-64.19,24.42-95.48,1.31-3.89,2.54-7.81,3.92-11.68s2.72-7.76,4.21-11.59l2.24-5.75,1.12-2.87a18.05,18.05,0,0,0,1-2.84,10.07,10.07,0,0,0-.41-5.82,9.92,9.92,0,0,0-3.61-4.6,19.13,19.13,0,0,0-2.64-1.47l-2.75-1.39-5.49-2.79-11-5.57-21.94-11.21,0-.09,22.12,10.86,11,5.47,5.52,2.73,2.76,1.37a20.53,20.53,0,0,1,2.75,1.49,10.81,10.81,0,0,1,4.42,11.2,19.65,19.65,0,0,1-1,3l-1.09,2.88-2.19,5.75c-1.43,3.84-2.75,7.73-4.14,11.59s-2.6,7.78-3.9,11.67c-10,31.26-18,63.16-24.86,95.27l-2.49,12.06-2.38,12.08c-1.55,8.07-3.06,16.14-4.4,24.24q-4.1,24.3-7.53,48.69c-1.17,8.12-2.2,16.27-3.32,24.4s-2.15,16.28-3.16,24.43-1.94,16.31-2.84,24.47-1.81,16.33-2.58,24.5Z" transform="translate(-172.57 -182.96)" style="fill:#a65b3c"/><path d="M1288.66,1139.56c10.42-5.9,20.82-11.83,31.27-17.66l15.66-8.78c1.29-.73,2.66-1.44,3.89-2.19a10.08,10.08,0,0,0,3-3,10,10,0,0,0,1.14-8.25l0,0-11.67-26-11.59-26.07-11.5-26.11-11.39-26.17,11.9,25.94,11.78,26,11.69,26,11.62,26.06v.06a11.32,11.32,0,0,1,.34,4.63,11.14,11.14,0,0,1-1.62,4.35,11,11,0,0,1-3.29,3.28c-1.33.8-2.63,1.46-3.94,2.2l-15.76,8.6C1309.74,1128.21,1299.19,1133.87,1288.66,1139.56Z" transform="translate(-172.57 -182.96)" style="fill:#a65b3c"/><path d="M1043.35,1511.55c-1.57-7.64-3.23-15.26-4.91-22.88s-3.4-15.23-5.12-22.84-3.53-15.2-5.43-22.77-3.62-15.18-5.56-22.73l-2.85-11.35c-1-3.79-2-7.55-3-11.32l-3-11.32c-1-3.78-2.08-7.52-3.12-11.28-2.09-7.52-4.18-15-6.52-22.48l-3.42-11.19-1.71-5.6-1.8-5.57c-2.46-7.4-4.81-14.84-7.34-22.22l-7.76-22.08L973.58,1264l-1-2.73-1.11-2.71-2.22-5.41-4.45-10.82c-.75-1.8-1.47-3.61-2.24-5.4l-2.42-5.32L955.27,1221l-2.4-5.33a19.08,19.08,0,0,1-1.11-2.79,11.36,11.36,0,0,1-.39-3,10.85,10.85,0,0,1,1.73-5.75,12,12,0,0,1,2-2.28,15.62,15.62,0,0,1,2.48-1.67c13.49-7.86,27-15.73,40.5-23.5l.05.08q-20,12.11-40.18,24a15.22,15.22,0,0,0-2.35,1.61,10,10,0,0,0-3.37,7.48,10.45,10.45,0,0,0,.38,2.77,20,20,0,0,0,1.08,2.63l2.46,5.31,4.89,10.65,2.44,5.32c.77,1.8,1.5,3.61,2.25,5.41l4.47,10.83c1.46,3.62,3.06,7.18,4.37,10.86l8.19,21.95,7.6,22.15c2.47,7.4,4.76,14.87,7.14,22.3,4.66,14.9,9,29.89,13.3,44.9,1.06,3.75,2.2,7.49,3.21,11.25l3.08,11.3c1,3.76,2.08,7.52,3.06,11.3l2.93,11.33c4,15.1,7.49,30.31,10.93,45.54s6.65,30.5,9.45,45.86Z" transform="translate(-172.57 -182.96)" style="fill:#a65b3c"/><path d="M998.08,1176.71c-10.88-5-21.79-9.9-32.65-14.93l-16.31-7.51c-1.36-.65-2.71-1.22-4.09-1.92a10.65,10.65,0,0,1-3.5-3,10.83,10.83,0,0,1-1.88-8.86v0l11.48-32.17,11.59-32.12L974.4,1044l11.8-32-11.26,32.25-11.39,32.19-11.47,32.17-11.58,32.12v0a10.41,10.41,0,0,0,0,4.27,10.26,10.26,0,0,0,1.75,3.9,10.07,10.07,0,0,0,3.21,2.81c1.28.67,2.69,1.29,4,1.94l16.23,7.68C976.51,1166.34,987.28,1171.56,998.08,1176.71Z" transform="translate(-172.57 -182.96)" style="fill:#a65b3c"/><circle cx="1680.17" cy="1485.19" r="12.45" transform="translate(-730.64 1440.11) rotate(-45)" style="fill:#1f4168"/><path d="M593.35,1457.2c6.93,6.46,14.09,12.67,21.36,18.73s14.66,12,22.24,17.66c1.87,1.45,3.77,2.86,5.68,4.26s3.79,2.84,5.71,4.21c3.86,2.74,7.71,5.5,11.62,8.16,7.77,5.42,15.77,10.49,23.77,15.57l-6.14-3.58c-2-1.2-4.09-2.4-6.09-3.67l-6-3.78c-2-1.26-4-2.6-6-3.9-7.92-5.22-15.6-10.79-23.18-16.48s-14.94-11.69-22.13-17.87q-5.38-4.63-10.64-9.43C600.12,1463.84,596.66,1460.6,593.35,1457.2Z" transform="translate(-172.57 -182.96)" style="fill:#a65b3c"/><circle cx="598.04" cy="1495.95" r="12.45" transform="translate(-1055.2 678.07) rotate(-45)" style="fill:#1f4168"/><g style="opacity:0.8;mix-blend-mode:screen"><circle cx="981.76" cy="1022.12" r="9.32" style="fill:#fff"/></g><g style="opacity:0.8;mix-blend-mode:screen"><circle cx="987.91" cy="1222.89" r="9.32" style="fill:#fff"/></g><g style="opacity:0.8;mix-blend-mode:screen"><circle cx="990.53" cy="1426.4" r="9.32" style="fill:#fff"/></g><g style="opacity:0.8;mix-blend-mode:screen"><circle cx="1166.97" cy="1812.72" r="9.32" transform="translate(-981.84 2491.3) rotate(-80.78)" style="fill:#fff"/></g><path d="M1333.31,1704.76c7.55-1.43,15.12-2.75,22.69-4l22.72-3.79,22.77-3.56,11.39-1.7,11.41-1.6-11.33,2.08-11.35,2-22.73,3.78-22.76,3.56C1348.52,1702.61,1340.93,1703.74,1333.31,1704.76Z" transform="translate(-172.57 -182.96)" style="fill:#a65b3c"/><path d="M1436.78,1741.56c-11.19,2-22.41,3.93-33.63,5.82l-16.84,2.79-8.42,1.38-4.21.69c-1.41.22-2.78.5-4.24.63a28.39,28.39,0,0,1-8.63-.25,29.88,29.88,0,0,1-15.23-7.72c-.51-.52-1.06-1-1.53-1.54l-1.39-1.65c-.46-.56-.83-1.18-1.25-1.76l-.61-.9-.52-1a28,28,0,0,1-3.09-8l-.43-2.11-.32-2.11-.65-4.22-2.48-16.88,3,16.81.72,4.2.36,2.11.45,2.06a27.71,27.71,0,0,0,3.15,7.78,29.08,29.08,0,0,0,12.09,11.34,28.67,28.67,0,0,0,16.29,2.82c11.21-1.64,22.46-3.55,33.7-5.26S1425.52,1743.17,1436.78,1741.56Z" transform="translate(-172.57 -182.96)" style="fill:#a65b3c"/><path d="M963.45,1712.1c-9.37-1.3-18.73-2.72-28.09-4.15l-28.05-4.41-28-4.64-14-2.4-14-2.5,14.06,2,14,2.12,28.05,4.42,28,4.64C944.81,1708.79,954.14,1710.39,963.45,1712.1Z" transform="translate(-172.57 -182.96)" style="fill:#a65b3c"/><path d="M842.33,1746.18c12.73,1.88,25.46,3.77,38.17,5.75s25.43,4,38.14,6l4.76.76c1.59.24,3.18.52,4.75.67a28.72,28.72,0,0,0,25.18-10.64,28.4,28.4,0,0,0,4.7-8.23c1.16-3,1.52-6.17,2.09-9.35l3.33-19-2.81,19.1c-.52,3.15-.83,6.42-2,9.49a29,29,0,0,1-4.68,8.53,29.7,29.7,0,0,1-25.94,11.11c-1.64-.16-3.22-.46-4.8-.71l-4.77-.77c-12.69-2.07-25.4-4.08-38.09-6.22S855,1748.37,842.33,1746.18Z" transform="translate(-172.57 -182.96)" style="fill:#a65b3c"/><rect x="1146.32" y="1099.77" width="86.54" height="11.69" style="fill:#fff"/><path d="M1670,1390.54s12.52,45.1,45,78.24c0,0,47.78-47.17,67.19-88.16,0,0,36.24-47.48,77.38-78.47a46.8,46.8,0,0,0,13.89-17h0s27-36.6,100.31-62.06c0,0,18.8-4.72,48.87-3.68a8.11,8.11,0,0,0,6.79-13c-5.73-7.65-18.94-15.29-49.26-13.18l30.53-19.5a8,8,0,0,0-2.44-14.55c-9.67-2.41-24.56-1.49-44.79,12.59l-40.24,17.76s-15-16.59-47.82,13.09a167,167,0,0,0-20,3.78c-10.11,2.83-26.16,12.86-42.94-.29a17.89,17.89,0,0,1-6.68-15.3l.33-5.16c.6-9.17,1.7-18.3,3.13-27.39,2.19-13.93,2.65-39.74-23-43.25a11,11,0,0,0-12.55,10.48c-.46,13.64-1.33,36.78-2.17,46.51-1.47,17-6.7,34.53-10.7,44.7-7.9,20-22.23,39.72-26.67,79.34,0,0-8.56,13-8.87,26.3C1725.3,1322.42,1701.53,1369.27,1670,1390.54Z" transform="translate(-172.57 -182.96)" style="fill:#ffc89f"/><path d="M610.15,1390.54s-12.11,48.11-36.36,86.78c0,0-56.41-55.71-75.83-96.7,0,0-36.23-47.48-77.37-78.47a46.7,46.7,0,0,1-13.89-17h0s-27-36.6-100.32-62.06c0,0-18.8-4.72-48.87-3.68a8.11,8.11,0,0,1-6.78-13c5.72-7.65,18.93-15.29,49.26-13.18l-30.54-19.5a8,8,0,0,1,2.45-14.55c9.67-2.41,24.55-1.49,44.79,12.59l40.23,17.76s15-16.59,47.83,13.09a167.41,167.41,0,0,1,20,3.78c10.1,2.83,26.15,12.86,42.93-.29a17.93,17.93,0,0,0,6.69-15.3l-.34-5.16c-.6-9.17-1.7-18.3-3.12-27.39-2.2-13.93-2.66-39.74,22.95-43.25a11,11,0,0,1,12.54,10.48c.47,13.64,1.34,36.78,2.18,46.51,1.46,17,6.69,34.53,10.7,44.7,7.89,20,22.22,39.72,26.66,79.34,0,0,8.56,13,8.88,26.3C554.84,1322.42,578.61,1369.27,610.15,1390.54Z" transform="translate(-172.57 -182.96)" style="fill:#ffc89f"/><path d="M1316.7,926s-6.55,34.32-41.39,18.71c0,0,12.27-3.9,18.4-12.54,0,0-25.37,24.66-63.28,1.32l58.92-200.34S1369.08,820.73,1316.7,926Z" transform="translate(-172.57 -182.96)" style="fill:#1b1a2e"/><path d="M1237.58,956.91V804.73h-187V955.82A32.21,32.21,0,0,1,1029.69,986l-1.4.53v46.77l63.43,56.12a134.19,134.19,0,0,1,37.58,55.68l13.36,37.66,8.3-24.67a134.22,134.22,0,0,1,39-58.34l4.63-4s43-43.3,62.49-109.17h0A32.2,32.2,0,0,1,1237.58,956.91Z" transform="translate(-172.57 -182.96)" style="fill:#ffc89f"/><rect x="846.92" y="393.82" width="249.14" height="401.32" rx="124.57" style="fill:#ffc89f"/><path d="M1144.06,978.09a103.81,103.81,0,0,1-32.3-2.45c-2.66-.58-5.26-1.39-7.89-2.13s-5.14-1.81-7.73-2.7c-1.3-.42-2.51-1.06-3.77-1.6l-3.73-1.68c-2.48-1.15-4.84-2.52-7.27-3.78s-4.64-2.89-7-4.32-4.45-3.17-6.65-4.78-4.18-3.51-6.27-5.26-3.93-3.78-5.87-5.69A103.46,103.46,0,0,1,1037,917.21a158.66,158.66,0,0,0,21.09,24c2,1.72,4,3.5,6,5.21s4.13,3.3,6.26,4.85,4.28,3.08,6.5,4.5,4.47,2.82,6.77,4.09,4.6,2.59,7,3.74,4.76,2.27,7.19,3.29,4.87,2,7.37,2.9l3.76,1.26c1.26.4,2.48.92,3.77,1.22A158.56,158.56,0,0,0,1144.06,978.09Z" transform="translate(-172.57 -182.96)" style="fill:#ff9a6c"/><path d="M1255.35,909.54c-.6,1.62-1.23,3.25-1.9,4.86l-1,2.42-1.2,2.32-2.5,4.62c-.92,1.48-1.91,2.92-2.87,4.39-.49.73-.95,1.48-1.47,2.19l-1.62,2.07c-1.09,1.36-2.13,2.79-3.28,4.11s-2.36,2.59-3.54,3.88-2.48,2.48-3.71,3.73l-1.91,1.8-2,1.72c-1.35,1.12-2.62,2.33-4,3.36-2.78,2.14-5.59,4.21-8.54,6.09-1.49.91-3,1.86-4.47,2.73s-3,1.71-4.6,2.48a57.35,57.35,0,0,1-9.67,4c2.94-1.85,5.75-3.82,8.52-5.86s5.49-4.11,8.19-6.18c1.32-1.08,2.63-2.17,4-3.22s2.59-2.2,3.88-3.3,2.56-2.25,3.83-3.37l1.89-1.7,1.82-1.78a164.1,164.1,0,0,0,13.93-14.83c1.08-1.31,2.13-2.65,3.25-3.95l3.05-4.11,1.56-2,1.43-2.14C1253.33,912.37,1254.33,911,1255.35,909.54Z" transform="translate(-172.57 -182.96)" style="fill:#ff9a6c"/><rect x="819.4" y="577.91" width="52.83" height="87.72" rx="23.17" style="fill:#ffc89f"/><path d="M1013.3,785.42a9.24,9.24,0,0,0-5.21,4.82,21.57,21.57,0,0,0-2,6.8,34.59,34.59,0,0,0,1,14.13,18.21,18.21,0,0,0,3,6,8,8,0,0,0,2.07,2c.12.06.19.07.18.1s-.09.06-.06.08.34-.26.54-.67a14.1,14.1,0,0,0,1-3.24c.23-1.19.36-2.43.51-3.68.27-2.51.41-5.07.59-7.65a43.77,43.77,0,0,1,1.51,7.64,32.49,32.49,0,0,1,.19,4,13.26,13.26,0,0,1-.62,4.23,4.91,4.91,0,0,1-1.65,2.41,3.49,3.49,0,0,1-1.86.66,4.39,4.39,0,0,1-1.69-.26,10.41,10.41,0,0,1-3.83-2.82,19.6,19.6,0,0,1-4.12-7.43,29.33,29.33,0,0,1-.2-16.19,19.66,19.66,0,0,1,3.65-7.33,11.25,11.25,0,0,1,3.19-2.64A7.4,7.4,0,0,1,1013.3,785.42Z" transform="translate(-172.57 -182.96)" style="fill:#ff9a6c"/><path d="M1017.83,796.35a23.58,23.58,0,0,1-1.25-4.56c-.26-1.43-.43-2.81-.61-4.08a16.79,16.79,0,0,0-.7-3.26,2.72,2.72,0,0,0-.84-1.21,7.08,7.08,0,0,0-2-1,3.91,3.91,0,0,1,2.45-1.16,4.23,4.23,0,0,1,3,1,7.72,7.72,0,0,1,2.54,5,12.53,12.53,0,0,1-.31,4.9A10.71,10.71,0,0,1,1017.83,796.35Z" transform="translate(-172.57 -182.96)" style="fill:#ff9a6c"/><circle cx="1038.22" cy="587.92" r="11.21" style="fill:#1b1a2e"/><path d="M1231.21,756.62a54.48,54.48,0,0,0-11.56,0,61.52,61.52,0,0,0-11.27,2.19,64,64,0,0,0-10.71,4.16,87.49,87.49,0,0,0-10,5.83c1.47-1.26,2.95-2.55,4.52-3.71a56.61,56.61,0,0,1,5-3.14,49.4,49.4,0,0,1,10.83-4.58,47.73,47.73,0,0,1,11.61-1.89,50.14,50.14,0,0,1,5.88.11A33.91,33.91,0,0,1,1231.21,756.62Z" transform="translate(-172.57 -182.96)" style="fill:#1b1a2e"/><path d="M1161.12,733.1c.09,2,.32,3.94.59,5.87a43.23,43.23,0,0,0,1.24,5.66,29.64,29.64,0,0,0,2.12,5.35,33.48,33.48,0,0,0,3.18,4.92,16.26,16.26,0,0,1-4.18-4.33,19.92,19.92,0,0,1-2.55-5.52A23.53,23.53,0,0,1,1161.12,733.1Z" transform="translate(-172.57 -182.96)" style="fill:#ff9a6c"/><path d="M1151.39,733.1a23.53,23.53,0,0,1-.4,11.95,20.51,20.51,0,0,1-2.55,5.52,16.45,16.45,0,0,1-4.19,4.33,31.92,31.92,0,0,0,3.18-4.92,29.64,29.64,0,0,0,2.12-5.35,44.94,44.94,0,0,0,1.25-5.66C1151.07,737,1151.3,735.09,1151.39,733.1Z" transform="translate(-172.57 -182.96)" style="fill:#ff9a6c"/><circle cx="920.54" cy="587.92" r="11.21" style="fill:#1b1a2e"/><path d="M1165.31,799.5c1,4.76,1.8,9.55,2.6,14.33s1.51,9.58,2.2,14.38a31.2,31.2,0,0,1,.49,7.39,19.67,19.67,0,0,1-1.94,7.21,12.93,12.93,0,0,1-5,5.56c-2.16,1.13-4.28,2.28-6.46,3.37,2-1.38,4.06-2.66,6.08-4a12.1,12.1,0,0,0,4.29-5.41,20.29,20.29,0,0,0,1.56-6.83,30.54,30.54,0,0,0-.55-7.08c-.66-4.8-1.32-9.61-1.86-14.43S1165.68,804.35,1165.31,799.5Z" transform="translate(-172.57 -182.96)" style="fill:#1b1a2e"/><path d="M1218.47,718.74a16.2,16.2,0,0,1,.55,7.51,24,24,0,0,1-.83,3.62c-.18.59-.42,1.16-.65,1.73a13.08,13.08,0,0,1-.76,1.71A25.49,25.49,0,0,1,1206.33,744a20.87,20.87,0,0,1-3.46,1.6l-1.78.67c-.6.19-1.22.31-1.84.44-1.23.26-2.46.48-3.69.62s-2.49,0-3.71,0c-.61,0-1.23-.08-1.83-.15s-1.2-.22-1.79-.38c-1.19-.28-2.36-.63-3.5-1a20.73,20.73,0,0,1-3.28-1.68,20.22,20.22,0,0,1-3-2.24,48,48,0,0,1,6.18-3.44c1-.52,1.87-1,2.77-1.43.44-.23.89-.4,1.33-.59s.83-.5,1.25-.71c.83-.44,1.64-.83,2.45-1.18s1.52-.87,2.29-1.23c.37-.2.77-.33,1.13-.54s.72-.42,1.07-.63l1.09-.57A5,5,0,0,0,1199,731c2.88-1.52,5.61-3.25,8.73-5.19S1214.15,721.58,1218.47,718.74Z" transform="translate(-172.57 -182.96)" style="fill:#1b1a2e"/><path d="M1072.75,756.62a33.91,33.91,0,0,1,5.76-1,50,50,0,0,1,5.87-.11,47.65,47.65,0,0,1,11.61,1.89,49.2,49.2,0,0,1,10.83,4.58,56.61,56.61,0,0,1,5,3.14c1.58,1.16,3.06,2.45,4.53,3.71a89.24,89.24,0,0,0-10-5.83,64,64,0,0,0-10.71-4.16,61.68,61.68,0,0,0-11.27-2.19A54.48,54.48,0,0,0,1072.75,756.62Z" transform="translate(-172.57 -182.96)" style="fill:#1b1a2e"/><path d="M1085.48,718.74c4.33,2.84,7.55,5.08,10.72,7s5.85,3.67,8.72,5.19a5.54,5.54,0,0,0,1.07.58l1.09.57c.36.21.72.4,1.07.63s.77.34,1.14.54c.76.36,1.51.8,2.28,1.23s1.63.74,2.46,1.18c.41.21.83.47,1.25.71s.88.36,1.33.59c.9.42,1.81.91,2.76,1.43a48.11,48.11,0,0,1,6.19,3.44,20.74,20.74,0,0,1-3,2.24,20.4,20.4,0,0,1-3.29,1.68,36,36,0,0,1-3.49,1c-.59.16-1.19.26-1.79.38s-1.22.12-1.83.15c-1.23.06-2.46.06-3.71,0s-2.47-.36-3.7-.62c-.61-.13-1.23-.25-1.83-.44l-1.79-.67a21.65,21.65,0,0,1-3.46-1.6,25.46,25.46,0,0,1-10.44-10.73,13.08,13.08,0,0,1-.76-1.71c-.24-.57-.47-1.14-.66-1.73a26.7,26.7,0,0,1-.83-3.62A16.47,16.47,0,0,1,1085.48,718.74Z" transform="translate(-172.57 -182.96)" style="fill:#1b1a2e"/><rect x="1070.75" y="577.91" width="52.83" height="87.72" rx="23.17" style="fill:#ffc89f"/><path d="M1267.32,782.07a21.67,21.67,0,0,1,7.21.39,22.42,22.42,0,0,1,6.77,2.91,22.85,22.85,0,0,1,10.46,19c0,2.46-.09,4.76-.21,7.15-.22,4.73-.55,9.46-1.17,14.19-.63-4.73-1-9.46-1.17-14.19-.16-2.35-.13-4.78-.29-7.06a21.44,21.44,0,0,0-1.28-6.49,20.83,20.83,0,0,0-3.07-5.87,22.88,22.88,0,0,0-4.61-4.82,26,26,0,0,0-5.87-3.42A30.63,30.63,0,0,0,1267.32,782.07Z" transform="translate(-172.57 -182.96)" style="fill:#ff9a6c"/><path d="M1276.46,832.53a9.87,9.87,0,0,1-3.38-2.72,13.22,13.22,0,0,1-2.14-3.76,12.88,12.88,0,0,1-.82-4.25,9.72,9.72,0,0,1,.8-4.27c.63,1.36,1.06,2.62,1.51,3.86l1.32,3.62,1.35,3.61C1275.55,829.85,1276.05,831.09,1276.46,832.53Z" transform="translate(-172.57 -182.96)" style="fill:#ff9a6c"/><path d="M1315.09,646c-61.92-152.88-175.7-108.82-175.7-108.82-72-23-121,11.34-156,60.48h0c-3.73,5-7.21,10-10.8,15s-7.13,10-10.84,14.89c-7.21,9.92-14.69,19.62-22,29.55-3.65,5-7.24,10-10.67,15.18L924,680.16l-4.74,8.12c-1.47,2.78-2.9,5.58-4.32,8.39s-2.52,5.78-3.71,8.69-2,6-2.95,9a42.44,42.44,0,0,0-1.19,4.56l-1.07,4.57c-.82,3-1.12,6.15-1.69,9.2l-.77,4.6c-.21,1.54-.36,3.08-.54,4.62-.29,3.09-.86,6.14-1.08,9.23s-.5,6.16-.81,9.24c-.65,6.16-1,12.38-1.11,18.64a101.17,101.17,0,0,0,1.27,18.84,75.18,75.18,0,0,0,5.4,18.29c.66,1.46,1.29,2.93,2.06,4.34s1.47,2.84,2.3,4.21a74.16,74.16,0,0,0,5.47,7.91,62,62,0,0,0,6.52,7,56.74,56.74,0,0,0,7.46,6,49,49,0,0,0,17,7.6c-2.32,2.1-16.44,15.44-34.07,44.18-19.3,31.48,14.69,46.58,14.69,46.58-17.63-30.63,16.78-81.41,16.78-81.41-47.84,101.55,35.81,112.37,35.81,112.37-34.7,30-30.32,65-30.32,65-38.32,76.66,46.79,61.56,54,60.16a52.38,52.38,0,0,0-4.92,9.67,68.16,68.16,0,0,0-3.3,10.69,66.19,66.19,0,0,0-1.55,11.16,45.54,45.54,0,0,0,.69,11.35c1.45,7.53,4.8,14.51,8.71,20.8a55.84,55.84,0,0,0,6.81,8.88,40.57,40.57,0,0,0,9,7.07,39.44,39.44,0,0,0,10.76,4.24,61.07,61.07,0,0,0,11.35,1.42,120,120,0,0,0,22.21-1.35c13.77-2.08,26.85-5.19,40.63-6-10.19,48.36-56.45,45.11-76.57,74.9s8.54,54.35,8.54,54.35c-2.91-9.8.53-21.18.53-21.18-2.65,20.38,11.12,25.41,11.12,25.41a49.1,49.1,0,0,1,.79-18.79c5.29,34.41,26.47,31.5,26.47,31.5-7.15-9.8-6.09-31.5-6.09-31.5,7.15,53.2,46.85,43.67,46.85,43.67a31.34,31.34,0,0,1-6.88-6.62c30.17,13.77,35.35-21.38,35.35-21.38-20,13.27-28.16,5.37-31.35-5.85-3.54-12.48-.18-25.84,8-35.91,24.29-29.92,18.68-57.4,18.68-57.4,46.67-62.42-7.58-107.92-7.58-107.92,23.33,9.63,33.25,49.29,33.25,49.29,14.71-27.21-30.63-51.11-35-53.34a121.25,121.25,0,0,0,14.17-19.54,104.76,104.76,0,0,0,10-22.29,76.36,76.36,0,0,0,2.67-12.1,77.2,77.2,0,0,0,.79-12.45,55,55,0,0,0-6.14-23.95,98.69,98.69,0,0,0-13.77-20.07,121,121,0,0,0-17.84-16.38,218.33,218.33,0,0,0-20.16-13,193.69,193.69,0,0,0-19.07-9.67c-44.81-28.2-53.9-70.06-53.29-101.26.39-19.36,6-38.16,15.26-55.17,17-31.22,16-64.34,16-64.34,10.06-10.52,22.33-30.67,37.52-89.24,12.25-47.2,36.22-51.89,41.93-51.47l.28,0a87.33,87.33,0,0,1,27.6,10.93q3.17,1.95,6.13,4.15a73.11,73.11,0,0,1,5.76,4.61,118.6,118.6,0,0,1,10.41,10.5,116.63,116.63,0,0,1,9.18,11.86,83.21,83.21,0,0,1,7.11,13.43c.52,1.16.93,2.37,1.35,3.57s.85,2.4,1.22,3.62c.65,2.47,1.42,4.89,1.94,7.4,1.17,5,2,10,2.8,15.12s1.4,10.16,2.13,15.23l2.23,15.22c.75,5.09,1.53,10.18,2.41,15.3s1.93,10.22,3.31,15.32a81.36,81.36,0,0,0,5.61,15.06,50.71,50.71,0,0,0,4.27,7.07,39.26,39.26,0,0,0,5.65,6.17,35,35,0,0,0,14.55,7.53,50.3,50.3,0,0,0,15.34,1.37l.4.08c37,69.63,55.67,145.71,42.33,173.48-11.81,24.58-49.82,33.45-49.82,33.45,12.48,18.54,35.66-4.1,35.66-4.1-5.71,13.37-25.35,19.43-25.35,19.43C1340.62,1006,1377,798.88,1315.09,646ZM921.21,829.1a73,73,0,0,1-4.58-7.58c-.74-1.27-1.39-2.6-2-3.94s-1.21-2.7-1.78-4.06a129.25,129.25,0,0,1-5.41-17c-6.16-23.16-4.95-49,2.59-72a158.81,158.81,0,0,1,15.39-32.69c6.32-10.29,13.78-20,20.86-30.05,1-1.4,2-2.82,3-4.24-11.61,24.57-21,48.87-29.11,69-29.55,73.62,17,117.41,26.22,125.1A71,71,0,0,1,921.21,829.1Zm215.07,160.13a40.16,40.16,0,0,1,13.19,18.86c2.45,7.39,2.68,15.13,2.31,22.64s-2.24,15-4.4,22.34c-2.11,7-4.61,14-7.43,21,7.14-23,12.19-59.35-11.14-90.25.93.63,1.85,1.27,2.79,1.9C1133.16,986.86,1134.78,988,1136.28,989.23Zm-95.42,189a71.84,71.84,0,0,1-9.19-.37,42.61,42.61,0,0,1-10-2.09,28.52,28.52,0,0,1-15.64-13.21,33.86,33.86,0,0,1-3.59-9.91,64.09,64.09,0,0,1-1.05-10.39c0-1.79-.08-3.58-.09-5.38C1003.1,1157.12,1012.72,1176.35,1040.86,1178.21Zm213.27-413.43a39.9,39.9,0,0,1-6.36-3.51,34,34,0,0,1-5.34-4.65c-6.37-7-9.45-16.44-11.88-26.09s-4.4-19.75-6.49-29.81c-1-5-2.07-10.09-3.29-15.12s-2.61-10-4-15l-4.34-14.88-2.24-7.44c-.87-2.44-1.59-4.93-2.49-7.37-.46-1.21-.86-2.45-1.3-3.68s-1-2.41-1.42-3.63c-.87-2.47-2-4.82-3-7.26a85.32,85.32,0,0,0-7.92-13.75,61.09,61.09,0,0,0-6.56-7.64c20.87,14.81,40.49,40.92,41.19,86.53.81,53.16,22.37,70.56,33.49,76A56.89,56.89,0,0,1,1254.13,764.78Z" transform="translate(-172.57 -182.96)" style="fill:#1b1a2e"/><path d="M1268.63,769.85c5.06,8.83,9.69,17.91,14.13,27.08s8.4,18.58,12.16,28.06a366.35,366.35,0,0,1,17.79,58.54,198.55,198.55,0,0,1,3.81,30.48,101.13,101.13,0,0,1-.58,15.45c-.67,5.11-1.77,10.32-4.29,15l-2,3.39c-.67,1.12-1.55,2.09-2.32,3.15l-1.19,1.54-1.34,1.41c-.92.92-1.74,1.93-2.73,2.77a72.53,72.53,0,0,1-12.46,9.07,108.19,108.19,0,0,1-28.49,11,113.63,113.63,0,0,0,27.73-12.26,71.61,71.61,0,0,0,11.92-9.18c.93-.84,1.69-1.83,2.55-2.74l1.25-1.38,1.1-1.51c.7-1,1.51-2,2.12-3.05l1.78-3.25a11.91,11.91,0,0,0,.76-1.67c.22-.57.47-1.13.68-1.71.33-1.19.78-2.33,1-3.55a56.07,56.07,0,0,0,1.31-7.34,97.67,97.67,0,0,0,.43-15,198.93,198.93,0,0,0-4-30c-2-9.92-4.49-19.75-7.36-29.47s-6.21-19.31-9.65-28.86-7.28-18.95-11.34-28.26S1273.1,779,1268.63,769.85Z" transform="translate(-172.57 -182.96)" style="fill:#1f4068"/><path d="M1059.66,727.82a133.71,133.71,0,0,1-10.38,53.34,233.35,233.35,0,0,1-12.51,24.26c-4.51,7.88-9.17,15.67-13.83,23.44-9.21,15.6-19.39,30.74-25.44,47.57a81.42,81.42,0,0,0-5,26.09,84.58,84.58,0,0,0,4,26.54l-.29.1a73.92,73.92,0,0,1-6-26.63,76,76,0,0,1,4.4-27.17c3-8.72,7.45-16.79,12.12-24.6s9.83-15.3,14.94-22.78a265,265,0,0,0,14.37-23,192.62,192.62,0,0,0,11-24.71,199.58,199.58,0,0,0,8-25.74,228.67,228.67,0,0,0,4.41-26.7Z" transform="translate(-172.57 -182.96)" style="fill:#1f4068"/><path d="M1080.42,691.15a154.24,154.24,0,0,1-27.64,47.66c-6,7-12.58,13.49-19.13,19.94L1014,778.11l-19.48,19.44q-9.63,9.78-18.54,20.18a250.53,250.53,0,0,0-31.08,45l-.27-.12a180,180,0,0,1,28.91-47,269.55,269.55,0,0,1,19-20.11c6.59-6.43,13.45-12.56,20.34-18.63s13.68-12.25,20.05-18.85a254.25,254.25,0,0,0,17.89-20.83A269.47,269.47,0,0,0,1066.77,715a253,253,0,0,0,13.38-24Z" transform="translate(-172.57 -182.96)" style="fill:#1f4068"/><path d="M955.72,720.67a146.45,146.45,0,0,0-4,25.6,120.32,120.32,0,0,0,1.32,25.66,123.12,123.12,0,0,0,6.67,24.83c1.55,4,3.26,8,5.21,11.83a97.14,97.14,0,0,0,6.46,11.28,86.73,86.73,0,0,1-13.83-22.22A105.83,105.83,0,0,1,953,785.28a110.87,110.87,0,0,1-2.91-12.87,101,101,0,0,1-.69-26.33A99,99,0,0,1,955.72,720.67Z" transform="translate(-172.57 -182.96)" style="fill:#1f4068"/><path d="M950.41,1039.9c.62,2.08,1,4.16,1.58,6.18s1.11,4,1.91,6L955,1055l1.28,2.83a27.41,27.41,0,0,0,1.37,2.77,29.52,29.52,0,0,0,1.5,2.7l1.6,2.65,1.8,2.52c1.21,1.66,2.53,3.25,3.91,4.81a61.6,61.6,0,0,0,9.27,8.5,33.37,33.37,0,0,1-10.93-6.85,42.67,42.67,0,0,1-8.23-10.1,44.47,44.47,0,0,1-4.88-12.07,43.61,43.61,0,0,1-1.12-6.39A60.25,60.25,0,0,1,950.41,1039.9Z" transform="translate(-172.57 -182.96)" style="fill:#1f4068"/><path d="M1018.2,1101.86a81.65,81.65,0,0,0,9.88,20.54,98.74,98.74,0,0,0,14.77,17.18,140.35,140.35,0,0,0,17.88,14.1,179.13,179.13,0,0,0,19.83,11.57,100.11,100.11,0,0,1-21.08-9.59,113.15,113.15,0,0,1-9.71-6.42,116.13,116.13,0,0,1-9-7.48,82,82,0,0,1-14.69-18.13A60.76,60.76,0,0,1,1018.2,1101.86Z" transform="translate(-172.57 -182.96)" style="fill:#1f4068"/><path d="M1048.32,661.45a242.16,242.16,0,0,0-22.1,28.42c-.84,1.24-1.66,2.5-2.42,3.79l-2.36,3.81c-1.47,2.61-3,5.16-4.37,7.83a167.2,167.2,0,0,0-7.61,16.21,157.9,157.9,0,0,0-5.92,16.89,164.17,164.17,0,0,0-4.1,17.44,156.12,156.12,0,0,0-2.13,17.82,109.32,109.32,0,0,0,.19,18c-2.3-11.87-2-24.18-.37-36.19a147.1,147.1,0,0,1,9.55-35.1,159,159,0,0,1,17.62-31.81A170.79,170.79,0,0,1,1048.32,661.45Z" transform="translate(-172.57 -182.96)" style="fill:#1f4068"/><path d="M1131.05,571.79a70.21,70.21,0,0,0-18.39.29,57.61,57.61,0,0,0-17.16,5.7,59.79,59.79,0,0,0-7.78,4.7,79.3,79.3,0,0,0-7.17,5.67,94,94,0,0,0-12.49,13.61,57.46,57.46,0,0,1,10.88-15.29,58.85,58.85,0,0,1,15.19-11.35,55.73,55.73,0,0,1,8.87-3.57,50.79,50.79,0,0,1,9.37-1.78A48.55,48.55,0,0,1,1131.05,571.79Z" transform="translate(-172.57 -182.96)" style="fill:#1f4068"/><path d="M1251.57,642.6a100,100,0,0,0-8.4-21.32,77.62,77.62,0,0,0-13.73-18,86,86,0,0,0-18.28-13.41,98.94,98.94,0,0,0-21.23-8.64,69.23,69.23,0,0,1,22.3,6.56,69.76,69.76,0,0,1,27,22.27,67.41,67.41,0,0,1,12.34,32.5Z" transform="translate(-172.57 -182.96)" style="fill:#1f4068"/><path d="M1300.16,755.9a36,36,0,0,1-17.69,1,42.66,42.66,0,0,1-16.44-7.22,59.85,59.85,0,0,1-12.74-12.53,61.91,61.91,0,0,1-8.67-15.42,114.73,114.73,0,0,0,10.48,13.93,75.76,75.76,0,0,0,12.66,11.58,45.76,45.76,0,0,0,32.4,8.7Z" transform="translate(-172.57 -182.96)" style="fill:#1f4068"/><path d="M1300.16,755.9c-.5.72-1,1.43-1.58,2.14l-.83,1.05c-.3.32-.62.63-.93.95l-1.93,1.87c-.69.56-1.42,1.08-2.14,1.62a15.84,15.84,0,0,1-2.24,1.49c-.78.44-1.54.94-2.35,1.33s-1.63.74-2.45,1.12-1.68.63-2.52.95a42.49,42.49,0,0,1-10.49,2.12,34.19,34.19,0,0,1-10.58-.76c3.51-.39,6.91-.9,10.27-1.56a77.43,77.43,0,0,0,9.84-2.63,55.29,55.29,0,0,0,9.28-4A69.68,69.68,0,0,0,1300.16,755.9Z" transform="translate(-172.57 -182.96)" style="fill:#1f4068"/><path d="M1038.43,801.42a338.68,338.68,0,0,0-10.68,45.34c-.35,1.91-.58,3.83-.84,5.76l-.78,5.75c-.38,3.86-.88,7.7-1.1,11.57-.66,7.72-.88,15.46-.83,23.2s.45,15.48,1.18,23.19,1.8,15.38,3.19,23,3.19,15.17,5.34,22.63a165.07,165.07,0,0,0,7.8,21.95c-7.32-13.78-12.08-28.86-15.43-44.12a230.39,230.39,0,0,1-5.07-46.63,242.17,242.17,0,0,1,4.25-46.7A251.2,251.2,0,0,1,1038.43,801.42Z" transform="translate(-172.57 -182.96)" style="fill:#1f4068"/><path d="M1104.8,1178a37.33,37.33,0,0,1,17.39,1.33,28.88,28.88,0,0,1,7.89,4.31,27.31,27.31,0,0,1,6.05,6.73,38.09,38.09,0,0,1,5.46,16.84,51.07,51.07,0,0,1-1.29,17.36,84,84,0,0,0-1-17,42.08,42.08,0,0,0-5.66-15.54,27.27,27.27,0,0,0-12.27-10.48A51.13,51.13,0,0,0,1104.8,1178Z" transform="translate(-172.57 -182.96)" style="fill:#1f4068"/><path d="M1025.17,1007.11c-6.63,8.65-12.82,17.64-17.42,27.39a81,81,0,0,0-5.45,15.11,67.91,67.91,0,0,0-1.34,7.86,58.81,58.81,0,0,0-.23,8,50,50,0,0,0,11.57,29.42,75,75,0,0,0,11.62,11.33,107.41,107.41,0,0,0,13.48,9.08,235.56,235.56,0,0,0,29.4,13.9c5,2,10.15,3.88,15.23,6a156,156,0,0,1,14.86,7.16,119.93,119.93,0,0,1,26.59,19.5,80.74,80.74,0,0,1,10.56,12.7,58.53,58.53,0,0,1,4.11,7.17,36,36,0,0,1,2.83,7.73l-.29.07a52.2,52.2,0,0,0-7.9-14.08,87.33,87.33,0,0,0-10.94-11.88,131,131,0,0,0-26.5-18.4q-7.11-3.87-14.55-7.13c-4.92-2.19-10-4.14-15.07-6.29a191.38,191.38,0,0,1-29.16-15.12,139.77,139.77,0,0,1-13.3-9.64c-2.11-1.74-4.16-3.57-6.11-5.5a76,76,0,0,1-5.62-6,60.76,60.76,0,0,1-9-13.82,47.64,47.64,0,0,1-4.3-16.07,51.85,51.85,0,0,1,1.5-16.61,74.31,74.31,0,0,1,5.94-15.5,120.31,120.31,0,0,1,19.27-26.57Z" transform="translate(-172.57 -182.96)" style="fill:#1f4068"/><path d="M1078.82,1108.24c1.78.69,3.56,1.38,5.33,2.11l2.66,1.09a24.78,24.78,0,0,1,2.61,1.22,99.72,99.72,0,0,1,27.8,20.44,92,92,0,0,1,13.7,18.61,72.51,72.51,0,0,1,8.27,21.43,107.72,107.72,0,0,0-10.27-20.23q-3.06-4.76-6.52-9.22l-3.54-4.38-3.81-4.15c-1.21-1.45-2.64-2.68-4-4s-2.67-2.65-4.15-3.82l-4.29-3.67c-1.47-1.17-3-2.24-4.52-3.39-3-2.35-6.25-4.23-9.41-6.33-1.54-1.12-3.28-1.89-4.92-2.86S1080.47,1109.21,1078.82,1108.24Z" transform="translate(-172.57 -182.96)" style="fill:#1f4068"/><path d="M1075.32,1236.91c-4,3.68-7.92,7.23-11,11.51a69.65,69.65,0,0,0-4.48,6.47,73,73,0,0,0-3.56,7,78.21,78.21,0,0,0-4.94,14.95,96.72,96.72,0,0,0-2.11,15.84,51.78,51.78,0,0,1-.19-16.25,58,58,0,0,1,4.51-15.76,66.72,66.72,0,0,1,3.89-7.27l2.43-3.34c.43-.54.78-1.13,1.26-1.63l1.4-1.51A47.65,47.65,0,0,1,1075.32,1236.91Z" transform="translate(-172.57 -182.96)" style="fill:#1f4068"/><path d="M1067.64,1243.06a68.3,68.3,0,0,0-10.15,8.7,81.88,81.88,0,0,0-8.09,10.45,121.32,121.32,0,0,0-6.55,11.57c-2,4-3.82,8.08-5.55,12.28a55.19,55.19,0,0,1,3.41-13.22,66.9,66.9,0,0,1,6.19-12.27,54.07,54.07,0,0,1,9-10.48A37.21,37.21,0,0,1,1067.64,1243.06Z" transform="translate(-172.57 -182.96)" style="fill:#1f4068"/><path d="M1114.64,1179.75a28.36,28.36,0,0,1,8.44,7.13A27.53,27.53,0,0,1,1128,1197c1.94,7.38,1,15.19-1.28,22.28a61.25,61.25,0,0,1-10.85,19.42,54.69,54.69,0,0,1-16.91,14.06,73.42,73.42,0,0,0,15.06-15.49,69.52,69.52,0,0,0,9.85-18.92c2.24-6.71,3.2-13.92,1.87-20.83a28.39,28.39,0,0,0-3.88-9.78A33.54,33.54,0,0,0,1114.64,1179.75Z" transform="translate(-172.57 -182.96)" style="fill:#1f4068"/><path d="M1033.47,913.53a97.35,97.35,0,0,0,12,21.85,239,239,0,0,0,15.89,19.3c5.54,6.28,11.18,12.51,17,18.59s11.76,12,17.44,18.25a135.15,135.15,0,0,1,15.49,20.09,95.58,95.58,0,0,1,10.66,23.18,84.91,84.91,0,0,1,3.48,25.26,105.71,105.71,0,0,1-3.48,25.09l-.3-.07a136.94,136.94,0,0,0,1.42-25,94.53,94.53,0,0,0-4.18-24.39,106.57,106.57,0,0,0-10-22.64,178.28,178.28,0,0,0-14.32-20.48,220.78,220.78,0,0,0-16.9-18.64c-6-5.92-12.22-11.54-18.11-17.58a134.61,134.61,0,0,1-16-19.68,73.66,73.66,0,0,1-10.39-23.08Z" transform="translate(-172.57 -182.96)" style="fill:#1f4068"/><path d="M1270.72,692q3.69,4.74,7.32,9.55c2.41,3.21,4.93,6.35,7.09,9.74l6.65,10.06,1.66,2.52,1.51,2.61,3,5.22,3,5.22,1.5,2.62c.48.89.92,1.79,1.37,2.69l5.44,10.78c.45.9.93,1.79,1.35,2.7l1.21,2.76,2.43,5.53,2.42,5.53c.84,1.83,1.49,3.74,2.23,5.61a315,315,0,0,1,14.31,46.08c1.85,7.82,3.27,15.75,4.5,23.69a217,217,0,0,1,2.12,24,322.55,322.55,0,0,0-8.89-47.13c-2-7.74-4.27-15.4-6.7-23l-3.85-11.35c-1.35-3.75-2.86-7.45-4.27-11.18a374.94,374.94,0,0,0-20.22-43.4l-2.85-5.28-1.42-2.64-1.56-2.56-6.2-10.27c-2-3.5-4.29-6.75-6.52-10.08S1272.92,695.4,1270.72,692Z" transform="translate(-172.57 -182.96)" style="fill:#1f4068"/><circle cx="1145.81" cy="889.96" r="27.25" transform="translate(-156.16 1617.7) rotate(-76.72)" style="fill:#ff9a6c"/><path d="M1170,902.61a26,26,0,0,1-4.21,6.45,27.94,27.94,0,0,1-6,5,27,27,0,0,1-29.65-1.08,28,28,0,0,1-5.6-5.38,26.15,26.15,0,0,1-3.72-6.74,29,29,0,0,0,10,11.17,27.73,27.73,0,0,0,28.42,1A29.05,29.05,0,0,0,1170,902.61Z" transform="translate(-172.57 -182.96)" style="fill:#e3405a"/><path d="M1168.13,654.32a35.91,35.91,0,0,1,6.84-1.25,9.34,9.34,0,0,1,10,9.95,35.83,35.83,0,0,1-1.26,6.83,38.26,38.26,0,0,1-1.27-6.78,8.77,8.77,0,0,0-7.48-7.48A38.43,38.43,0,0,1,1168.13,654.32Z" transform="translate(-172.57 -182.96)" style="fill:#ff9a6c"/><path d="M1189.68,669.85a35.83,35.83,0,0,1-1.26-6.83,9.36,9.36,0,0,1,9.95-10,35.93,35.93,0,0,1,6.84,1.26,39.33,39.33,0,0,1-6.79,1.28,8.75,8.75,0,0,0-7.47,7.47A40.16,40.16,0,0,1,1189.68,669.85Z" transform="translate(-172.57 -182.96)" style="fill:#ff9a6c"/><path d="M1183.66,632.54a35.83,35.83,0,0,1,1.26,6.83,9.36,9.36,0,0,1-10,10,35.93,35.93,0,0,1-6.84-1.26,39.4,39.4,0,0,1,6.78-1.28,8.74,8.74,0,0,0,7.48-7.47A40,40,0,0,1,1183.66,632.54Z" transform="translate(-172.57 -182.96)" style="fill:#ff9a6c"/><path d="M1205.21,648.07a35.91,35.91,0,0,1-6.84,1.25,9.34,9.34,0,0,1-9.95-10,35.07,35.07,0,0,1,1.26-6.83,38.1,38.1,0,0,1,1.27,6.78,8.77,8.77,0,0,0,7.47,7.48A38.37,38.37,0,0,1,1205.21,648.07Z" transform="translate(-172.57 -182.96)" style="fill:#ff9a6c"/><path d="M1785.63,1217.12a15.62,15.62,0,0,0-5,3.37,16.53,16.53,0,0,0-3.28,5,22,22,0,0,0-1.55,5.77,35.46,35.46,0,0,0-.32,6c.14,8.1,2.43,16.1,5.7,23.51q2.43,5.58,5.39,10.9c1,1.77,2.05,3.5,3.14,5.21a36.63,36.63,0,0,1,2.87,5.48,33.09,33.09,0,0,1,.63,24.11l-.1,0a35.71,35.71,0,0,0-1.48-23.68,38.61,38.61,0,0,0-2.81-5.32c-1.07-1.74-2.11-3.5-3.08-5.31a94.93,94.93,0,0,1-5.11-11.14,116,116,0,0,1-3.79-11.63,63.13,63.13,0,0,1-2.17-12.07,25.79,25.79,0,0,1,2-12.13,15.55,15.55,0,0,1,3.61-5,14.18,14.18,0,0,1,5.3-3.08Z" transform="translate(-172.57 -182.96)" style="fill:#ff9a6c"/><path d="M1830.15,1282.08a115.13,115.13,0,0,1-14.25-15,100.7,100.7,0,0,1-11.28-17.41,73.08,73.08,0,0,1-4-9.59q-1.69-4.9-3.2-9.86c-.51-1.66-1-3.32-1.44-5l-.72-2.48a9.9,9.9,0,0,0-.87-2.36,7.24,7.24,0,0,0-3.73-3.2,7.74,7.74,0,0,0-5-.09,7.53,7.53,0,0,1,5.13-.2,7.44,7.44,0,0,1,4.11,3.21,11.69,11.69,0,0,1,1,2.45l.79,2.46,1.57,4.93c1,3.29,2.14,6.56,3.3,9.8a86.54,86.54,0,0,0,4,9.48,110,110,0,0,0,11,17.42A137.44,137.44,0,0,0,1830.15,1282.08Z" transform="translate(-172.57 -182.96)" style="fill:#ff9a6c"/><path d="M1815,1339.78a82.14,82.14,0,0,1,6.53-13.15,88.5,88.5,0,0,1,8.67-11.88,28.46,28.46,0,0,0,6.22-12.83,20.67,20.67,0,0,0-1.93-14.09,18,18,0,0,1,2.69,6.82,22.69,22.69,0,0,1,0,7.4,28.39,28.39,0,0,1-6.22,13.35,98.49,98.49,0,0,0-8.76,11.65c-1.34,2-2.6,4.12-3.79,6.25S1816.1,1337.57,1815,1339.78Z" transform="translate(-172.57 -182.96)" style="fill:#ff9a6c"/><path d="M1793.81,1287.51c-2.64,1.35-5.2,2.83-7.69,4.41s-5,3.22-7.34,5a110.6,110.6,0,0,0-13.45,11.46,86.62,86.62,0,0,0-11.26,13.57,69.94,69.94,0,0,0-4.5,7.6,76.15,76.15,0,0,0-3.6,8.1,64.82,64.82,0,0,1,7.45-16.12,70.31,70.31,0,0,1,5.23-7.23,85.38,85.38,0,0,1,6-6.63,101.41,101.41,0,0,1,13.71-11.37A91.39,91.39,0,0,1,1793.81,1287.51Z" transform="translate(-172.57 -182.96)" style="fill:#ff9a6c"/><path d="M1787.34,1273.93a66.38,66.38,0,0,1-9.17,8.56,75.57,75.57,0,0,1-10.56,6.83,81.21,81.21,0,0,1-11.55,5c-1,.34-2,.66-3,.94s-2,.61-3,.85c-2,.51-4.08.94-6.13,1.31l3-.86c1-.27,2-.61,3-.92s2-.64,3-1,2-.68,2.93-1.07a91.67,91.67,0,0,0,11.34-5.12,85.79,85.79,0,0,0,10.57-6.56A98.62,98.62,0,0,0,1787.34,1273.93Z" transform="translate(-172.57 -182.96)" style="fill:#ff9a6c"/><path d="M1810,1229.33a38.49,38.49,0,0,1-1.76,9.7c-.5,1.57-1,3.14-1.68,4.65a38.69,38.69,0,0,1-2.18,4.43c.46-1.59.95-3.14,1.45-4.7l1.45-4.67c.48-1.55.93-3.12,1.39-4.68S1809.6,1230.92,1810,1229.33Z" transform="translate(-172.57 -182.96)" style="fill:#ff9a6c"/><path d="M1870.13,1290a131.58,131.58,0,0,1,1.4-30.89,73.58,73.58,0,0,1,34.28-49.74c2.21-1.35,4.53-2.53,6.83-3.68l6.9-3.49a9.92,9.92,0,0,0,3.14-2.09,8.36,8.36,0,0,0,1.88-3.25,8,8,0,0,0-1.35-7.25,8.22,8.22,0,0,1,1.72,3.44,8.34,8.34,0,0,1-.12,3.88,8.46,8.46,0,0,1-1.86,3.43,10,10,0,0,1-3.19,2.27l-6.83,3.62c-2.29,1.19-4.55,2.4-6.72,3.78a75.3,75.3,0,0,0-33.93,49.22,149.18,149.18,0,0,0-2.15,30.75Z" transform="translate(-172.57 -182.96)" style="fill:#ff9a6c"/><path d="M1875.42,1202.74a134.37,134.37,0,0,0-14,16.31,91.65,91.65,0,0,0-6,9,90.33,90.33,0,0,0-4.75,9.68c-1.4,3.31-2.7,6.66-4,10s-2.62,6.72-4.18,10a38.33,38.33,0,0,1-5.77,9.23,20.2,20.2,0,0,1-4.15,3.57,19.47,19.47,0,0,1-5,2.18l0-.1a20.71,20.71,0,0,0,4.72-2.5,21.12,21.12,0,0,0,3.84-3.66,30.08,30.08,0,0,0,3-4.4c.89-1.54,1.69-3.14,2.45-4.76,3-6.52,5.46-13.3,8.64-19.78a159.47,159.47,0,0,1,10.54-18.9,79.32,79.32,0,0,1,14.64-15.91Z" transform="translate(-172.57 -182.96)" style="fill:#ff9a6c"/><path d="M1882.69,1230.79a27.85,27.85,0,0,1,2.53-2.45l1.33-1.14,1.39-1.08c1.87-1.42,3.78-2.77,5.77-4s4-2.44,6-3.57,4.14-2.19,6.28-3.13c4.24-2,8.59-3.7,12.89-5.52,2.17-.86,4.34-1.72,6.51-2.61l6.56-2.48,0,0a113,113,0,0,1,11.61-4.54c3.93-1.34,7.93-2.46,12-3.43s8.12-1.76,12.23-2.37c2-.32,4.11-.53,6.17-.76s4.14-.3,6.2-.46v.1c-4.11.52-8.21,1.07-12.27,1.85s-8.09,1.64-12.1,2.62-8,2.17-11.9,3.4-7.82,2.67-11.59,4.29h0l-6.64,2.21c-2.2.79-4.38,1.6-6.56,2.44-1.08.44-2.15.89-3.22,1.36s-2.15.9-3.2,1.41c-2.11,1-4.21,2-6.27,3.09-4.14,2.14-8.25,4.32-12.23,6.74a78,78,0,0,0-11.37,8.07Z" transform="translate(-172.57 -182.96)" style="fill:#ff9a6c"/><path d="M1725.3,1322.42c-.18,1.91-.3,3.81-.31,5.72s0,3.8.08,5.7a71.25,71.25,0,0,0,1.39,11.28,52.57,52.57,0,0,0,3.42,10.8l1.22,2.56c.42.85,1,1.63,1.44,2.45l.73,1.23c.25.4.56.76.84,1.15.57.76,1.14,1.52,1.7,2.3a36.66,36.66,0,0,1-6.63-9.37,48.32,48.32,0,0,1-3.7-10.92,64,64,0,0,1-1.18-11.46A56.22,56.22,0,0,1,1725.3,1322.42Z" transform="translate(-172.57 -182.96)" style="fill:#ff9a6c"/><path d="M1795.89,1190.9a28.08,28.08,0,0,0,5.61,9.95,30.68,30.68,0,0,0,8.87,7.07l2.58,1.24a8.87,8.87,0,0,0,1.32.53l1.35.47a45.66,45.66,0,0,0,5.54,1.48l.7.17.71.09,1.43.19,2.86.37c1.92.11,3.85.16,5.78.29-1.93.1-3.86.15-5.81.2l-2.9-.24-1.46-.12-.73-.06-.71-.14a34.43,34.43,0,0,1-5.69-1.37l-1.4-.46a8.39,8.39,0,0,1-1.37-.52l-2.67-1.23a30.15,30.15,0,0,1-9-7.47,28.71,28.71,0,0,1-3.15-4.94A24,24,0,0,1,1795.89,1190.9Z" transform="translate(-172.57 -182.96)" style="fill:#ff9a6c"/><path d="M494.54,1217a14.1,14.1,0,0,1,5.3,3.08,15.55,15.55,0,0,1,3.61,5,25.79,25.79,0,0,1,2,12.13,63.11,63.11,0,0,1-2.16,12.07,116.1,116.1,0,0,1-3.8,11.63,93.32,93.32,0,0,1-5.11,11.14c-1,1.81-2,3.57-3.08,5.31a39.73,39.73,0,0,0-2.81,5.32,35.71,35.71,0,0,0-1.48,23.68l-.09,0a33.08,33.08,0,0,1,.62-24.11,38.58,38.58,0,0,1,2.87-5.48c1.09-1.71,2.15-3.44,3.14-5.21q3-5.31,5.4-10.9c3.26-7.41,5.55-15.41,5.7-23.51a36.53,36.53,0,0,0-.33-6,22,22,0,0,0-1.55-5.77,16.16,16.16,0,0,0-3.28-5,15.51,15.51,0,0,0-5-3.37Z" transform="translate(-172.57 -182.96)" style="fill:#ff9a6c"/><path d="M448,1283.5a154.23,154.23,0,0,0,14.4-15.63,112.26,112.26,0,0,0,11.74-17.62c3.31-6.24,5.44-13,7.65-19.75l1.62-5.07.81-2.54.41-1.26a8,8,0,0,1,.56-1.27,7.37,7.37,0,0,1,4.11-3.44,7.64,7.64,0,0,1,5.27.16,7.68,7.68,0,0,0-5.16.14,7.17,7.17,0,0,0-3.73,3.4,12.49,12.49,0,0,0-.84,2.46l-.74,2.56c-.49,1.7-1,3.42-1.49,5.11-2.14,6.76-4.18,13.65-7.63,19.94a103.5,103.5,0,0,1-12.05,17.61A127.62,127.62,0,0,1,448,1283.5Z" transform="translate(-172.57 -182.96)" style="fill:#ff9a6c"/><path d="M465.1,1339.78q-1.74-3.62-3.74-7.06t-4.19-6.77c-1.45-2.23-3-4.38-4.64-6.47s-3.5-4-5-6.25a32,32,0,0,1-3.66-7.21,26.48,26.48,0,0,1-1.57-7.93,20.34,20.34,0,0,1,1.23-8,18.27,18.27,0,0,1,4.44-6.63,18.87,18.87,0,0,0-4,6.78,20.29,20.29,0,0,0-.94,7.77,30.1,30.1,0,0,0,5.32,14.64,39,39,0,0,0,2.45,3.09l1.28,1.54,1.24,1.59c1.61,2.13,3.17,4.31,4.59,6.58A85.16,85.16,0,0,1,465.1,1339.78Z" transform="translate(-172.57 -182.96)" style="fill:#ff9a6c"/><path d="M486.33,1287.51a91.7,91.7,0,0,1,15.46,8.75,101.5,101.5,0,0,1,13.72,11.37,87.33,87.33,0,0,1,6,6.63,68.84,68.84,0,0,1,5.23,7.23,64.46,64.46,0,0,1,7.45,16.12,74.19,74.19,0,0,0-3.6-8.1,68.36,68.36,0,0,0-4.5-7.6,86.07,86.07,0,0,0-11.26-13.57,110.6,110.6,0,0,0-13.45-11.46q-3.57-2.61-7.33-5C491.53,1290.34,489,1288.86,486.33,1287.51Z" transform="translate(-172.57 -182.96)" style="fill:#ff9a6c"/><path d="M492.79,1273.93a98.62,98.62,0,0,0,9.63,8,85.79,85.79,0,0,0,10.57,6.56,92.34,92.34,0,0,0,11.34,5.12c1,.39,1.94.75,2.93,1.07s2,.69,3,1,2,.65,3,.92l3,.86c-2.06-.37-4.11-.8-6.14-1.31-1-.24-2-.55-3-.85s-2-.6-3-.94a81.21,81.21,0,0,1-11.55-5,76.16,76.16,0,0,1-10.56-6.83A67,67,0,0,1,492.79,1273.93Z" transform="translate(-172.57 -182.96)" style="fill:#ff9a6c"/><path d="M470.11,1229.33c.43,1.59.89,3.16,1.33,4.73s.91,3.13,1.39,4.68l1.46,4.67c.49,1.56,1,3.11,1.44,4.7a38.62,38.62,0,0,1-2.17-4.43,47.72,47.72,0,0,1-1.68-4.65A38.5,38.5,0,0,1,470.11,1229.33Z" transform="translate(-172.57 -182.96)" style="fill:#ff9a6c"/><path d="M410,1290a137.28,137.28,0,0,0-.28-15.45,135.13,135.13,0,0,0-1.88-15.3A75.3,75.3,0,0,0,373.92,1210c-2.17-1.38-4.42-2.59-6.71-3.78l-6.84-3.62a10,10,0,0,1-3.19-2.27,8.46,8.46,0,0,1-1.86-3.43,8.34,8.34,0,0,1-.11-3.88,8.09,8.09,0,0,1,1.71-3.44,8,8,0,0,0-1.35,7.25,8.26,8.26,0,0,0,1.89,3.25,9.76,9.76,0,0,0,3.13,2.09l6.91,3.49c2.3,1.15,4.61,2.33,6.82,3.68a73.58,73.58,0,0,1,34.28,49.74A131.58,131.58,0,0,1,410,1290Z" transform="translate(-172.57 -182.96)" style="fill:#ff9a6c"/><path d="M404.78,1202.66a79.32,79.32,0,0,1,14.64,15.91,159.47,159.47,0,0,1,10.54,18.9c3.18,6.48,5.69,13.26,8.65,19.78.75,1.62,1.56,3.22,2.44,4.76a29.37,29.37,0,0,0,3,4.4,19.36,19.36,0,0,0,8.55,6.16l0,.1a19.62,19.62,0,0,1-5-2.18,20.47,20.47,0,0,1-4.15-3.57,38.33,38.33,0,0,1-5.77-9.23c-1.55-3.27-2.85-6.64-4.18-10s-2.63-6.7-4-10a82.42,82.42,0,0,0-10.71-18.64,133.49,133.49,0,0,0-14-16.31Z" transform="translate(-172.57 -182.96)" style="fill:#ff9a6c"/><path d="M397.37,1230.86a77.47,77.47,0,0,0-11.37-8.07c-4-2.42-8.09-4.6-12.22-6.74-2.06-1.09-4.17-2.09-6.27-3.09-1.06-.51-2.13-1-3.2-1.41s-2.15-.92-3.23-1.36q-3.25-1.26-6.56-2.44l-6.63-2.21h0c-3.78-1.62-7.67-3-11.6-4.29s-7.89-2.43-11.9-3.4-8-1.92-12.1-2.62-8.16-1.33-12.27-1.85v-.1c2.06.16,4.14.24,6.2.46s4.13.44,6.18.76c4.1.61,8.19,1.39,12.22,2.37s8,2.09,12,3.43a114.83,114.83,0,0,1,11.61,4.54l0,0,6.56,2.48c2.16.89,4.33,1.75,6.5,2.61,4.3,1.82,8.65,3.54,12.89,5.52,2.14.94,4.2,2.06,6.29,3.13s4.06,2.32,6,3.57,3.91,2.59,5.77,4l1.39,1.08,1.34,1.14a27.74,27.74,0,0,1,2.52,2.45Z" transform="translate(-172.57 -182.96)" style="fill:#ff9a6c"/><path d="M554.84,1322.42a56.21,56.21,0,0,1,1,11.44,64,64,0,0,1-1.18,11.46,48.32,48.32,0,0,1-3.7,10.92,36.42,36.42,0,0,1-6.63,9.37c.56-.78,1.13-1.54,1.7-2.3.28-.39.59-.75.84-1.15l.73-1.23c.47-.82,1-1.6,1.44-2.45l1.23-2.56a52.55,52.55,0,0,0,3.41-10.8,71.26,71.26,0,0,0,1.4-11.28c.09-1.9.12-3.8.07-5.7S555,1324.33,554.84,1322.42Z" transform="translate(-172.57 -182.96)" style="fill:#ff9a6c"/><path d="M484.24,1190.9a20.91,20.91,0,0,1-1.71,5.43,23,23,0,0,1-1.4,2.52l-.77,1.21-.88,1.14a29,29,0,0,1-8.82,7.31l-2.61,1.24c-.88.37-1.8.65-2.7,1l-1.36.47c-.46.15-.93.23-1.4.34-.93.22-1.86.43-2.8.62-1.88.31-3.79.45-5.68.67-1.91,0-3.81,0-5.7,0,1.89-.18,3.78-.31,5.66-.46,1.86-.32,3.74-.54,5.57-.93.91-.25,1.82-.48,2.73-.7.45-.12.92-.21,1.36-.36l1.32-.48c.87-.33,1.77-.61,2.63-1l2.5-1.24a29.64,29.64,0,0,0,8.71-6.91A26,26,0,0,0,484.24,1190.9Z" transform="translate(-172.57 -182.96)" style="fill:#ff9a6c"/><rect x="107.99" y="1687.48" width="1738.89" height="3" style="fill:#1b1a2e"/><path d="M1564.34,791.51c0-12.71-8.2-23.69-20.12-28.94a29.38,29.38,0,0,0,1.34-8.72c0-17.8-16.1-32.23-36-32.23s-35.95,14.43-35.95,32.23c0,.82,0,1.62.11,2.42-9.48,3.61-16.13,12-16.13,21.83v.08a8.08,8.08,0,0,1-7.4,8.21l-72.54,5.47,93.81,7.35a14.6,14.6,0,0,0-4.68,10.57c0,6.2,4.07,11.54,9.94,14,0,.57-.08,1.14-.08,1.72,0,13.09,11.83,23.7,26.43,23.7s26.43-10.61,26.43-23.7c0-.6,0-1.19-.08-1.78C1548.82,823.21,1564.34,809,1564.34,791.51Z" transform="translate(-172.57 -182.96)" style="fill:#1f4168"/><path d="M884.4,791.86l-81.35-6.13a21.44,21.44,0,0,0,1.41-7.63c0-9.81-6.65-18.22-16.13-21.83.07-.8.11-1.6.11-2.42,0-17.8-16.09-32.23-36-32.23s-36,14.43-36,32.23a29.07,29.07,0,0,0,1.35,8.72c-11.92,5.25-20.13,16.23-20.13,28.94,0,17.48,15.52,31.7,34.87,32.21,0,.59-.08,1.18-.08,1.78,0,13.09,11.84,23.7,26.43,23.7s26.43-10.61,26.43-23.7c0-.58,0-1.15-.07-1.72,5.87-2.46,9.93-7.8,9.93-14v-.12A11.41,11.41,0,0,1,805.7,798Z" transform="translate(-172.57 -182.96)" style="fill:#1f4168"/><polygon points="1204.89 199.44 1237.55 171.39 1233.69 144.11 1270.79 130.81 1266.94 112.18 1298.89 55.74 1320.87 78.22 1283.24 120.69 1290.72 139.45 1244.63 156.92 1249.79 169.51 1204.89 199.44" style="fill:#1f4168"/><polygon points="973.57 127.59 979.2 95.92 964.07 81.96 979.25 56.72 968.21 47.76 960 0 983.35 2.62 981.66 44.98 994.86 52.3 976.45 84.2 985.39 89.05 973.57 127.59" style="fill:#1f4168"/><polygon points="1345.33 388.83 1410.02 365.75 1416.47 323.3 1481.4 324.49 1483.87 294.82 1560.5 229.43 1584.98 274.95 1505.78 316.54 1509 348.44 1427.9 348.36 1430.28 369.84 1345.33 388.83" style="fill:#1f4168"/><polygon points="758.82 192.42 726.16 164.36 730.01 137.08 692.91 123.78 696.77 105.15 664.82 48.72 642.84 71.19 680.47 113.67 672.99 132.42 719.08 149.9 713.92 162.49 758.82 192.42" style="fill:#1f4168"/><polygon points="609.53 388.83 544.85 365.75 538.39 323.3 473.47 324.49 470.99 294.82 394.37 229.43 369.89 274.95 449.08 316.54 445.86 348.44 526.97 348.36 524.59 369.84 609.53 388.83" style="fill:#1f4168"/></g></svg>