<svg xmlns="http://www.w3.org/2000/svg" viewBox="0 0 1850.49 1200.1" xmlns:v="https://vecta.io/nano"><path d="M326.59 1154.89c-15.958 25.825-49.822 33.836-75.66 17.9h0c-25.832-15.952-33.853-49.817-17.92-75.66l75.78-185.64c16-25.84 77.9-16.54 103.75-.59h0c25.84 15.94 59 65.36 43.09 91.2z" fill="#b9cad4"/><path d="M296.09 1046.02c13.79-51.2 39.64-114.89 85-147-28-6.42-61.24-5.45-72.32 12.51l-75.78 185.64c-15.03 25.783-6.756 58.848 18.647 74.513s58.663 8.213 74.953-16.793l14.83-17.56c-32.42-20.37-57.56-45.94-45.33-91.31z" fill="#80acc0"/><path d="M876.11 1154.89c15.958 25.825 49.822 33.836 75.66 17.9h0c25.832-15.952 33.853-49.817 17.92-75.66l-75.78-185.64c-15.95-25.84-77.9-16.54-103.75-.59h0c-25.85 15.94-59 65.36-43.09 91.2z" fill="#b9cad4"/><path d="M906.59 1046.02c-13.8-51.2-39.64-114.89-85-147 28-6.42 61.24-5.45 72.32 12.51l75.78 185.64c15.096 25.782 6.849 58.9-18.575 74.592s-58.725 8.219-75.005-16.832l-14.83-17.56c32.36-20.41 57.51-45.98 45.31-91.35z" fill="#80acc0"/><path d="M376.38 60.68c-87.56-82.43-225.36-80.9-311 4.72s-87.15 223.41-4.71 311z" fill="#1d71b8"/><path d="M289.8 10.14c6.91 8.05 12.83 16.71 15.68 26.61 5.64 19.62.45 40-12.31 55.78-17.92 22.11-39.87 41.9-59.83 62.18-18.92 19.2-41.07 42-67.22 51.11-40.14 13.92-71.15-16.5-87.52-50.58-9.19-19.14-15.95-39.18-12.71-60.71 2.31-15.35 8-29.49 14.89-43.11-5.28 4.39-10.42 9-15.38 14-85.61 85.62-87.15 223.41-4.71 311L376.38 60.68a222.34 222.34 0 0 0-86.58-50.54z" fill="#0d52a0"/><path d="M194.527 242.53l48.005-48.005 88.261 88.261-48.005 48.005z" fill="#b9cad4"/><path d="M194.547 242.471l23.999-23.999 88.261 88.261-23.999 23.999z" fill="#97afba"/><path d="M227.15 31.76c-39-27.08-175.08 25.6-106.28 61 28.43 14.64 66.87 12.77 93.68-4.2 20.66-13.05 38.73-38.66 12.6-56.8z" fill="#fff"/><path d="M826.27 60.68c87.55-82.43 225.35-80.9 311 4.72s87.14 223.41 4.72 311z" fill="#1d71b8"/><path d="M912.84 10.14c-6.9 8.05-12.84 16.71-15.68 26.61-5.64 19.61-.45 40 12.32 55.78 17.91 22.11 39.86 41.9 59.83 62.18 18.91 19.2 41.06 42 67.21 51.1 40.14 13.93 71.15-16.49 87.52-50.57 9.19-19.14 16-39.19 12.71-60.71-2.31-15.35-8-29.49-14.89-43.11 5.29 4.39 10.42 9 15.38 14 85.61 85.62 87.14 223.41 4.72 311L826.27 60.68a222.3 222.3 0 0 1 86.57-50.54z" fill="#0d52a0"/><path d="M871.845 282.775l88.261-88.261 48.005 48.005-88.261 88.261z" fill="#b9cad4"/><path d="M895.845 306.804l88.261-88.261 23.999 23.999-88.261 88.261z" fill="#97afba"/><path d="M975.49 31.76c39-27.08 175.08 25.6 106.28 61-28.42 14.64-66.87 12.77-93.68-4.2-20.66-13.05-38.72-38.66-12.6-56.8z" fill="#fff"/><path d="M566.26 51.36h70.1v86.6h-70.1z" fill="#b9cad4"/><path d="M566.26 51.36h35.05v86.6h-35.05z" fill="#97afba"/><circle cx="736.73" cy="1087.27" r="498.9" transform="matrix(.707107 -.707107 .707107 .707107 -688.45 378.79)" fill="#d43e5e"/><path d="M1012.51 626.66c0 224.09-181.67 405.76-405.76 405.76S201 850.75 201 626.66s181.66-405.75 405.75-405.75 405.76 181.66 405.76 405.75z" fill="#af3b4f"/><path d="M983.91 626.85c-.11 211.3-171.48 382.5-382.78 382.39S218.64 837.77 218.74 626.47s171.48-382.49 382.77-382.38 382.5 171.47 382.4 382.76z" fill="#fff"/><path d="M593.15 244.29c-207.41 4.36-374.31 173.7-374.41 382.18s166.85 378.2 374.41 382.57z" fill="#dce7f7"/><g fill="none" stroke="#125095" stroke-miterlimit="10" stroke-width="24.74"><path d="M601.32 233.78v60.5m0 669.41v60.5m395.2-395.2h-60.5m-669.41 0h-60.5m600.93-337.45l-31.5 51.66M427.09 914.77l-31.49 51.66"/><path d="M807.04 291.54l-31.5 51.66M427.09 914.77l-31.49 51.66m542.72-543.89l-51.6 31.6M315.91 803.83l-51.59 31.61M808.73 965.4l-31.75-51.51m-351.32-569.8l-31.76-51.5m550.56 532.46l-52.54-30.01M310.7 462.95l-52.54-30.01"/></g><path d="M674.33 79.54v-40c-.006-8.987-7.293-16.27-16.28-16.27H544.59c-8.983.006-16.264 7.287-16.27 16.27v40z" fill="#97afba"/><path d="M563.36 51.39V23.3h-18.77c-8.983.006-16.264 7.287-16.27 16.27v40h146V51.39z" fill="#889ea7"/><g fill="#004b81"><path d="M590.47 345.24h23.28v322.23h-23.28z"/><path d="M590.465 667.456l189.677-103.63 11.157 20.421-189.677 103.63z"/><path d="M635.84 667.47c0 18.629-15.101 33.73-33.73 33.73s-33.73-15.101-33.73-33.73 15.101-33.73 33.73-33.73a33.73 33.73 0 0 1 33.73 33.73z"/></g><path d="M1850.49 1138.3c0 34.131-27.669 61.8-61.8 61.8H991.06a61.79 61.79 0 0 1-61.79-61.8V411.22a61.79 61.79 0 0 1 61.79-61.8h797.63c34.131 0 61.8 27.669 61.8 61.8z" fill="#ba0f43"/><path d="M1815.64 1138.3c0 34.127-27.663 61.794-61.79 61.8H956.22c-34.131 0-61.8-27.669-61.8-61.8V411.22c0-34.131 27.669-61.8 61.8-61.8h797.63c34.127.006 61.79 27.673 61.79 61.8z" fill="#d85563"/><path d="M985.17 397.18h739.7v725.36h-739.7z" fill="#fff"/><path d="M1724.87 397.18h28.29l-28.29 234.79V397.18zm0 537.25l34.95 217.37-630.88-29.26h595.93V934.43z" fill="#a52631"/><path d="M1203.26 468.1c0 25.665-20.805 46.47-46.47 46.47s-46.47-20.805-46.47-46.47 20.805-46.47 46.47-46.47a46.47 46.47 0 0 1 46.47 46.47z" fill="#d85563"/><path d="M1192.43 452.73a35.63 35.63 0 0 1-35.64 35.66h0a35.64 35.64 0 0 1-35.65-35.64v-143c.006-19.685 15.965-35.64 35.65-35.64h0a35.64 35.64 0 0 1 35.64 35.64z" fill="#cbdfeb"/><path d="M1171.09 277.05v208.34a35.6 35.6 0 0 0 21.34-32.63v-143a35.63 35.63 0 0 0-21.34-32.71z" fill="#fff"/><path d="M1183.53 464.99c-19.672.006-35.628-15.928-35.65-35.6v-143a35.43 35.43 0 0 1 2-11.57c-16.673 3.319-28.683 17.949-28.69 34.95v143c-.011 17.425 12.583 32.301 29.771 35.167s33.926-7.121 39.569-23.607a35.46 35.46 0 0 1-7 .66z" fill="#b2d2e5"/><path d="M1599.74 468.1a46.48 46.48 0 0 1-79.343 32.88 46.48 46.48 0 0 1 32.863-79.35 46.47 46.47 0 0 1 46.48 46.47z" fill="#d85563"/><path d="M1588.91 452.73a35.64 35.64 0 0 1-35.65 35.66h0a35.65 35.65 0 0 1-35.67-35.66v-143c.006-19.685 15.965-35.64 35.65-35.64h0c19.685 0 35.644 15.955 35.65 35.64z" fill="#cbdfeb"/><path d="M1567.59 277.05v208.34a35.59 35.59 0 0 0 21.35-32.63v-143a35.62 35.62 0 0 0-21.35-32.71z" fill="#fff"/><path d="M1580 464.99c-19.672.006-35.628-15.928-35.65-35.6v-143a35.43 35.43 0 0 1 2-11.57c-16.672 3.284-28.709 17.878-28.76 34.87v143c-.011 17.425 12.583 32.301 29.771 35.167s33.926-7.121 39.569-23.607a35.38 35.38 0 0 1-6.93.74z" fill="#b2d2e5"/><path d="M1221.32 816.81c9.17-6.94 18.51-13.5 26.85-21.43 7.82-7.44 15.46-15 22.72-23a227.62 227.62 0 0 0 20.23-25.38c6-8.81 10.24-18.28 14.51-28l-41-2.71c-1.34 10.8-.67 22.09-.82 33q-.26 18.78-.52 37.56c-.38 27.8.36 55.66.57 83.46l.63 85.54c.06 7.33-1.57 15.7 4 21.29 6.62 6.7 20.23 9.13 28.54 4 3.49-2.17 9.36-5.64 9.4-10.48l.08-9.83q.08-10.85.16-21.71.43-59.91.88-119.81.21-27.73-.12-55.45-.18-12.15-.34-24.3c-.1-7.7.26-15.58-.69-23.22-1.07-8.65-14.19-10.23-20.86-10.23-7.06 0-19.33 1.59-20.87 10.23s-5.89 16.76-10.09 24.29a184.92 184.92 0 0 1-17.19 24.76c-6.29 7.88-13.14 15.31-20 22.66s-12.84 15.69-18.81 24c-2.48 3.46 3.44 6.24 5.73 6.9 5.38 1.54 12.43 1.3 17-2.2zm124.77 88.58c-3.51 5.22-4.59 9.56-4.62 15.82a39.92 39.92 0 0 0 3.18 16c3.88 9.18 10.89 17.18 18.68 23.27 19.18 15 45.15 20.33 69 19.7s48.74-7 65-25.45c13.6-15.43 20.5-34.84 23-55.1 2.29-18.92 0-39-7.34-56.63-8-19.1-26.19-30.74-45.78-35.3s-39.15-3.71-59-4q-2.79 0-5.58-.18c-4-.19 6.54.48 2.6.17-.87-.07-1.74-.16-2.62-.25-1.68-.18-3.36-.43-5-.73 8.41 1.49 1.48.27-.62-.4-3.16-1 4.9 2 1.87.72-.68-.28-1.35-.61-2-.94-1.13-.57-3.6-2.19 1.13.84-.61-.39-1.18-.83-1.76-1.28-1-.77-4.31-4.51-1.27-.85a24.44 24.44 0 0 1-2.9-4.56c-1.28-2.49.15 2.94.15 1.12v-2-7.91q0-12.63.08-25.27.06-18.8.11-37.6l-23.65 11.59 57.58.08 39.74.06c12.45 0 29.26 1.69 37.34-9.36l-17.56 6.56h0c5 0 18.21-1.42 18.21-8.93s-13.17-8.92-18.21-8.92h0l17.56 6.55c-8-10.86-24.32-9.38-36.57-9.36l-40.51.06-57.58.09c-6.53 0-23.67 1.83-23.64 11.58l.21 71.5c0 6.2 4.64 11.59 8.84 15.71 6.19 6.06 15.54 9.67 23.84 11.5 18.84 4.14 37.81 2.77 56.92 3.28 2 .06 4 .17 6 .27-9-.46-1.3 0 .82.2 2 .22 3.91.53 5.86.87 3.9.7-5.51-1.21-1.66-.33 1.26.3 2.51.65 3.75 1 .93.27 1.84.58 2.75.9-5.71-2-2.31-.88-1-.34a49.66 49.66 0 0 1 5.15 2.6c3 1.74-3.19-2.15-.28-.15.81.56 1.59 1.17 2.36 1.78a43.81 43.81 0 0 1 5.14 4.87c-2.28-2.47.08.19.43.65.67.88 1.28 1.79 1.89 2.71a57.19 57.19 0 0 1 3.45 6.1 79.61 79.61 0 0 1 5 13.27c-.67-2.32.26 1.14.3 1.31.26 1.07.49 2.14.71 3.21.46 2.19.83 4.39 1.15 6.59a118.58 118.58 0 0 1 1.2 14.81c.46 19.43-3 36.67-13.15 53-1.14 1.85-2.41 3.62-3.73 5.35-.2.27-2.49 3-.67.92-.7.81-1.45 1.58-2.2 2.36-1.48 1.53-3.08 3-4.7 4.36-.8.69-1.65 1.34-2.49 2-.61.47-4.6 3-1.29 1a54.25 54.25 0 0 1-5.81 3c-.83.38-4.42 1.69-.17.14-1.08.4-2.18.72-3.28 1l-3.52.88c4.76-1.11.43-.11-.49.06-1.28.22-2.57.39-3.86.56s-7.16.63-1.44.26c-2.15.14-4.31.16-6.46.16-.86 0-1.72 0-2.57-.07 5.23.18.83 0-.23-.06-2.11-.2-4.21-.52-6.3-.87-4.26-.71 3.61.85-.6-.1-1.22-.27-2.43-.6-3.63-.93-2-.54-4-1.19-5.9-1.87 3.41 1.19-.4-.21-.92-.43-1.11-.48-2.21-1-3.3-1.53-1.8-.86-3.54-1.85-5.26-2.86 2.25 1.33-1-.7-1.2-.82-1-.67-1.9-1.39-2.83-2.11a46.06 46.06 0 0 1-14.66-18.67c-4-8.64-5.74-17.92-10-26.29-3.13-6.09-17.61-5.16-21.08 0z" fill="#712a54"/></svg>